<?xml version="1.0" encoding="UTF-8"?><svg id="Layer_2" xmlns="http://www.w3.org/2000/svg" viewBox="0 0 395.93 258.9"><defs><style>.cls-1,.cls-2,.cls-3,.cls-4{fill:#938782;}.cls-1,.cls-3,.cls-5,.cls-4,.cls-6{stroke:#5b4e4a;}.cls-1,.cls-3,.cls-5,.cls-6{stroke-width:2px;}.cls-1,.cls-5,.cls-4,.cls-6{stroke-miterlimit:10;}.cls-3{stroke-linejoin:round;}.cls-3,.cls-4{stroke-linecap:round;}.cls-5{fill:#fff6f0;}.cls-4{stroke-width:3.87px;}.cls-6{fill:#ffbf73;}</style></defs><g id="_404"><g><path class="cls-2" d="M209.34,213.47c-16.32-22.16-8.57-47.76-18.3-50.1-3.21-.77-6.25,1.52-10.06,4.39-9.63,7.26-10.71,18.98-10.95,21.55-1.12,12.14,4.91,21.01,8.47,26.25,6.41,9.43,14.95,14.99,20.07,15.79,3.01,.47,6.13,.32,6.13,.32,.52-.03,2.2-.12,6.19-.91,4.68-.92,7.02-1.39,7.48-2.07,1.87-2.75-5.01-9.74-9.04-15.22Z"/><path class="cls-3" d="M225.74,229.07c-7.42,.84-14.83,1.69-22.25,2.53"/><path class="cls-1" d="M368.33,38.6c-1.06,21.4-13.55,36.37-19.44,43.23-8.62,10.04-18.35,21.38-29.27,19.38-7.11-1.3-12.82-7.91-15.23-14.31-4.67-12.37,4.36-20.38,17.5-53.17,9.09-22.68,9.4-30.39,16.42-32.33,9.38-2.58,22.13,7.51,27.3,18.62,3.23,6.93,2.99,13.17,2.72,18.57Z"/><path class="cls-5" d="M387.59,236.23c-8.19,10.73-22.16,13.25-50.1,18.3-11.93,2.15-27.1,4.77-46.83,2.49-13.34-1.54-23.1-4.67-37.61-9.32-16.15-5.18-24.23-7.77-31.29-12.68-17.24-12-24.31-29.13-26.47-34.55-1.26-3.15-3.34-8.96-6.36-43.34-3.13-35.57-1.58-37.14-5.07-44.5-10.55-22.28-31.21-21.66-32.6-34.87-1.86-17.71,33.45-36.24,55.12-43.84,13.68-4.8,56.09-19.69,94.56,1.21,25.49,13.85,38.68,37.68,55.46,68.01,6.78,12.25,13.14,26.32,17.77,36.56,9.24,20.43,13.85,30.65,16.29,41.4,3.87,17.08,8.98,39.64-2.86,55.15Z"/><path class="cls-6" d="M339.67,54.88c6.77,19.16,6.93,49.81-11.9,62.13-19.05,12.46-45.68-1.59-54.14-6.05-7.18-3.79-21.54-12.81-31.36-30.41-4.73-8.49-17.28-30.98-7.75-48.96,10.56-19.92,42.25-23,63.6-16.49,30.2,9.2,40.9,37.94,41.55,39.78Z"/><path class="cls-1" d="M195.42,150.08c-4.36,20.39-19.29,32.89-24.03,36.85-23.43,19.61-51.91,18.86-74.68,18.25-15.77-.42-37.06-1.23-59.48-14.14-11.37-6.54-27.68-15.93-33.83-34.93-6.17-19.06,1.25-37.4,3.45-42.83,2.43-6.02,2.99-4.94,13.46-22.65,3.05-5.16,6.3-8.38,8.23-14.54,1.26-4.02,1.06-5.8,2.97-11.92,.75-2.41,2.03-6.42,4.25-10.84,3.94-7.83,5.91-11.74,9.28-13.04,9.08-3.49,26.71,11.35,34.46,22.68,1.48,2.16,4.12,6.43,9.36,9.09,2.57,1.31,5.38,1.9,10.9,3.02,6.59,1.35,9.87,1.88,10.97,1.8,6.63-.48,7.15-12.65,18.56-26.07,5.4-6.36,8.21-9.67,12.83-10.4,12.03-1.9,23.87,15.72,28.34,22.36,5.43,8.08,8.48,15.49,12.15,26.44,10.52,31.36,15.78,47.03,12.82,60.88Z"/><path class="cls-1" d="M71.23,198.94c1.61,2.21,5.33,7.49,5.37,15.03,0,.91-.07,8.97-5.73,15.68-10.21,12.11-29.24,8.71-32.37,8.15-5.14-.92-16.95-3.02-23.88-13.53-6.36-9.65-7.55-24.79,.49-33.16,5.71-5.94,13.81-6.11,21.22-6.27,3.61-.08,24.29-.53,34.91,14.1Z"/><path class="cls-3" d="M181.13,188.66c-6.49-1.55-14.75-3.06-24.39-3.72-6.14-.42-16.62-.75-29.54,.93-15.31,1.99-26.43,5.83-29.86,7.06-13.36,4.79-23.53,8.59-29.21,18.15-3.67,6.18-4.16,12.58-4.18,12.99-.11,1.62-.5,7.56,1.69,11.46,4.16,7.42,17.5,7.75,45.16,6.03,22.77-1.42,37.02-3,37.02-3,14.37-1.69,33.27-3.99,55.66-6.95"/><path class="cls-4" d="M33.7,140.24c2.64,1.26,8.44,3.59,16,3,6.04-.47,10.55-2.61,13-4"/><path class="cls-4" d="M89.7,140.24c3.31,1.97,9.15,4.88,17,6,3.81,.54,10.32,.99,18-1"/></g></g></svg>