<?xml version="1.0" encoding="UTF-8"?><svg id="Layer_2" xmlns="http://www.w3.org/2000/svg" viewBox="0 0 1922 463.78"><defs><style>.cls-1{stroke:#635654;}.cls-1,.cls-2,.cls-3,.cls-4,.cls-5,.cls-6{stroke-width:2px;}.cls-1,.cls-2,.cls-3,.cls-4,.cls-5,.cls-6,.cls-7{stroke-miterlimit:10;}.cls-1,.cls-2,.cls-8{fill:#fff3e6;}.cls-2,.cls-3,.cls-4,.cls-5,.cls-6{stroke:#5b4e4a;}.cls-3{fill:#9b8170;}.cls-4{fill:#ff8183;}.cls-5{fill:#b5957f;}.cls-6{fill:#c2d8f2;}.cls-7{fill:none;stroke:#353833;stroke-linecap:round;stroke-width:5.77px;}.cls-9{fill:#353833;}.cls-10{fill:#ffc7be;}</style></defs><g id="about"><g><path class="cls-5" d="M1648.25,296.69c-26.22,7.33-48.1,9.84-63.28,10.75-37.24,2.23-43.73-4.58-45.99-8.18-5.16-8.24-.67-19.63,.56-22.75,2.08-5.3,6.58-13.02,32.53-28.53,8.41-5.03,20.07-11.46,34.62-17.91,13.85,22.21,27.7,44.41,41.55,66.62Z"/><ellipse class="cls-1" cx="1724.64" cy="248.81" rx="71.49" ry="48.83"/><path class="cls-2" d="M1638.22,265.89c-1.79,12.15-5.14,34.87-12.42,35.58-5.74,.56-11.31-15.07-22.45-46.32-4.48-12.58-6.73-20.68-2.92-28.05,2.83-5.46,7.88-8.44,13.74-11.83,9.27-5.36,17.88-7.44,23.32-8.36,2.44,14.5,4.25,34.99,.72,58.98Z"/><path class="cls-6" d="M1831.93,327.86c-71.3,.32-142.59,.65-213.89,.97,.79-20.79,2.75-38.87,4.9-53.63,3.52-24.17,8.02-42.63,10.6-53.04,1.58-6.4,2.99-11.67,3.97-15.25,1.89-1.15,4.63-2.51,8.12-3.34,5.68-1.35,10.47-.62,13.13,0,.75,6.36,2,15.81,4.06,27.22,2.65,14.69,4.02,22.1,6.45,25.55,7.77,11.07,23.67,11.37,52.3,11.91,25.8,.49,42.47,.57,51.81-10.96,1.28-1.59,3.08-4.19,6.45-15.76,3.36-11.52,6.64-26.31,8.13-44.05,4.01,.94,8.02,1.87,12.03,2.81,3.87,9.21,6.84,17.32,9.08,23.9,.89,2.62,2.98,8.88,5.34,17.12,1.83,6.4,3.14,11.62,4.1,15.5,6.56,26.64,10.81,52.46,13.43,71.05Z"/><path class="cls-2" d="M1721.79,214.19c-.64,1.68-1.96,2.64-2.74,3.16-24.45,16.28-44.78,17.02-44.78,17.02-8.81,.32-13.21,.48-17.19-2.39-11.23-8.08-6.89-29.18-6.57-30.68,10.12,.25,20.93,.87,32.36,2.03,13.94,1.41,26.87,3.42,38.68,5.73,.46,1.2,.99,3.18,.24,5.13Z"/><path class="cls-2" d="M1720.13,214.19c.64,1.68,1.96,2.64,2.74,3.16,24.45,16.28,44.78,17.02,44.78,17.02,8.81,.32,13.21,.48,17.19-2.39,11.23-8.08,6.89-29.18,6.57-30.68-10.12,.25-20.93,.87-32.36,2.03-13.94,1.41-26.87,3.42-38.68,5.73-.46,1.2-.99,3.18-.24,5.13Z"/><path class="cls-4" d="M1706.03,219.2c-13.35,7.29-15.47,10.5-15.9,12.12-.06,.22-.08,.4-.1,.54-1.02,6.21,2.82,11.51,3.49,12.44,4.13,5.68,13.2,10.19,19.61,7.2,3.31-1.54,5.08-5.97,8.61-14.82,.49-1.24,2.86-7.3,3.3-14.76,.24-4.08-.21-7.28-2.23-8.68-1.28-.89-3.61-1.23-16.79,5.97Z"/><path class="cls-4" d="M1746.63,227.43c4.66,4.45,5.68,6.28,5.95,7.42,0,.01,.06,.27,.09,.54,.6,4.16-2.48,9.69-6.38,13.13-3.38,2.98-11.11,7.69-17.13,4.72-3.91-1.93-5.08-6.81-7.4-16.56-3.24-13.58-2.08-22.8-.08-23.73,.65-.3,1.49-.38,5.21,1.19,8.26,3.49,14.36,8.16,19.74,13.29Z"/><path class="cls-5" d="M1852.47,51.79c1.43-1.75,10.74-13.53,6.84-28.02-3.76-14-17.69-22.5-30.56-22.76-2.28-.05-15.15-.31-23.72,10.19-3.79,4.64-5.38,9.73-5.9,14.21-16.95-11.77-46.87-27.12-85.41-23.83-26.03,2.22-46.37,12.09-60.6,21.72-1.3-3.22-3.38-7.07-6.77-10.68-8.25-8.8-21.49-13.34-34.11-10.26-15.19,3.71-27.37,17.93-26.96,32.58,.33,11.64,8.5,19.79,11.42,22.7,4.73,4.72,9.86,7.51,14.07,9.18-14.31,21.29-28.61,52.74-17.77,83.98,6.26,18.03,18.44,28.9,25.4,34.97,27.24,23.75,59.45,25.27,100.68,26.67,44.03,1.49,80.36,2.62,109.67-22.94,5.26-4.58,18.64-16.54,25.49-36.52,10.85-31.67-1.12-64.91-18.52-90.24,5.14-1.52,11.57-4.61,16.74-10.94Z"/><g><circle class="cls-10" cx="1804.91" cy="117.24" r="19.34"/><circle class="cls-10" cx="1634.48" cy="117.24" r="19.34"/><path class="cls-9" d="M1669.74,93.73c1.17,6.89-5.76,14.99-13.61,16.23-.44,.07-8.7,1.26-12.18-4.05-2.35-3.58-1.07-7.9-.72-9.07,1.88-6.31,7.94-8.87,9.33-9.45,1.63-.69,8.4-3.54,13.36,.14,.3,.22,3.18,2.42,3.82,6.21Z"/><path class="cls-9" d="M1771.75,93.73c-1.17,6.89,5.76,14.99,13.61,16.23,.44,.07,8.7,1.26,12.18-4.05,2.35-3.58,1.07-7.9,.72-9.07-1.88-6.31-7.94-8.87-9.33-9.45-1.63-.69-8.4-3.54-13.36,.14-.3,.22-3.18,2.42-3.82,6.21Z"/><path class="cls-8" d="M1758.09,131.53c.26,1.39,2.74,15.99-7.04,27.11-9.52,10.81-23.73,10.48-31.35,10.3-6.96-.16-23.83-.56-33.08-13.69-7.09-10.07-5.37-21.45-5.09-23.08,2.78-16.6,19.56-30.64,38.18-30.72,18.22-.08,35.24,13.21,38.39,30.09Z"/><path class="cls-9" d="M1734.62,118.05c.24,1.9-1.15,3.52-1.86,4.34-3.26,3.8-8.73,3.69-13.07,3.6-4.21-.09-9.93-.2-12.94-4.21-.62-.83-1.62-2.15-1.42-3.74,.49-4.05,8.36-6.63,14.37-6.69,6.21-.07,14.39,2.5,14.93,6.69Z"/><line class="cls-7" x1="1719.69" y1="118.8" x2="1719.69" y2="130.26"/></g><path class="cls-5" d="M1898.61,177.04c6.21,6.26,5.5,16.05,5.18,20.57-2.32,32.05-47.96,61.62-55.8,66.59-10.38-22.26-20.77-44.53-31.15-66.79,9.9-7.19,18.77-12,25.18-15.11,10.65-5.15,19.75-9.45,32.23-10.32,8.16-.56,18.09-1.25,24.36,5.06Z"/><path class="cls-2" d="M1844.05,220.52c15.41,28.84,19.95,35.62,16.46,42.72-1.67,3.41-5.5,5.78-13.12,10.53-9.09,5.67-17.26,9-22.73,10.93-2.31-12.86-5.46-26.92-9.79-41.89-3.95-13.66-8.33-26.15-12.78-37.4,1.49-2.61,4.32-6.77,9.17-10.36,2.88-2.14,6.51-4.72,10.03-4.93,6.79-.42,11.69,9.69,22.76,30.4Z"/><circle class="cls-10" cx="1878.47" cy="181.88" r="3.3"/><circle class="cls-10" cx="1890.76" cy="185.75" r="3.3"/><circle class="cls-10" cx="1894.06" cy="198.03" r="3.3"/><path class="cls-10" d="M1884.87,202.09c-2.61,1.57-7.18-1.55-9.31-4.7-.32-.47-3.04-4.56-1.51-6.77,1.67-2.42,8.14-2.19,11.06,1.51,2.47,3.13,2.21,8.47-.24,9.95Z"/></g><g><rect class="cls-5" x="1" y="359.87" width="1920" height="102.92"/><rect class="cls-3" x="1" y="320.14" width="1920" height="39.72"/></g></g></svg>