<?xml version="1.0" encoding="UTF-8"?><svg id="Layer_2" xmlns="http://www.w3.org/2000/svg" xmlns:xlink="http://www.w3.org/1999/xlink" viewBox="0 0 1653.79 963.25"><defs><style>.cls-1,.cls-2,.cls-3,.cls-4,.cls-5,.cls-6,.cls-7,.cls-8,.cls-9,.cls-10,.cls-11,.cls-12,.cls-13,.cls-14,.cls-15,.cls-16,.cls-17,.cls-18,.cls-19,.cls-20,.cls-21,.cls-22,.cls-23,.cls-24,.cls-25,.cls-26,.cls-27,.cls-28,.cls-29,.cls-30{stroke-miterlimit:10;stroke-width:2px;}.cls-1,.cls-2,.cls-3,.cls-4,.cls-5,.cls-6,.cls-7,.cls-8,.cls-9,.cls-10,.cls-11,.cls-12,.cls-13,.cls-14,.cls-15,.cls-17,.cls-18,.cls-19,.cls-20,.cls-21,.cls-22,.cls-23,.cls-24,.cls-25,.cls-26,.cls-27,.cls-28,.cls-29,.cls-30{stroke:#5b4e4a;}.cls-1,.cls-5{fill:#938782;}.cls-31{fill:url(#linear-gradient-2);}.cls-2{fill:#c99b79;}.cls-3{fill:#a4b297;}.cls-4{fill:#94a588;}.cls-32{fill:#5b4e4a;}.cls-5,.cls-26{stroke-linecap:round;}.cls-6{fill:#dda37c;}.cls-7,.cls-33{fill:#fff3e6;}.cls-8{fill:#b6ddc8;}.cls-34{clip-path:url(#clippath-2);}.cls-9{fill:#db836e;}.cls-10{fill:#ad937d;}.cls-11{fill:#c9a389;}.cls-12{fill:#839379;}.cls-35{clip-path:url(#clippath-1);}.cls-13{fill:#989da0;}.cls-36{opacity:.3;}.cls-36,.cls-37,.cls-38{fill:#fceed6;}.cls-14,.cls-39{fill:none;}.cls-15{fill:#ffedcd;}.cls-16{fill:#c9aa93;stroke:#635654;}.cls-40,.cls-19{fill:#77b1a3;}.cls-17{fill:#937b6a;}.cls-18{fill:#96ad8c;}.cls-41{clip-path:url(#clippath);}.cls-42{fill:url(#linear-gradient-4);}.cls-42,.cls-43{opacity:.6;}.cls-20{fill:#8e6d5c;}.cls-21{fill:#997f74;}.cls-22{fill:#ffaa9f;}.cls-23{fill:#aab7c1;}.cls-37{opacity:.2;}.cls-44{fill:url(#linear-gradient);}.cls-45,.cls-26,.cls-30{fill:#ccb09e;}.cls-43{fill:url(#linear-gradient-3);}.cls-24{fill:#e0cdbd;}.cls-25{fill:#a07767;}.cls-27{fill:#b79b88;}.cls-28{fill:#d39e7a;}.cls-46{fill:#ffebcf;}.cls-29{fill:#cc966e;}</style><linearGradient id="linear-gradient" x1="1265.14" y1="929.97" x2="1265.14" y2="658.97" gradientUnits="userSpaceOnUse"><stop offset="0" stop-color="#fceed6"/><stop offset=".26" stop-color="#e4ccb6"/><stop offset=".57" stop-color="#cba896"/><stop offset=".83" stop-color="#bc9282"/><stop offset="1" stop-color="#b78b7b"/></linearGradient><linearGradient id="linear-gradient-2" x1="1309.14" y1="929.97" x2="1309.14" y2="734.97" gradientUnits="userSpaceOnUse"><stop offset="0" stop-color="#d1b8a3"/><stop offset=".06" stop-color="#cbb29e"/><stop offset=".46" stop-color="#a88e80"/><stop offset=".79" stop-color="#93786d"/><stop offset="1" stop-color="#8c7167"/></linearGradient><linearGradient id="linear-gradient-3" x1="1287.7" y1="930.22" x2="1287.7" y2="564.91" gradientUnits="userSpaceOnUse"><stop offset="0" stop-color="#ead9bb"/><stop offset=".33" stop-color="#dbc1a3"/><stop offset="1" stop-color="#b7896a"/></linearGradient><clipPath id="clippath"><path class="cls-39" d="M695.63,786.7c-4.74,8.78-18.07,9.1-32.39,9.44-15.4,.37-32.36,.77-37.61-9.44-4.46-8.66,1.45-21.2,8.4-28,14.67-14.35,43.43-12.34,56,2.8,5.07,6.11,9.9,17.23,5.6,25.2Z"/></clipPath><clipPath id="clippath-1"><path class="cls-39" d="M755.36,758.88c8.6,8.82,12.32,24.64,5.94,32.66-1.59,2-4.58,4.49-36.07,4.21-24.1-.21-27.15-1.71-29.26-4.21-6.53-7.76-2.77-23.79,5.94-32.66,8.74-8.91,20.76-8.91,26.73-8.91s18.04,0,26.73,8.91Z"/></clipPath><clipPath id="clippath-2"><path class="cls-39" d="M729.88,753.23c-4.63,8.14-16.92,8.3-31.08,8.48-15.36,.19-28.53,.36-33.9-8.48-5.06-8.34-.99-21.08,5.65-28.25,13.16-14.2,41.31-11.81,53.68,2.83,5.3,6.27,10.09,17.61,5.65,25.43Z"/></clipPath><linearGradient id="linear-gradient-4" x1="645.3" y1="795.72" x2="645.3" y2="567.7" gradientUnits="userSpaceOnUse"><stop offset="0" stop-color="#ead9bb"/><stop offset=".17" stop-color="#e5d0b2"/><stop offset=".44" stop-color="#d7b89b"/><stop offset=".78" stop-color="#c29175"/><stop offset="1" stop-color="#b27559"/></linearGradient></defs><g id="big_cafe"><g><path class="cls-3" d="M1526.91,680.05c-.52,.71-.54,1.7,5.28,13.15,6.72,13.22,8.38,15.13,11.06,16.41,.44,.21,7.33,3.39,12.24-.34,4.1-3.12,3.79-8.79,3.77-9.23-.08-1.38-.57-5.26-7.04-10.78-9.07-7.73-22.81-12.64-25.29-9.21Z"/><path class="cls-27" d="M1541.16,814.97c5.16-44.54,8.66-59.52,11.08-62.77,.31-.41,1.94-2.44,3.69-5.54,.97-1.71,1.19-2.37,3.69-7.38,1.74-3.48,1.63-3.17,1.85-3.69,1.53-3.74,.99-5.36,1.85-9.23,.65-2.93,1.66-5.03,3.69-9.23,1.93-4,2.58-4.4,3.69-7.38,.24-.65,1.26-3.44,1.85-7.38,.53-3.62,.24-5.15,0-12.92-.19-6.08-.28-9.15,0-11.08,.16-1.13,.77-4.88,3.69-11.08,3.4-7.21,5.3-7.92,9.23-14.77,4.62-8.05,2.71-8.32,7.38-16.61,4.44-7.89,6.4-8.07,9.23-14.77,2.71-6.42,.9-6.25,3.69-12.92,3.3-7.89,6.52-9.8,7.38-16.61,.41-3.24,.12-6.24,0-7.38-.21-2.09-.75-7.31-1.85-7.38-1.21-.08-1.64,6.22-5.54,16.61-1.42,3.8-1.84,4.22-3.69,9.23-2.61,7.06-2.3,7.65-3.69,11.08-.73,1.8-1.53,3.41-11.08,16.61-5.23,7.24-6.1,8.29-7.38,11.08-2.51,5.44-1.15,5.63-3.69,11.08-1.46,3.11-2,3.26-8.21,13.5-2.03,3.35-2.44,4.11-2.87,4.96-1.26,2.53-3.06,6.21-3.69,11.08-.1,.76-.1,1.03,0,7.38,.16,10.26,.18,10.39,0,11.08-.45,1.71-2.76,4.83-7.38,11.08-1.48,2-2.57,2.7-3.69,3.69-4.08,3.59-10.58,7.86-11.76,6.69-1.35-1.34,6.41-7.56,8-19,.08-.59,.08-3.68,.07-9.84-.03-15.89-.06-15.66,0-16.61,.52-8.7,2.28-15.21,3.69-20.31,3.96-14.31,6.46-13.25,9.23-24,1.79-6.95,1.78-15.1,1.85-31.38,.05-11.67-.48-11.77,0-18.46,.17-2.33,.28-3.01,3.69-24,2.17-13.36,2.35-14.48,3.69-16.61,1.89-3,4.73-5.88,5.54-11.08,.4-2.56,.11-4.45,0-5.54-.54-5.12,1.48-10.87,5.54-22.15,5.41-15.02,7.86-22.7,9.23-25.84,.95-2.19,1.86-4.53,3.69-9.23,3.77-9.67,4.5-12.4,3.69-12.92-.79-.52-2.9,1.2-3.69,1.85-2.42,1.98-2.73,3.67-3.69,3.69-1.51,.03-2.73-4.06-3.69-7.38-2.32-7.97-6.21-18.66-7.38-18.46-1.18,.21-.12,11.61,0,12.92,.6,6.42,1.69,12.12,1.85,12.92,1.58,8.16,2.6,9.49,1.85,12.92-.77,3.47-2.07,3.3-3.69,8.22-1.36,4.14-.66,4.94-1.85,10.24-.27,1.2-.43,1.72-3.69,11.08-2.3,6.6-2.87,8.2-3.69,11.08-1.84,6.43-1.86,8.37-1.85,9.23,.06,3.13,.82,5.05,0,5.54-1.32,.79-5.03-3.15-5.54-3.69-4.53-4.87-6.23-9.94-7.38-12.92-4.96-12.75-9.58-11.35-12.92-22.15-.67-2.17-1.07-7.02-1.85-16.61-1.56-19.37-.89-18.89-1.85-24-2.27-12.08-8.2-26.25-12.92-25.84-1.2,.1-2.43,1.15-3.64,3.69,4.41,5.1,6.37,9.82,7.33,12.92,1.59,5.14,1.68,9.84,1.85,18.46,.02,1.21,.02,3.89,0,9.23-.03,9.57-.11,9.6,0,11.08,.43,6,2.05,10.42,3.69,14.77,1,2.67,1.48,3.48,7.38,14.77,1.76,3.36,5.28,10.12,9.23,18.46,1.74,3.68,2.77,6,3.69,9.23,.54,1.91,.98,4.96,1.85,11.08,.36,2.56,.63,4.72,0,7.38-.22,.91-.47,1.59-.96,2.93-1.27,3.44-2.53,5.91-2.73,6.3-1.21,2.43-1.67,5.71-1.85,16.61-.08,4.88-.07,8.89,0,18.46,.07,9.53,.08,9.77,0,11.08-.59,9.6-3.1,16.74-3.69,18.46-.41,1.19-1.51,3.87-3.69,9.23-3.05,7.48-3.19,7.48-3.69,9.23-1.59,5.51-.61,6.87-1.85,12.92-1.15,5.63-2.16,4.98-3.69,11.08-1.45,5.77-1.66,10.53-1.85,14.77-.24,5.59,.22,5.78,0,11.08-.08,1.92-.36,8.95-1.85,14.77-2.35,9.22-7.66,15.22-9.18,17.12-5.72,7.18-14.59,27.75-28.42,86.26h48.67Z"/><path class="cls-3" d="M1515.94,682.21c2.25,.1,1.95,4.35,7.53,10.6,4.11,4.59,6.71,4.86,7.61,8.25,.94,3.51-.55,7.95-3.45,9.91-5.18,3.52-14.87-.86-18.27-7.61-4.56-9.06,2.76-21.31,6.57-21.15Z"/><path class="cls-3" d="M1604.89,662.54c.46,1.67-1.38,3.64-5.05,7.6-4.53,4.88-6.8,7.32-9.96,8.2-5.69,1.58-13.54-.86-14.59-5.2-.98-4.06,4.32-8.46,5.8-9.68,.89-.74,3.82-3.03,8.48-4.03,6.09-1.3,14.41-.24,15.33,3.11Z"/><path class="cls-3" d="M1571.38,749.82c2.58,2.41,.49,10.39-3.1,15.26-.4,.54-6.34,8.29-16.66,7.22-2.32-.24-6.66-.69-8.63-3.67-2.14-3.24-.57-8.14,1.43-10.85,.38-.51,.76-.92,1.2-1.28,3.68-2.96,8.23-3.25,11.19-3.53,10.1-.95,12.5-5.08,14.57-3.16Z"/><path class="cls-3" d="M1610.24,618.89c8.63,6.5,23.4,.55,23.65-3.24,.16-2.33-5.3-2.25-12.42-9.12-5.08-4.9-5.91-8.42-9.07-8.52-3.38-.1-6.64,3.78-7.63,7.38-1.48,5.38,1.93,10.82,5.47,13.49Z"/><path class="cls-3" d="M1610.7,597.67c-.04,5.43,14.95,13.65,26.93,9.11,11.94-4.54,17.72-20.59,14.09-24.65-2.59-2.89-10.18,.03-22.3,4.7-11.84,4.56-18.68,7.19-18.71,10.85Z"/><path class="cls-3" d="M1556.36,404.74c.2-1.76-2.33-2.26-7.96-7.24-8.21-7.26-7.86-10.65-14.12-14.12-2.21-1.22-7.05-3.91-12.67-2.54-.34,.08-7.71,1.99-9.05,7.6-.32,1.33-.35,3.11,.72,5.79,2.56,6.36,9.22,12.4,17.74,14.85,11.53,3.31,24.89-.4,25.34-4.34Z"/><path class="cls-3" d="M1591.55,549.29c-3.9,3.16-1.29,16.14,6.7,22.77,3.61,3,10.4,6.42,13.91,3.8,3.76-2.8,1.82-11.1-.3-15.5-2.51-5.21-6.74-7.98-9.23-9.23-2.15-1.08-8.24-4.15-11.08-1.85Z"/><path class="cls-3" d="M1502.21,497.53c2.68,4.24,15.88,3.18,23.4-3.98,3.4-3.24,7.6-9.57,5.41-13.36-2.34-4.06-10.81-3.11-15.43-1.52-5.47,1.88-8.71,5.76-10.25,8.08-1.33,2.01-5.09,7.69-3.13,10.78Z"/><path class="cls-3" d="M1584.47,588.06c1.1,3.27,13.23,4.42,21.05-1.38,3.39-2.51,7.3-7.32,5.97-10.1-1.43-2.98-8.36-2.5-12.25-1.45-4.35,1.18-7.16,3.68-9.23,5.54-3.23,2.89-6.17,5.52-5.54,7.38Z"/><path class="cls-3" d="M1615.85,473.45c1.35-1.58,.09-4.6-1.85-9.23-2.83-6.78-4.66-11.16-9.23-12.92-3.4-1.31-8.7-1.32-11.08,1.85-2.4,3.19-.53,7.9,0,9.23,2.05,5.16,6.65,7.5,9.5,8.95,.79,.4,10.14,5.08,12.65,2.12Z"/><path class="cls-3" d="M1615.01,442.07c.75-2.22-4.32-3.67-9.23-11.08-4.63-6.98-3.42-10.67-7.38-12.92-3.76-2.13-9.54-1.49-12.92,1.85-4.59,4.53-3.03,12.32,0,16.61,3.02,4.28,7.68,5.37,12.7,6.55,6.42,1.5,15.85,1.9,16.83-1.01Z"/><path class="cls-3" d="M1561.47,436.53c3.88-.35,9.67-.87,12.92-5.54,2.2-3.15,3.34-8.34,.93-11.64-3.19-4.37-11.15-3.42-15.7-1.28-3.33,1.57-3.08,2.94-9.23,7.38-5.4,3.9-7.41,4.15-7.38,5.54,.05,3.03,9.66,6.33,18.46,5.54Z"/><path class="cls-3" d="M1559.63,451.3c2.23,1.3,4.58-2.15,12.92-5.54,8.9-3.61,12.14-2.09,14.77-5.54,2.9-3.8,2.75-10.63-.91-14.86-4.72-5.46-13.05-4.04-17.55-1.75-5.96,3.03-7.93,9-9.23,12.92-1.43,4.32-3.14,12.93,0,14.77Z"/><path class="cls-3" d="M1604.44,502.7c-1.23-2.34-4.91-2.71-7.35-2.96-1.11-.11-13.5-1.23-18.23,5.79-1.86,2.76-2.5,6.73-.38,9.82,2.47,3.6,7.27,3.96,7.91,4,7.03,.42,12.39-5.39,13.95-7.08,1.5-1.62,5.81-6.3,4.1-9.56Z"/><path class="cls-3" d="M1528.55,540.8c-1.8,2.74,2.34,8.27,5.58,12.6,3.73,4.99,7.14,9.55,12.61,9.96,.35,.03,6.27,.38,8.89-3.62,1.67-2.55,1.11-5.51,.96-6.29-1.31-6.84-9.29-10.2-12.17-11.41-4.52-1.9-13.73-4.48-15.86-1.23Z"/><path class="cls-3" d="M1545.27,363.02c-.39-.42-1.34-1.2-10.64-.08-9.45,1.13-14.24,1.75-17.34,4.43-4.29,3.7-5.28,8.72-5.57,10.21-.45,2.26-1.45,7.22,1.42,10.15,.83,.84,2.12,1.69,4.59,2.13,5.85,1.05,13.35-1.07,19.07-6.21,7.03-6.32,11.64-17.19,8.46-20.62Z"/><path class="cls-3" d="M1545.17,403.77c-2.04-1.13-5.39,.75-7.62,2.01-1.02,.57-12.25,7.04-13.46,15.45-.48,3.31,.61,6.85,3.73,8.06,3.63,1.41,7.96-1.16,8.54-1.51,6.29-3.84,8.55-11.66,9.21-13.94,.63-2.18,2.45-8.48-.39-10.06Z"/><path class="cls-3" d="M1497.18,349.52c-.58,.32-1.71,1.16-3.07,11.88-1.37,10.89-2.02,16.43,.11,20.64,2.94,5.83,8.29,8.34,9.86,9.09,2.41,1.13,7.68,3.65,11.75,1.24,1.18-.69,2.48-1.9,3.67-4.54,2.81-6.26,2.53-15.24-1.62-23.07-5.1-9.63-15.98-17.84-20.71-15.24Z"/></g><g id="buildling"><g><rect class="cls-30" x="176" y="252.56" width="123.96" height="25.66"/><path class="cls-30" d="M188.36,190.66c-6.18-11.92-21.99-20.6-37.16-15.3-12.05,4.21-20.29,16.07-20.3,29.45H62.72c-.68-14.83-11.31-27.17-25.18-29.76-17.39-3.25-32.19,10.25-35.67,23.41-2.37,8.97,.77,16.86,1.29,18.13,3.91,9.45,11.61,13.72,13.78,14.84V503.86c0,4.69,3.8,8.49,8.49,8.49H167.51c4.69,0,8.49-3.8,8.49-8.49V231.43c2.01-1.23,11.35-7.25,14.45-19.45,.77-3.02,2.62-12.2-2.09-21.32Z"/><rect class="cls-16" x="176" y="409.42" width="123.96" height="25.66"/><path class="cls-33" d="M127.02,287.68c.19,.9,1.59,8.1-2.62,14.35-5.96,8.85-18.43,8.78-27.54,8.73-9.5-.05-20.43-.11-26.01-8.12-5.11-7.33-2.34-16.47-2.06-17.35,3.76-11.76,17.59-17.27,28.07-17.38,12.65-.13,27.59,7.52,30.16,19.76Z"/><path class="cls-33" d="M158.77,392.29c.73,34.57-30.44,69.11-67.37,66.82-35-2.17-59.72-36.45-58.15-68.32,1.46-29.69,25.92-61.17,60.36-62.31,36.14-1.2,64.49,31.62,65.17,63.81Z"/><path class="cls-32" d="M109,274.68c.08,2.5-5.97,5.58-11.7,5.48-5.41-.1-11.21-3.03-11.13-5.51,.06-1.83,3.37-3.19,4.75-3.76,2.44-1.01,4.55-1,6.68-.99,2.01,0,4,.02,6.35,.94,1.34,.52,4.99,1.95,5.05,3.84Z"/><g><path class="cls-32" d="M70.05,253.05c-.9-3.23-4.11-5.05-6.59-5.57-4.5-.95-8.88,1.89-10.98,5.33-1.91,3.14-2.97,8.5,0,11.5,2.76,2.78,7.29,1.82,8.29,1.6,4.64-.98,7.07-4.67,7.89-6.15,.82-1.48,2.17-3.92,1.39-6.71Z"/><path class="cls-32" d="M125.13,253.05c.9-3.23,4.11-5.05,6.59-5.57,4.5-.95,8.88,1.89,10.98,5.33,1.91,3.14,2.97,8.5,0,11.5-2.76,2.78-7.29,1.82-8.29,1.6-4.64-.98-7.07-4.67-7.89-6.15-.82-1.48-2.17-3.92-1.39-6.71Z"/></g><path class="cls-2" d="M111.31,422.72c-4.65,2.49-17.82,9.53-28.6,4-7.73-3.96-10.49-12.45-12.58-18.87-5.12-15.73-2.14-29.61,.28-40.21,2.52-11.05,5.97-26.3,17.91-41.71,12.61-16.27,35.84-34.59,50.26-28.34,3.18,1.38,5.39,3.71,6.68,5.08,5.75,6.07,7.92,14.33,8.02,27,.19,24.02-7.26,43.27-8.17,45.58-6.79,17.1-14.33,37.04-33.8,47.46Z"/><path class="cls-33" d="M119.98,331.19c-1.64,2.22-9.15,.2-14.01-3.79-3.56-2.92-7.17-8.09-5.77-10.17,1.49-2.2,8.53-.76,13.26,2.68,4.46,3.25,8.07,9.18,6.52,11.27Z"/><path class="cls-33" d="M111.97,353.48c-1.95,2.95-12.33,.99-18.57-4.81-3.6-3.35-7.15-9.2-5.39-11.63,1.85-2.55,9.06-.69,13.69,1.97,6.64,3.81,12.14,11.65,10.27,14.48Z"/><path class="cls-33" d="M77.29,358.88c3.19-2.56,14.55,1.42,21.16,7.36,4.87,4.38,9.04,11.49,6.26,13.92-2.98,2.6-13.39-.7-19.78-5.71-6.36-4.98-10.66-13.16-7.64-15.57Z"/><path class="cls-26" d="M38.86,328.79c3.06-.23,13.43-.63,23.06,6.42,2.29,1.67,12.12,8.87,13.23,21.66,.88,10.11-4.25,17.69-6.42,20.45-8.14,10.37-23.03,14.59-38.17,11.36"/><path class="cls-26" d="M159.57,329.31c-4.47-.62-13.94-1.24-23.26,4.01-12.55,7.07-22.19,23.31-17.65,36.7,2.42,7.14,8.07,11.1,10.83,13.03,13.09,9.18,28.11,6.17,31.48,5.41"/></g><rect class="cls-30" x="193.69" y="435.65" width="1301.9" height="512.44"/><rect class="cls-30" x="248.64" y="78.2" width="1191.99" height="357.45"/><rect class="cls-21" x="170.4" y="942.13" width="1348.47" height="19.84"/><rect class="cls-21" x="241.98" y="67.74" width="1205.31" height="11.61"/><rect class="cls-21" x="231.43" y="45.27" width="1226.4" height="22.47"/><rect class="cls-7" x="333.16" y="117.15" width="1022.95" height="162.4" rx="15.76" ry="15.76"/><g><rect class="cls-21" x="309.89" y="1" width="1069.5" height="23.14"/><rect class="cls-21" x="440.33" y="24.14" width="23.22" height="21.14"/><rect class="cls-21" x="1225.73" y="24.14" width="23.22" height="21.14"/><rect class="cls-21" x="500.74" y="24.14" width="23.22" height="21.14"/><rect class="cls-21" x="561.16" y="24.14" width="23.22" height="21.14"/><rect class="cls-21" x="621.57" y="24.14" width="23.22" height="21.14"/><rect class="cls-21" x="681.99" y="24.14" width="23.22" height="21.14"/><rect class="cls-21" x="742.4" y="24.14" width="23.22" height="21.14"/><rect class="cls-21" x="802.82" y="24.14" width="23.22" height="21.14"/><rect class="cls-21" x="863.23" y="24.14" width="23.22" height="21.14"/><rect class="cls-21" x="923.65" y="24.14" width="23.22" height="21.14"/><rect class="cls-21" x="984.06" y="24.14" width="23.22" height="21.14"/><rect class="cls-21" x="1044.48" y="24.14" width="23.22" height="21.14"/><rect class="cls-21" x="1104.89" y="24.14" width="23.22" height="21.14"/><rect class="cls-21" x="1165.31" y="24.14" width="23.22" height="21.14"/><rect class="cls-21" x="319.5" y="24.14" width="23.22" height="21.14"/><rect class="cls-21" x="379.91" y="24.14" width="23.22" height="21.14"/><rect class="cls-21" x="1346.56" y="24.14" width="23.22" height="21.14"/><rect class="cls-21" x="1286.14" y="24.14" width="23.22" height="21.14"/></g><g><rect class="cls-44" x="1220.64" y="658.97" width="89" height="271"/><path class="cls-31" d="M1277.37,734.97h77.27v195h-91v-181.27c0-7.58,6.15-13.73,13.73-13.73Z"/><rect class="cls-43" x="1221.01" y="564.91" width="133.39" height="365.31"/><path class="cls-37" d="M1354.64,685.97c-45.67,81.33-91.33,162.67-137,244h137v-244Z"/><path class="cls-36" d="M1353.64,601.97c-44.33,77-88.67,154-133,231v48c44.67-82,89.33-164,134-246-.33-11-.67-22-1-33Z"/><g><polygon class="cls-14" points="1287.58 608.47 1247.22 655.96 1327.93 655.96 1287.58 608.47"/><rect class="cls-7" x="1241.64" y="645.41" width="92.5" height="46.56" rx="4.46" ry="4.46"/><g><path class="cls-32" d="M1248.7,668.56c0-6.15,4.26-10.51,10.19-10.51s10.16,4.29,10.16,10.44-4.23,10.47-10.2,10.47-10.16-4.29-10.16-10.41Zm17.13,0c0-4.48-2.89-7.68-6.96-7.68s-6.93,3.11-6.93,7.62,2.89,7.65,6.96,7.65,6.93-3.11,6.93-7.58Z"/><path class="cls-32" d="M1272.54,677.23v-16.97c0-1.09,.68-1.8,1.71-1.8h5.19c4.97,0,7.8,2.27,7.8,6.4s-2.74,6.46-7.93,6.46h-3.58v5.91c0,.87-.47,1.46-1.4,1.46h-.47c-.87,0-1.34-.5-1.34-1.46Zm11.5-12.31c0-2.52-1.59-3.82-4.63-3.82h-3.7v7.65h3.67c3.08,0,4.66-1.34,4.66-3.82Z"/><path class="cls-32" d="M1290.22,676.8v-16.54c0-1.09,.68-1.8,1.71-1.8h11.66c1,0,1.49,.5,1.49,1.34v.19c0,.87-.5,1.34-1.49,1.34h-10.16v5.63h7.86c1.03,0,1.49,.44,1.49,1.27v.09c0,.87-.5,1.34-1.49,1.34h-7.86v6.09h10.35c1,0,1.46,.43,1.46,1.27v.16c0,.9-.47,1.4-1.46,1.4h-11.84c-1.03,0-1.71-.68-1.71-1.77Z"/><path class="cls-32" d="M1308.47,677.23v-17.09c0-1.09,.53-1.8,1.52-1.8h.53c.96,0,1.34,.4,1.93,1.21l9.95,14.11v-13.86c0-.96,.4-1.46,1.34-1.46h.37c.87,0,1.3,.5,1.3,1.46v17.09c0,1.12-.56,1.8-1.49,1.8h-.25c-.96,0-1.21-.28-1.71-.96l-10.48-14.83v14.33c0,.96-.43,1.46-1.37,1.46h-.34c-.9,0-1.31-.5-1.31-1.46Z"/></g></g><rect class="cls-21" x="1354.4" y="557.32" width="26.41" height="372.91"/><rect class="cls-21" x="1283.91" y="468.01" width="7.59" height="186.2" transform="translate(726.59 1848.82) rotate(-90)"/><rect class="cls-21" x="1194.6" y="557.32" width="26.41" height="372.91"/><rect class="cls-15" x="1204.87" y="703.27" width="7.5" height="54.33" rx="1.92" ry="1.92"/></g><rect class="cls-21" x="182.44" y="930.22" width="1324.38" height="11.91"/><g id="window"><g><rect class="cls-6" x="845.64" y="744.97" width="72" height="54"/><rect class="cls-38" x="860.64" y="756.97" width="52" height="19" rx="5.63" ry="5.63"/></g><rect class="cls-13" x="890.64" y="717.97" width="56" height="81" rx="8.87" ry="8.87"/><g><rect class="cls-9" x="777.03" y="733.06" width="76.35" height="66.92"/><rect class="cls-17" x="772.64" y="726.97" width="85" height="12" rx="6" ry="6"/><rect class="cls-38" x="788.64" y="749.97" width="52" height="19" rx="5.63" ry="5.63"/></g><g><g><path class="cls-29" d="M695.63,786.7c-4.74,8.78-18.07,9.1-32.39,9.44-15.4,.37-32.36,.77-37.61-9.44-4.46-8.66,1.45-21.2,8.4-28,14.67-14.35,43.43-12.34,56,2.8,5.07,6.11,9.9,17.23,5.6,25.2Z"/><g class="cls-41"><g><path class="cls-46" d="M665.64,764.97c-.67,.91-5.8-1.75-8-3-3.35-1.91-5.52-3.77-7-5-2.74-2.28-6.72-5.42-12-9,2.15-.97,4.3-1.95,6.46-2.92,3.29,2.37,7.91,5.95,12.99,10.82,2.89,2.78,8.35,8.01,7.56,9.1Z"/><path class="cls-46" d="M637.99,763.73c.49,.94,4.97-.53,7.19-1.26,5.47-1.8,10.09-4.16,14.3-6.69,3.12-1.88,7.29-4.61,11.87-8.35-.82-1.25-1.64-2.5-2.47-3.75-6.04,2.24-10.85,4.71-14.3,6.69-5.48,3.15-8.6,5.68-11.87,8.35-4.91,4.03-4.84,4.78-4.72,5.01Z"/></g></g></g><path class="cls-14" d="M695.63,786.7c-4.74,8.78-18.07,9.1-32.39,9.44-15.4,.37-32.36,.77-37.61-9.44-4.46-8.66,1.45-21.2,8.4-28,14.67-14.35,43.43-12.34,56,2.8,5.07,6.11,9.9,17.23,5.6,25.2Z"/></g><g><g><path class="cls-29" d="M755.36,758.88c8.6,8.82,12.32,24.64,5.94,32.66-1.59,2-4.58,4.49-36.07,4.21-24.1-.21-27.15-1.71-29.26-4.21-6.53-7.76-2.77-23.79,5.94-32.66,8.74-8.91,20.76-8.91,26.73-8.91s18.04,0,26.73,8.91Z"/><g class="cls-35"><path class="cls-46" d="M739.13,766.02c-.54,1.2-6.3-.86-9.93-2.56-3.85-1.81-10.53-5.66-17.52-14.03,1.36-.71,2.73-1.41,4.09-2.12,3.62,2.06,8.56,5.13,14.02,9.43,3.07,2.42,9.98,7.86,9.34,9.28Z"/><path class="cls-46" d="M711.98,766.54c.5,.94,4.96-.58,7.17-1.33,5.45-1.85,10.05-4.26,14.23-6.83,3.11-1.91,7.24-4.69,11.78-8.48-.83-1.24-1.67-2.49-2.5-3.73-6.01,2.3-10.8,4.82-14.23,6.83-5.45,3.2-8.55,5.77-11.78,8.48-4.87,4.08-4.79,4.83-4.67,5.06Z"/></g></g><path class="cls-14" d="M755.36,758.88c8.6,8.82,12.32,24.64,5.94,32.66-1.59,2-4.58,4.49-36.07,4.21-24.1-.21-27.15-1.71-29.26-4.21-6.53-7.76-2.77-23.79,5.94-32.66,8.74-8.91,20.76-8.91,26.73-8.91s18.04,0,26.73,8.91Z"/></g><g><g><path class="cls-29" d="M729.88,753.23c-4.63,8.14-16.92,8.3-31.08,8.48-15.36,.19-28.53,.36-33.9-8.48-5.06-8.34-.99-21.08,5.65-28.25,13.16-14.2,41.31-11.81,53.68,2.83,5.3,6.27,10.09,17.61,5.65,25.43Z"/><g class="cls-34"><g><path class="cls-46" d="M712.14,733.56c-.9,1.37-6.76-.94-10.36-2.87-3.81-2.04-10.24-6.38-15.87-15.87,1.69-.81,3.38-1.62,5.07-2.43,3.49,2.32,8.19,5.79,13.15,10.66,2.79,2.73,9.08,8.89,8.01,10.51Z"/><path class="cls-46" d="M683.66,730.06c.5,1.23,5.18,.41,7.5,0,5.72-1,10.57-2.85,14.99-5,3.28-1.59,7.66-3.98,12.49-7.5-.83-1.67-1.67-3.33-2.5-5-6.32,1.41-11.37,3.35-14.99,5-5.76,2.61-9.05,4.98-12.49,7.5-5.18,3.78-5.12,4.69-5,5Z"/></g></g></g><path class="cls-14" d="M729.88,753.23c-4.63,8.14-16.92,8.3-31.08,8.48-15.36,.19-28.53,.36-33.9-8.48-5.06-8.34-.99-21.08,5.65-28.25,13.16-14.2,41.31-11.81,53.68,2.83,5.3,6.27,10.09,17.61,5.65,25.43Z"/></g><g><path class="cls-28" d="M826.31,649.32c-3.85-2.86-4.34-9.98-2.32-12.71,15.34-20.74,26.74-35.75,28.64-37.7,1.05-1.08,2.28-1.89,2.28-1.89,.13-.08,.61-.4,1.33-.76,1.29-.66,2.39-.98,2.72-1.06,1.45-.38,5.02-.75,7.52,1.26,1.6,1.29,2.03,2.98,2.44,4.56,.81,3.13,.25,5.79,0,6.84-2.06,8.53-11.25,21.19-17.09,29.62-5.1,7.36-6.48,9.82-10.52,11.74-4.21,1.99-10.95,3.12-15,.11Z"/><path class="cls-28" d="M838.49,661.55c-3.85-2.55-2.9-8.81-2.32-12.71,1.32-8.79,5.22-11.67,26.65-36.04,1.16-1.32,6.8-7.73,14.23-8.85,3.73-.56,5.33,.6,5.69,.89,.63,.5,1.86,1.75,1.9,5.31,.07,5.92-3.21,10.59-3.89,11.53-4.03,5.6-14.22,19.43-28.64,37.7-3.12,4.11-9.21,5.07-13.61,2.16Z"/><path class="cls-28" d="M842.08,663.61c-5.54,2.2-11.85-.03-14.1-4.97l-24.88-54.61c-3.19-5.71-1.35-12.11,2.7-14.54,4.82-2.9,13.95-.9,17.36,6.59l24.88,54.61c2.25,4.94-.41,10.73-5.95,12.93Z"/><path class="cls-28" d="M819.64,656.43c-4.92,2.07-10.7,.03-12.92-4.56l-30.12-62.31c-4.12-6.66-1.96-13.89,1.99-15.89,4.19-2.12,12.58,.55,15.81,8.39l30.12,62.31c2.22,4.59,.03,9.99-4.89,12.06Z"/><path class="cls-28" d="M806.37,663.53c-5.18,2.4-11.46,.43-14.04-4.4l-29.82-55.95c-5.04-7.68-2.77-15.98,1.42-18.11,4.32-2.2,13.4,.73,17.32,9.41l29.82,55.95c2.57,4.83,.47,10.7-4.71,13.1Z"/><path class="cls-23" d="M865.56,680.97h-84.15c-.83-.13-2.02-.41-3.3-1.07-3.46-1.78-5.12-5.12-7.3-11.03-2.52-6.83-3.92-12.22-4.43-14.2,0,0-4.11-16.02-1.32-19.5,1.09-1.36,2.5-1.9,2.5-1.9,.62-.24,1.29-.37,2.01-.37h107.84c1.38,.24,3.2,.8,4.5,2.26,2.14,2.41,1.63,5.86-.12,13.97-2.6,11.99-4.11,16.6-5.69,20.66-1.94,4.97-3.78,8.63-7.59,10.33-1.16,.52-2.21,.73-2.95,.82Z"/><path class="cls-7" d="M839.64,641.98c-14.26,13.14-17.02,22.19-26,22.94-4.5,.38-8.37-1.51-12-3.28-6.4-3.12-9.59-7.36-12-10.65-4.97-6.79-6.52-13.47-7-18.02h68c-2.52,1.83-6.53,4.89-11,9.01Z"/></g><g><g><rect class="cls-45" x="578.64" y="703.97" width="17" height="92"/><path class="cls-14" d="M578.64,703.97v92"/><path class="cls-14" d="M595.64,703.97v92"/></g><g><rect class="cls-45" x="570.64" y="679.97" width="373" height="24"/><polyline class="cls-14" points="943.64 679.97 570.64 679.97 570.64 703.97 943.64 703.97"/></g></g><g><path class="cls-11" d="M529.44,722.24v-2.23c0-.14-.03-.28-.07-.41-.3-9.45-1.86-29.67-14.15-45.4-2.68-3.43-6.54-8.38-13.24-11.88-15.39-8.04-30.55-.52-32.29,.38-12.16,6.29-17.62,17.81-19.73,22.29-5.81,12.3-6.57,25.89-6.77,34.65-.03,.12-.05,.24-.05,.37v2.24c-.03,1.67-.02,3.05,0,4.03v61.43c0,.83,.67,1.5,1.5,1.5h6.96c.83,0,1.5-.67,1.5-1.5v-61.41h0s0,0,0,0v-4.03s0,0,0-.01c.17-11.54,.38-25.29,6.64-37.2,1.81-3.45,5.56-10.53,13.28-14.88,8.93-5.04,20.33-4.81,28.97,1.09,4.93,3.36,7.55,7.61,9.27,10.39,7.85,12.71,8.06,28.42,8.23,40.61,0,0,0,0,0,.01v3.7s0,0,0,.01h0v61.75c0,.83,.67,1.5,1.5,1.5h6.96c.83,0,1.5-.67,1.5-1.5v-61.43c.02-.94,.03-2.34,0-4.03Z"/><path class="cls-11" d="M552.35,794.5c-2,2.87-5.22,4.47-8.56,4.47h-122.25c-2.86,0-5.3-3.04-5.78-7.21-.91-3.79-1.76-7.93-2.49-12.41-1.73-10.67-2.29-20.38-2.31-28.51,0-.31,0-.6-.03-.91-.08-1.05-.18-4.09,1.33-6.73,1.07-1.87,2.67-3.08,4.48-3.08h135.79c3.63,0,6.39,4.83,5.78,10.13,0,8.25-.54,18.17-2.31,29.1-.73,4.48-1.58,8.62-2.49,12.41-.04,.37-.17,1.3-1.16,2.73Z"/><rect class="cls-11" x="406.64" y="740.13" width="156" height="11.75"/></g><g><path class="cls-18" d="M398.31,737.47c-.2-3.79-.06-6.21,0-7.09,.13-1.91,.81-12,3.25-12.4,1.38-.23,2.71,2.75,4.88,7.09,2.22,4.43,5.43,10.52,9.76,17.71-1.62,1.55-4.32,3.76-8.13,5.31-3.25,1.32-6.13,1.69-8.13,1.77-.72-3.39-1.37-7.57-1.63-12.4Z"/><path class="cls-18" d="M395.06,748.1c1.08-2.16,.62-4.33,0-7.09-.6-2.64-1.84-8.14-6.51-12.4-2.28-2.08-6.55-4.93-8.13-3.54-.89,.78-.2,2.27,0,7.09,.25,6.06-.74,6.56,0,9.93,.21,.97,1.34,5.15,4.88,7.78,1.09,.81,2.7,2,4.88,1.77,2.1-.22,3.96-1.69,4.88-3.54Z"/><path class="cls-18" d="M414.58,739.24c2.84-8.66,10.25-15.69,13.01-14.17,.89,.49,1.14,2.69,1.63,7.09,.62,5.58,.93,8.38,0,10.63-1.47,3.56-4.53,5.18-8.13,7.09-3.07,1.63-5.12,2.71-6.51,1.77-2.41-1.63-1.34-8.33,0-12.4Z"/><path class="cls-18" d="M414.58,751.64c1.42-3.38,2.51-6.03,4.88-8.86,3.45-4.13,7.16-5.89,9.76-7.09,.64-.29,7.26-3.3,8.13-1.77,.45,.78-.8,2.4-1.63,3.54-3.5,4.84-3.56,6.82-5.36,10.79-.26,.58-.52,1.12-.77,1.61,0,0-.86,1.7-2,3.54-1.07,1.72-3.32,4.93-6.51,8.86h-9.76c.52-2.62,1.47-6.37,3.25-10.63Z"/><path class="cls-18" d="M403.19,762.27c-1.19-2.87-2.83-8.14-1.63-14.17,.67-3.36,2.62-6.38,6.51-12.4,4.6-7.12,5.91-7.21,6.51-7.09,1.79,.37,2.54,3.85,3.25,7.09,1.53,7.02,.32,12.79,0,14.17-.89,3.88-2.41,7.09-3.25,8.86-.7,1.48-1.36,2.68-1.86,3.54h-9.52Z"/><path class="cls-18" d="M403.19,762.27c.62-1.64,1.36-4.07,1.63-7.09,.56-6.32-1.3-11.1-3.25-15.94-.65-1.61-5.39-13.17-8.13-12.4-.61,.17-.91,.89-1.63,3.54-1.86,6.87-2.55,12.12-3.25,19.49-.21,2.18-.32,3.51,0,5.31,.58,3.3,2.15,5.7,3.25,7.09h11.38Z"/><path class="cls-18" d="M393.43,755.18c-.81-3.85-2.77-6.26-4.88-8.86-1.62-2-4.06-4.94-8.13-7.09-3.52-1.85-8.83-3.4-9.76-1.77-.61,1.07,1.27,2.45,3.25,7.09,2.06,4.81,1.38,6.48,3.25,10.63,.84,1.86,2.28,4.42,4.88,7.09h11.38c.31-1.57,.63-4.13,0-7.09Z"/><path class="cls-25" d="M419.57,793.39h-34.87c-1.73,0-3.23-1.13-3.65-2.75l-8.31-32.09c-.59-2.29,1.2-4.51,3.65-4.51h51.48c2.45,0,4.24,2.22,3.65,4.51l-8.31,32.09c-.42,1.62-1.92,2.75-3.65,2.75Z"/><path class="cls-25" d="M424.37,795.17h-43.79c-.92,0-1.76-.56-2.15-1.44l-2.51-5.7c-.72-1.63,.42-3.5,2.15-3.5h48.81c1.72,0,2.87,1.86,2.15,3.5l-2.51,5.7c-.39,.87-1.22,1.44-2.15,1.44Z"/></g><g><path class="cls-1" d="M683.98,669.25c-3.78-3.69-5.02-7.58-5.02-7.58-2.2-6.79,.05-15.58,2.08-18.26,.25-.33,1.22-1.52,1.42-3.26,.11-.97-.05-1.71-.17-2.28-.22-1.12-.49-2.69-.72-4.59-.22-1.88-.38-3.21-.34-4.55,.05-2.13,.15-5.78,2.17-7.34,3.17-2.45,10.89,.39,14.75,3.59,.63,.52,1.9,1.67,3.94,2.24,1.71,.48,2.66,.19,4.89,.06,6.14-.34,8.06,1.33,9.82-.25,.56-.5,.27-.58,1.83-3.6,.78-1.5,1.74-3.2,2.24-3.94,1.92-2.86,6.62-5.96,9.85-4.77,2.7,1,3.65,4.73,5.47,11.87,1.19,4.66,.68,4.91,1.55,6.48,2.54,4.54,7.79,4.14,15.57,7.05,3.04,1.14,12.17,4.67,18.06,12.93,1.56,2.19,6.18,8.67,3.97,14.45-.86,2.25-2.46,3.82-4.75,5.27-11.26,7.15-23.51,7.87-23.51,7.87-16.8,.98-48.55,2.84-63.12-11.37Z"/><path class="cls-1" d="M709.25,673.45c-1.16-5.45-9.28-7.6-13.6-8.01-3.18-.3-9.06-.84-11.95,3.26-2.05,2.91-1.97,7.26,0,10.11,2.51,3.64,7.27,3.65,12.69,3.66,4.2,0,9.16,.04,11.62-3.48,.22-.31,1.85-2.72,1.25-5.54Z"/><path class="cls-5" d="M724.02,664.23c-6.06-.49-9.82,1.11-12.03,2.54-.09,.06-.27,.18-.51,.35-3.27,2.31-7.4,6.96-6.38,10.48,.71,2.44,3.65,3.53,5.65,4.28,7.41,2.76,14.25-1.31,14.85-1.68,2.7-1.66,4.39-3.74,5.36-5.17"/><path class="cls-5" d="M775.81,662.47c.08,1.01,.14,2.45,0,4.15-.16,1.96-.84,7.69-4.1,12.07-2.72,3.65-6.53,5.38-11.17,6.91-10.71,3.53-23.11,4.15-40.56,3.27-17.3-.87-20.63-2.26-21.16-4.29-.63-2.39,2.68-5.41,4.75-6.73,1.97-1.26,4.77-2.24,13.32-1.44,8.85,.83,9.16,2.19,15.6,2.53,5.65,.3,9.69-.52,15.22-1.65,9.92-2.02,12.48-4.41,13.72-5.93,1.2-1.46,1.87-2.93,2.24-3.94"/><path class="cls-5" d="M689.72,652.6c1.51,.2,3.55,.32,5.91,0,1.89-.26,3.49-.72,4.73-1.18"/><path class="cls-5" d="M711.01,651.42c1.24,.46,2.84,.93,4.73,1.18,2.37,.32,4.4,.2,5.91,0"/></g><rect class="cls-42" x="347.28" y="567.7" width="596.06" height="228.01"/><polygon class="cls-36" points="943.33 567.7 739.48 796.28 943.33 795.72 943.33 567.7"/><path class="cls-36" d="M454.06,558.97c-38.73,41.58-77.47,83.16-116.2,124.74-.41,11.09-.82,22.18-1.22,33.26,49.33-52.67,98.67-105.33,148-158h-30.58Z"/><path class="cls-36" d="M346.64,640.97c22.93-24.35,45.86-48.69,68.79-73.04-22.75-.08-45.5-.15-68.25-.23-.18,24.42-.36,48.84-.54,73.27Z"/><g><rect class="cls-21" x="335.62" y="557.32" width="11.65" height="238.4"/><rect class="cls-21" x="943.33" y="557.32" width="11.65" height="238.4"/><rect class="cls-21" x="640.01" y="252.93" width="10.59" height="619.37" transform="translate(1207.92 -82.69) rotate(90)"/></g><g><rect class="cls-21" x="321.89" y="795.72" width="646.83" height="18.65"/><rect class="cls-21" x="336.61" y="814.37" width="615" height="6.95"/></g></g><g><g><g><path class="cls-7" d="M417.25,546.23c-8.72,8.73-30.62,28.06-61.05,28.06s-52.34-19.33-61.05-28.06v-150.4h122.11v150.4Z"/><path class="cls-8" d="M539.36,546.23c-8.72,8.73-30.62,28.06-61.05,28.06s-52.34-19.33-61.05-28.06v-150.4h122.11v150.4Z"/><path class="cls-7" d="M661.47,546.23c-8.72,8.73-30.62,28.06-61.05,28.06s-52.34-19.33-61.05-28.06v-150.4h122.11v150.4Z"/><path class="cls-8" d="M783.58,546.23c-8.72,8.73-30.62,28.06-61.05,28.06s-52.34-19.33-61.05-28.06v-150.4h122.11v150.4Z"/><path class="cls-7" d="M905.69,546.23c-8.72,8.73-30.62,28.06-61.05,28.06s-52.34-19.33-61.05-28.06v-150.4h122.11v150.4Z"/><path class="cls-8" d="M1027.8,546.23c-8.72,8.73-30.62,28.06-61.05,28.06s-52.34-19.33-61.05-28.06v-150.4h122.11v150.4Z"/><path class="cls-7" d="M1149.91,546.23c-8.72,8.73-30.62,28.06-61.05,28.06s-52.34-19.33-61.05-28.06v-150.4h122.11v150.4Z"/><path class="cls-8" d="M295.14,546.23c-8.72,8.73-30.62,28.06-61.05,28.06s-52.34-19.33-61.05-28.06v-150.4h122.11v150.4Z"/><path class="cls-8" d="M1272.02,546.23c-8.72,8.73-30.62,28.06-61.05,28.06s-52.34-19.33-61.05-28.06v-150.4h122.11v150.4Z"/><path class="cls-7" d="M1394.13,546.23c-8.72,8.73-30.62,28.06-61.05,28.06s-52.34-19.33-61.05-28.06v-150.4h122.11v150.4Z"/></g><path class="cls-8" d="M1516.24,546.23c-8.72,8.73-30.62,28.06-61.05,28.06s-52.34-19.33-61.05-28.06v-150.4h122.11v150.4Z"/></g><polyline class="cls-19" points="1516.24 504.52 1516.24 450.89 1394.13 450.89 1394.13 504.52"/><polyline class="cls-24" points="1394.13 504.52 1394.13 450.89 1272.02 450.89 1272.02 504.52"/><polyline class="cls-19" points="1272.02 504.52 1272.02 450.89 1149.91 450.89 1149.91 504.52"/><polyline class="cls-24" points="1149.91 504.52 1149.91 450.89 1027.8 450.89 1027.8 504.52"/><polyline class="cls-19" points="1027.8 504.52 1027.8 450.89 905.69 450.89 905.69 504.52"/><polyline class="cls-24" points="905.69 504.52 905.69 450.89 783.58 450.89 783.58 504.52"/><polyline class="cls-19" points="783.58 504.52 783.58 450.89 661.47 450.89 661.47 504.52"/><polyline class="cls-24" points="661.47 504.52 661.47 450.89 539.36 450.89 539.36 504.52"/><polyline class="cls-19" points="539.36 504.52 539.36 450.89 417.25 450.89 417.25 504.52"/><polyline class="cls-24" points="417.25 504.52 417.25 450.89 295.14 450.89 295.14 504.52"/><polyline class="cls-19" points="295.14 504.52 295.14 450.89 173.03 450.89 173.03 504.52"/></g><g><path class="cls-22" d="M1530.12,395.83c-29.62-22.79-59.25-45.58-88.87-68.37H248.02c-29.65,22.88-59.3,45.76-88.94,68.65,.02,25.02,.05,50.04,.07,75.05,0,4.46,3.65,8.08,8.16,8.08H1522.01c4.51,0,8.16-3.62,8.16-8.08l-.04-75.32Z"/><line class="cls-14" x1="159.08" y1="396.1" x2="1530.12" y2="396.1"/></g></g><g id="plonts"><g><path class="cls-20" d="M160.38,948.96h19.18c.55,0,.99,.44,.99,.99v7.44c0,2.68-2.18,4.86-4.86,4.86h-11.45c-2.68,0-4.86-2.18-4.86-4.86v-7.44c0-.55,.44-.99,.99-.99Z"/><path class="cls-20" d="M232.76,948.96h19.14c.56,0,1.01,.45,1.01,1.01v7.4c0,2.69-2.19,4.88-4.88,4.88h-11.41c-2.69,0-4.88-2.19-4.88-4.88v-7.4c0-.56,.45-1.01,1.01-1.01Z"/><path class="cls-20" d="M257.27,952.97h-101.29c-3.31,0-6.1-1.92-6.53-4.49l-14.3-84.53c-.52-3.1,2.55-5.86,6.53-5.86h129.89c3.99,0,7.06,2.76,6.53,5.86l-14.3,84.53c-.44,2.57-3.23,4.49-6.53,4.49Z"/><rect class="cls-20" x="124.31" y="845.54" width="164.63" height="21.41"/><path class="cls-4" d="M93.64,781.97c1.18,1.66,5.57,.39,7,0,21.25-5.75,46.67,6.09,65-9,1.73-1.42,10.74-8.84,9.49-17.26-.65-4.41-3.86-7.31-5.49-8.74-11.6-10.2-30.94-4.85-34-4-10.71,2.96-17.6,8.69-24,14-6.11,5.08-8.81,8.82-14,16-3.6,4.98-4.93,7.7-4,9Z"/><path class="cls-4" d="M211.64,751.97c-1.91,.14-3.11-1.57-5-3-3.22-2.43-6.61-2.65-12-3-3.91-.25-11.56-.75-19,4-2.09,1.33-7.2,4.59-9.62,11.16-2.36,6.41-.74,12.09,0,14.52,2.37,7.82,7.87,12.33,11.62,15.32,3.83,3.06,5.23,3.16,17,9,.55,.27,6.7,3.51,19,10,10.69,5.64,16.1,8.53,19,12,4.31,5.17,4.46,8.82,7,9,5.05,.36,9.86-13.73,12-20,2.66-7.78,5.17-15.15,4.95-25.48-.15-6.63-.39-17.68-7.95-27.52-1.77-2.31-5.88-7.52-13.22-10.38-1.41-.55-13.27-5.17-18.95,0-1.95,1.77-2.64,4.21-4.83,4.38Z"/><path class="cls-4" d="M227.79,817.97c-5.36-.59-9.32,2.31-12.55,4.68-6.76,4.95-9.33,11.62-10.58,15.01-1.68,4.55-2.06,8.4-2.02,11.31,.03,2.28,.13,8.98,3,10,1.77,.63,3.66-1.22,6-3,8.66-6.59,12.59-4.06,19-9,4.95-3.82,11.66-12.3,9-20-1.67-4.85-6.74-8.44-11.85-9Z"/><path class="cls-4" d="M254.64,824.97c-2.79,1.68-5.79-.84-9-1-5.81-.29-11.96,7.12-14,14-.24,.79-2.78,9.68,2.55,17.41,3.44,4.99,8.25,6.95,12.45,8.59,7.3,2.86,9.89,1.5,22,3,15.27,1.89,19.56,5.1,23,2,3.3-2.98,2.66-8.91,2-15-.16-1.5-.93-7.77-4.82-15.08-1.71-3.22-6.29-10.88-14.77-16-3.25-1.96-5.38-2.52-7.14-2.71-1.48-.16-6.85-.56-10.34,2.71-1.14,1.07-.97,1.49-1.95,2.08Z"/><path class="cls-4" d="M164.64,788.97c2.1,1.45,5.08-.19,8-1,5.4-1.49,10.05,.04,16,2,4.05,1.33,10.89,3.59,16,10,6.44,8.08,6.03,17.59,5.93,20.03-.59,13.83-10.1,23.33-16.93,29.97-.42,.41-1.52,1.42-3,2.64-6.53,5.39-15.42,10.48-40,16.36-10.09,2.41-20.86,4.49-34,5-11.94,.46-17.28-.7-19-4-1.33-2.56,.64-4.38,2-10,2.69-11.09-2.19-15.24-1-32,.18-2.51,.8-10.71,3-11,1.15-.15,1.62,2,4,4,3.18,2.67,8.92,4.37,14,2,5.62-2.62,6.92-8.6,7-9,.8-3.99-.35-8.19-3-11-2.97-3.15-7.04-3.72-9-4-4.24-.6-6.18,.64-6.8-.3-1.25-1.88,5.2-9.01,12.29-14.11,9.08-6.54,18.2-7.33,21.51-7.6,6.27-.5,9.91,.63,11,1,2.84,.96,7.85,2.64,10,7,.95,1.92,.73,3.12,2,4Z"/><path class="cls-4" d="M295.06,795.36c-1,4.51-3.33,15.1-13.99,21.43-14.1,8.38-34.81,4.57-41.58-5.25-1.08-1.56-3.76-6.14-2.09-11.66,2.42-7.98,12.19-12.19,13.3-12.65,12.02-5,18.45,2.16,31.99-3.22,5.17-2.06,7.51-4.39,10.06-3.53,5.1,1.73,2.53,13.89,2.31,14.89Z"/></g><g><polygon class="cls-10" points="382.68 961.41 310.97 961.41 305.06 901.07 388.6 901.07 382.68 961.41"/><g><path class="cls-12" d="M400.07,833.24c.39,.88-1.78,2.26-7.33,7.33,0,0-6.06,5.54-12.22,12.22-3.19,3.46-10.05,12.05-14.67,29.33-4.07-2.44-8.15-4.89-12.22-7.33,.95-6.27,4.5-23.71,19.23-34,11.22-7.84,26.28-9.66,27.21-7.55Z"/><path class="cls-12" d="M408.64,851.97c-.36-2.22-9.45-3.06-17-2-3.9,.55-13.16,1.85-20,9-5.33,5.57-5.92,11.26-7,11-1.72-.42-1.38-15.2,4-30,2.53-6.95,5.97-16.61,14.33-26.28,4.11-4.76,8.25-8.18,7.33-9.78-1.15-2.01-9.14-.06-14.67,2.44-18.27,8.28-25.5,30.09-26.89,34.22-3.55,10.54-4.34,20.84-5.79,20.71-.69-.06-.76-2.39-1.76-6.13-1.29-4.83-3.03-7.99-5.71-12.85-8.3-15.03-20.96-26.17-20.96-26.17-7.95-6.99-14.28-10.22-18.4-11.99-4.28-1.84-9.8-4.2-10.94-2.68-1.72,2.29,9.35,10.11,22,29.33,12.5,19,17.86,36.28,17.11,36.66-.35,.18-1.5-2.36-4.89-4.89-3.29-2.45-6.53-3.29-7.78-3.6-9.38-2.33-17.54,2.6-19.11,3.6-6.36,4.03-10.92,10.78-9.78,12.22,.75,.94,3.37-1.09,9.78-2.44,5.14-1.09,11.31-2.39,16.11,.62,1.6,1.01,3.03,2.91,5.89,6.71,2.19,2.92,3.81,5.49,4.89,7.33h24.44c6.35,0,16.97,0,35.78-.04,.04-3.07,.52-7.86,3.02-12.92,3.15-6.38,8-10.09,11.98-13.08,8.39-6.3,14.3-7.18,14-9Z"/></g><rect class="cls-10" x="298.29" y="881.8" width="97.45" height="19.27" rx="4.4" ry="4.4"/></g></g><g><path class="cls-40" d="M502.25,214.75c2.3,4.94,7.24,8.56,13.6,8.56,9.21,0,13.16-4.94,13.16-17v-44.54c0-2.52,1.21-3.73,3.62-3.73h1.1c2.3,0,3.51,1.21,3.51,3.73v44.54c0,16.45-6.69,24.24-20.95,24.24-11.41,0-17.99-6.91-17.99-11.19,0-3.18,3.73-4.94,3.95-4.61Z"/><path class="cls-40" d="M569.81,224.62v-61.43c0-2.85,1.75-4.83,4.5-4.83h40.81c2.52,0,3.84,1.21,3.84,3.4v.55c0,2.3-1.32,3.4-3.84,3.4h-37.08v23.69h28.41c2.63,0,3.95,1.21,3.95,3.29v.44c0,2.3-1.32,3.4-3.95,3.4h-28.41v25.45h37.95c2.52,0,3.84,1.1,3.84,3.29v.55c0,2.3-1.32,3.51-3.84,3.51h-41.68c-2.74,0-4.5-1.86-4.5-4.72Z"/><path class="cls-40" d="M644.95,216.39c0-2.96,3.62-4.94,3.95-4.61,3.29,6.03,10.2,11.85,21.28,11.85,10.42,0,16.89-4.83,16.89-12.94,0-9.1-8.78-11.3-18.76-13.71-10.86-2.74-21.61-6.36-21.61-20.07,0-11.63,10.09-19.75,23.91-19.75,9.21,0,15.91,2.96,19.64,6.36,2.19,2.08,3.4,4.39,3.4,6.25,0,3.18-3.84,5.05-4.06,4.72-3.07-5.48-9.54-10.42-18.98-10.42s-15.91,4.94-15.91,12.61c0,8.67,7.46,10.42,17.66,12.94,11.52,2.74,22.82,7.02,22.82,20.62,0,12.4-9.76,20.29-24.9,20.29-10.42,0-17.88-3.4-21.94-7.46-2.3-2.3-3.4-4.83-3.4-6.69Z"/><path class="cls-40" d="M720.96,216.39c0-2.96,3.62-4.94,3.95-4.61,3.29,6.03,10.2,11.85,21.28,11.85,10.42,0,16.89-4.83,16.89-12.94,0-9.1-8.78-11.3-18.76-13.71-10.86-2.74-21.61-6.36-21.61-20.07,0-11.63,10.09-19.75,23.91-19.75,9.21,0,15.91,2.96,19.64,6.36,2.19,2.08,3.4,4.39,3.4,6.25,0,3.18-3.84,5.05-4.06,4.72-3.07-5.48-9.54-10.42-18.98-10.42s-15.91,4.94-15.91,12.61c0,8.67,7.46,10.42,17.66,12.94,11.52,2.74,22.82,7.02,22.82,20.62,0,12.4-9.76,20.29-24.9,20.29-10.42,0-17.88-3.4-21.94-7.46-2.3-2.3-3.4-4.83-3.4-6.69Z"/><path class="cls-40" d="M796.32,179.97l5.92-18.65c.88-2.85,1.43-4.17,4.28-4.17h.77c1.97,0,3.4,1.43,3.4,4.06v.44c0,1.43-.44,3.18-1.87,5.27l-8.45,15.03c-.99,1.43-4.83,.55-4.06-1.97Z"/><path class="cls-40" d="M908.09,157.16c10.09,0,17.22,3.51,21.39,7.35,3.07,2.63,4.72,5.81,4.72,7.79,0,4.17-4.83,5.05-5.16,4.72-3.62-7.57-11.74-12.61-21.06-12.61-15.47,0-26.11,11.96-26.11,29.51s10.75,29.4,26.33,29.4c11.3,0,18.87-6.36,21.5-14.15,.22-.33,5.48,.44,5.48,4.61,0,2.19-1.75,5.92-5.38,9.21-4.28,3.95-11.85,7.57-21.94,7.57-20.73,0-34.55-15.03-34.55-36.53s14.04-36.86,34.77-36.86Z"/><path class="cls-40" d="M957.78,227.25l25.45-66.69c.66-1.76,2.08-2.74,5.92-2.74s5.27,.99,5.92,2.74l25.56,66.69c.22,.66-1.76,2.3-4.28,2.41-2.08,.22-4.06-.77-5.16-3.84l-7.46-19.31h-29.4l-7.57,19.42c-.99,3.18-3.07,3.95-4.94,3.73-2.41-.11-4.28-1.86-4.06-2.41Zm43.77-27.53l-12.51-33.35-12.62,33.35h25.12Z"/><path class="cls-40" d="M1047.61,163.19c0-2.85,1.75-4.83,4.5-4.83h38.5c2.52,0,3.84,1.21,3.84,3.29v.66c0,2.3-1.32,3.4-3.84,3.4h-34.77v26.22h25.67c2.63,0,3.84,1.1,3.84,3.29v.55c0,2.3-1.21,3.29-3.84,3.29h-25.56v26.88c0,2.41-1.32,3.73-3.62,3.73h-1.21c-2.3,0-3.51-1.43-3.51-4.17v-62.31Z"/><path class="cls-40" d="M1122.42,224.62v-61.43c0-2.85,1.75-4.83,4.5-4.83h40.81c2.52,0,3.84,1.21,3.84,3.4v.55c0,2.3-1.32,3.4-3.84,3.4h-37.08v23.69h28.41c2.63,0,3.95,1.21,3.95,3.29v.44c0,2.3-1.32,3.4-3.95,3.4h-28.41v25.45h37.95c2.52,0,3.84,1.1,3.84,3.29v.55c0,2.3-1.32,3.51-3.84,3.51h-41.68c-2.74,0-4.5-1.86-4.5-4.72Z"/></g></g></svg>