<?xml version="1.0" encoding="UTF-8"?><svg id="Layer_2" xmlns="http://www.w3.org/2000/svg" xmlns:xlink="http://www.w3.org/1999/xlink" viewBox="0 0 1652.79 961.97"><defs><style>.cls-1{fill:#b5957f;}.cls-1,.cls-2,.cls-3,.cls-4,.cls-5,.cls-6{stroke-miterlimit:10;}.cls-1,.cls-3{stroke:#5b4e4a;}.cls-1,.cls-3,.cls-4{stroke-width:2px;}.cls-2,.cls-7,.cls-5,.cls-6{fill:none;}.cls-2,.cls-5,.cls-6{stroke:#fff3e6;}.cls-8{clip-path:url(#clippath-1);}.cls-3{fill:#ad8b73;}.cls-9{clip-path:url(#clippath);}.cls-10,.cls-4{fill:#353833;}.cls-11{fill:#fff3e6;}.cls-4{stroke:#635654;}.cls-5{stroke-linecap:round;}.cls-5,.cls-6{stroke-width:1.5px;}</style><clipPath id="clippath"><rect class="cls-7" width="1652.79" height="961.97"/></clipPath><clipPath id="clippath-1"><path class="cls-7" d="M1558.64,933.97c-34.67,.33-69.33,.67-104,1l18-159h106c-6.67,52.67-13.33,105.33-20,158Z"/></clipPath></defs><g id="Layer_2-2"><g class="cls-9"><g id="chalkboard"><path class="cls-3" d="M1464.08,962.08h13.57c.73,0,1.32-.58,1.32-1.29v-15.88c0-.71-.59-1.29-1.32-1.29h-13.57c-.73,0-1.32,.58-1.32,1.29v15.88c0,.71,.59,1.29,1.32,1.29Z"/><path class="cls-10" d="M1585.81,937.35c-20.97-.34-41.94-.67-62.9-1.01,3.19-30.55,6.38-61.1,9.57-91.65,20.63,.12,41.26,.24,61.89,.37-2.85,30.77-5.7,61.53-8.55,92.3h0Z"/><rect class="cls-3" x="1570.73" y="933.62" width="16.59" height="7.45"/><rect class="cls-3" x="1583.42" y="767.24" width="16.59" height="194.84" rx="1.74" ry="1.74"/><path class="cls-4" d="M1565.7,943.61c-38.84-.62-77.68-1.24-116.51-1.86,5.91-56.59,11.81-113.18,17.72-169.77,38.21,.23,76.42,.45,114.63,.68-5.28,56.98-10.56,113.97-15.84,170.95Z"/><g class="cls-8"><g><path class="cls-5" d="M1481.28,797.09c6.87-4.54,10.68-4.39,12.9-3.38,2.29,1.04,2.99,3.02,6.46,4.15,3.27,1.07,6.29,.36,6.71,.26,3.75-.88,4.37-2.96,7.42-2.9,2.32,.04,2.61,1.26,4.45,.97,3.05-.48,3.29-3.97,5.61-4.26,3.34-.41,5.74,6.45,8.52,5.81,1.81-.42,1.85-3.57,3.68-3.74,1.32-.12,1.85,1.48,3.87,2.77,1.83,1.18,3.36,1.12,7.55,1.36,2.29,.13,5.58,.35,9.68,.77"/><path class="cls-5" d="M1481.31,828.61c5.73-1.72,9.05-.95,11.05,.15,1.29,.71,2.89,2.02,5.48,2.17,1.08,.06,2-.1,3.84-.42,3.66-.64,3.74-1.2,5.04-.98,2.11,.35,2.41,1.88,4.62,2.43,1.72,.42,3.3-.07,4.3-.49"/><path class="cls-5" d="M1480.93,813.65c2.23-.33,4.03-.7,5.26-.98,4.06-.9,5.7-1.63,7.39-.71,.91,.5,.87,.95,2.07,1.62,1.47,.82,2.97,.94,4.04,.92"/><path class="cls-5" d="M1499.69,814.5c2.56-2.09,4.25-2.21,5.3-1.95,1.68,.4,1.92,1.79,3.78,1.96,1.35,.12,1.86-.56,4.09-.7,.99-.06,1.8,.01,2.32,.08"/><g><path class="cls-6" d="M1555.26,837.75c1.46,1.55,1.05,4.08,.47,5.49-.78,1.89-1.94,1.9-2.4,3.63-.53,2.02,.92,2.54,.57,4.4-.62,3.33-5.9,5.1-7.08,5.49-1.45,.49-2.46,.57-2.99,.58-.93,.03-2.6-.06-4.33-.91-.07-.03-.17-.08-.29-.15-2.02-1.07-2.97-2.76-3.21-3.21-1.21-2.29,.08-3.09-1.16-4.64-.79-.98-1.44-.82-2.76-1.89-1.92-1.58-2.52-3.56-2.66-4.04-.87-2.83,.22-6.02,2.4-8.21,3.09-3.11,7.41-3.25,9.08-3.31,1.64-.05,4.2-.14,6.16,1.27,1.52,1.09,1.09,1.93,2.71,3.17,2.28,1.74,4.06,.81,5.48,2.31v.02Z"/><path class="cls-11" d="M1546.91,843.71c-.24,1.96-2.2,3.23-3.94,3.2-2.43-.04-4.6-2.6-4-4.8,.48-1.76,2.63-2.87,4.55-2.52,1.86,.34,3.64,2.07,3.38,4.12h0Z"/></g><path class="cls-5" d="M1524.21,813.35c3.03,1.96,5.36,2.18,6.9,2.05,3.41-.3,4.83-2.54,7.45-1.85,2.23,.59,2.4,2.5,4.32,2.84,1.55,.27,3.55-.6,6.17-3.78"/><g><path class="cls-2" d="M1474.71,924.02c1.27,1.03,2.93,1.54,4.13,1.91,.44,.14,1.34,.39,4.73,.79,1.4,.16,3.11,.3,6.46,.56,3.07,.24,4.62,.35,5.68-.05,.74-.28,1.78-.83,3.08-2.28,3.74-4.18,6.15-12.03,6.68-13.8-3.28-1.98-8.45-4.55-15.23-5.9-8.35-1.67-15.32-.71-19.39,.17,.1,3.65,.4,6.68,.69,8.88,.96,7.4,2.14,8.89,3.16,9.71h.01Z"/><path class="cls-11" d="M1504.93,912.84c-2.18,.47-4.31-.17-5.66-1.12-1.02-.72-1.87-1.31-2.24-2.37-.13-.37-.2-.81-.54-.95-.41-.16-.74,.32-1.56,.68-.15,.07-1.29,.54-2.61,.23-.42-.1-1.29-.31-1.83-1.04-.43-.58-.43-1.19-.71-1.21-.24-.02-.34,.43-.68,.84-.69,.82-1.99,1.04-2.96,.87-.15-.03-1.45-.27-2.18-1.32-.29-.41-.28-.65-.54-.76-.61-.26-1.46,.79-2.37,1.55-1.66,1.39-3.65,1.96-4.94,2.07-.34,.03-3.09,.23-5.08-1.54-2.9-2.58-1.95-7.3-1.59-9.06,.24-1.17,1.14-4.82,4.06-7.04,.69-.52,1.77-1.34,3.33-1.59,.97-.15,1.37,.03,2.58-.09,1.6-.16,2.7-.68,3.27-.9,2.01-.79,4.11-.62,7.92-.31,.9,.07,4.83,.43,9.64,2.16,2.27,.82,3.68,1.34,5.27,2.62,.57,.46,2.25,1.9,3.52,4.38,.91,1.76,2.95,5.71,1.16,9.53-.22,.46-1.76,3.61-5.27,4.36h0Z"/><path class="cls-2" d="M1500.24,885.56c.09,.5,.69,3.93-.56,7.09-.23,.59-.51,1.13-1.02,1.6-.83,.78-1.85,1-3.09,1.15-2.06,.24-3.6,.43-5.91,0-2.91-.53-5.06-.92-6.39-2.77-1.23-1.72-1.06-3.73-.97-4.76,.29-3.4,2.4-5.63,3.54-6.83,1.5-1.59,4.69-4.96,8.13-4.17,2.07,.47,3.35,2.25,4.21,3.44,1.44,2,1.8,3.93,2.05,5.25h.01Z"/></g><path class="cls-5" d="M1517.64,845.97c-10.12-1.87-16.23-1.12-20,0,0,0-5.21,1.55-5.8,.24-.29-.65,.91-1.92,.46-3.09-.04-.09-.1-.18-.2-.25-.93-.75-3.65,.25-7.85,.19-1.92-.03-3.73-.32-4.31-.43-.73-.14-1.33-.28-1.76-.39"/></g></g><rect class="cls-1" x="1452.2" y="935.38" width="110.48" height="8.47"/><rect class="cls-1" x="1470.68" y="768.26" width="110.86" height="7.45"/><path class="cls-1" d="M1581.34,766.22h9.5c.87,0,1.56,.75,1.47,1.62l-20.45,207.14c-.07,.76-.71,1.33-1.47,1.33h-13.96c-.89,0-1.57-.77-1.47-1.65l24.91-207.14c.09-.74,.72-1.3,1.47-1.3h0Z"/><path class="cls-1" d="M1434.39,976.31h15.78c.3,0,.55-.23,.58-.52l22.5-208.92c.04-.35-.23-.65-.58-.65h-12.78c-.3,0-.55,.22-.58,.52l-25.5,208.92c-.04,.35,.23,.66,.58,.66h0Z"/><path class="cls-5" d="M1527.23,872.3c2.4-2.31,4.13-2.47,5.29-2.14,1.25,.35,1.46,1.16,4.23,2.67,1.65,.9,2.5,1.35,3.64,1.29,1.58-.08,2.08-1,3.44-1.37,1.13-.31,2.86-.24,5.19,1.86"/></g></g></g></svg>