<?xml version="1.0" encoding="UTF-8"?><svg id="Layer_2" xmlns="http://www.w3.org/2000/svg" viewBox="0 0 681.51 460.95"><defs><style>.cls-1{font-family:OmnesMedium, Omnes;font-size:50px;}.cls-1,.cls-2{fill:#5b4e4a;}.cls-3{letter-spacing:0em;}.cls-4{fill:#ffc0b8;}.cls-5{fill:#ffdf99;}.cls-6{fill:#ffbf73;}.cls-7{fill:none;stroke-linecap:round;}.cls-7,.cls-8{stroke:#5b4e4a;stroke-miterlimit:10;}.cls-9{letter-spacing:-.02em;}.cls-10{letter-spacing:-.02em;}.cls-11{letter-spacing:0em;}.cls-12{letter-spacing:-.02em;}.cls-13{letter-spacing:0em;}.cls-14{letter-spacing:0em;}.cls-8{stroke-width:2px;}.cls-8,.cls-15{fill:#fff6f0;}.cls-16{letter-spacing:0em;}.cls-17{letter-spacing:-.02em;}.cls-18{fill:#ccb09e;}.cls-19{letter-spacing:-.02em;}.cls-20{letter-spacing:-.02em;}</style></defs><g id="contact"><g><rect class="cls-8" x="1" y="1" width="679.51" height="458.95" rx="10.36" ry="10.36"/><text class="cls-1" transform="translate(139.46 83.13)"><tspan x="0" y="0">Than</tspan><tspan class="cls-16" x="111.9" y="0">k</tspan><tspan class="cls-13" x="135.35" y="0">s</tspan><tspan class="cls-19" x="158.55" y="0"> </tspan><tspan class="cls-12" x="166.1" y="0">f</tspan><tspan x="182.5" y="0">o</tspan><tspan class="cls-17" x="210.9" y="0">r</tspan><tspan class="cls-10" x="228.5" y="0"> </tspan><tspan x="235.9" y="0">visiting!</tspan></text><text class="cls-1" transform="translate(181.03 141.44)"><tspan class="cls-14" x="0" y="0">S</tspan><tspan x="27.45" y="0">tay in</tspan><tspan class="cls-20" x="145.1" y="0"> </tspan><tspan x="152.7" y="0">to</tspan><tspan class="cls-11" x="199.65" y="0">u</tspan><tspan class="cls-3" x="227.2" y="0">ch </tspan><tspan class="cls-9" x="289.55" y="0">:</tspan><tspan x="300.69" y="0">)</tspan></text><g><g><path class="cls-18" d="M655.31,395.91c.64,2.83,2.87,12.69-2.06,22.25-11.1,21.52-46.88,18.99-52.03,18.63-4.09-.29-43.56-3.57-51.12-28.11-2.75-8.92-.11-16.85,.8-19.49,7.1-20.43,33.47-32.47,56.36-30.26,20.79,2.01,43.36,16.23,48.05,36.98Z"/><path class="cls-18" d="M586.09,363.48c-6.79,3.95-13.58,7.91-20.37,11.86-6.87-2.77-11.22-9.1-10.88-15.41,.5-9.25,11.02-16.58,20.17-13.86,6.82,2.03,11.67,9.26,11.07,17.4Z"/><path class="cls-18" d="M665.59,375.94c-1.16,7.14-7.93,12.92-16.22,13.05-4.55-5.14-9.1-10.28-13.64-15.42,.48-8.49,6.76-15.04,13.84-15.62,9.18-.76,17.52,8.71,16.02,18Z"/></g><path class="cls-15" d="M618.13,403.23c1.4,5.34-.49,11.26-4.15,14.63-8.39,7.73-27.24,3.28-30.95-7.28-1.71-4.86-.13-10.81,3.35-14.69,6.48-7.24,17.09-4.53,18.56-4.12,1.63,.44,10.96,2.99,13.19,11.47Z"/><path class="cls-2" d="M591.67,384.14c-.28,.52-2.68,.09-7.42,1.01-5.14,1-7.27,2.48-7.95,2.05-.91-.57,1.42-4.17,5.66-5.28,4.92-1.29,10.17,1.38,9.72,2.22Z"/><path class="cls-2" d="M617.81,386.38c.09,.63,2.54,.88,6.76,3.23,4.57,2.55,6.1,4.71,6.9,4.47,1.07-.32,.1-4.75-3.57-7.15-4.26-2.79-10.23-1.55-10.09-.55Z"/><path class="cls-2" d="M608.63,399.16c-.22,2.2-4.51,4.05-8.01,3.26-3.33-.75-6.39-4-5.73-6.08,.65-2.06,4.82-2.63,7.74-1.99,2.77,.61,6.22,2.73,6.01,4.8Z"/></g><g><path class="cls-5" d="M165.81,370.35c2.35,5.61,2.99,14.1,0,18.75-.43,.67-1.65,2.37-1.45,4.52,.18,2.04,1.53,3.41,1.94,3.88,3.33,3.83,3.18,15.55-1.62,23.91-4.82,8.4-13.06,11.21-18.58,13.09-13.24,4.51-29.55,3.03-41.22-5.8-2.88-2.18-8.53-6.57-11.14-14.4-2.04-6.11-1.18-11.17-.97-12.28,.39-2.11,2.04-10.95,8.56-13.9,3.37-1.52,8.74-1.79,13.25-.65,1.93,.49,4.32,1.39,5.01,.48,.5-.66-.27-1.81-.81-3.39-.95-2.78-.56-5.14-.07-8.18,.24-1.45,1.14-6.13,4.59-10.57,5.92-7.62,14.98-8.96,18.42-9.21,2.47-.18,8.38-.54,14.54,3.07,2.15,1.26,6.98,4.55,9.54,10.66Z"/><path class="cls-2" d="M156.54,382.4c-.21,1.46-1.99,2.11-2.18,2.18-1.37,.49-3.32,.25-3.99-.93-.87-1.53,.56-4.42,2.65-4.63,1.83-.19,3.77,1.72,3.52,3.39Z"/><path class="cls-7" d="M127.34,397.26c-1.06,.04-7.58,.41-10.53,5.06-2.94,4.65-1.73,9.46-1.55,10.04,1.21,4.01,4.2,6.07,5.25,6.72,5.83,3.58,12.31,.62,12.86,.36"/><path class="cls-6" d="M170.93,378.77c-.56-1.49-2.58-1.95-3.72-1.99-3.5-.1-7.07,3.55-6.46,5.46,.61,1.89,5.57,2.87,8.32,.74,1.1-.85,2.45-2.66,1.86-4.22Z"/></g><g><path class="cls-4" d="M85.46,354.21c.17,.91,1.14,1.4,1.62,1.69,2.12,1.28,3.03,3.74,3.94,6.2,1.98,5.36-1.63,11.36-2.26,12.41-.36,.6-4.89,7.93-11.4,8.4-6.45,.46-8.68-.03-8.68-.03-.51-.11-1.58-.37-2.68,.09-1.57,.65-2.09,2.28-2.61,3.24-2.04,3.78-8.09,4.91-11.7,4.79-4.94-.16-8.28-2.74-9.45-3.67-1.42-1.13-4.86-3.87-5.5-8.04-.65-4.25,.15-6.52,.15-6.52,.3-.86,.86-2.02,.34-2.71-.46-.61-1.5-.51-1.9-.49-3.27,.14-7.36-3.05-9.31-5.64-2.8-3.73-2.54-8.09-2.46-9.27,.35-5.75,3.87-11.41,7.26-12.3,3.59-.94,4.02-.99,4.02-.99,1.25-.13,2.28-.08,2.75-.78,.33-.48,.2-1.04,.12-1.65-.2-1.44,.13-2.9,.16-4.34,.04-2.09,2.19-8.15,7.82-11.27,7.38-4.08,15.72-.32,17.92,2.03,1.58,1.7,2.38,2.55,2.5,3.77,.05,.52,.04,1.52,.69,1.96,.37,.25,.86,.26,1,.27,.66,.02,1.16-.25,1.24-.28,.84-.41,9.02-2,14.24,2.15,6.26,4.99,5.59,16.17,3.25,18.71-.24,.26-1.23,1.23-1.04,2.27Z"/><path class="cls-5" d="M70.86,356.94c-.28,6.89-9.77,12.41-16.39,9.41-3.86-1.75-6.76-6.39-6.03-11.21,.84-5.5,6.13-9.25,11.42-9.09,6.21,.19,11.21,5.72,11,10.89Z"/></g></g></g></svg>