<?xml version="1.0" encoding="UTF-8"?><svg id="Layer_2" xmlns="http://www.w3.org/2000/svg" viewBox="0 0 681.51 460.95"><defs><style>.cls-1{fill:#5b4e4a;}.cls-2{fill:#ffc0b8;}.cls-3{fill:#ffdf99;}.cls-4{fill:#ffbf73;}.cls-5{fill:none;stroke-linecap:round;}.cls-5,.cls-6{stroke:#5b4e4a;stroke-miterlimit:10;}.cls-6{stroke-width:2px;}.cls-6,.cls-7{fill:#fff6f0;}.cls-8{fill:#ccb09e;}</style></defs><g id="contact"><g><rect class="cls-6" x="1" y="1" width="679.51" height="458.95" rx="10.36" ry="10.36"/><g><path class="cls-1" d="M161.96,61.18h-9.55c-1.1,0-1.7-.55-1.7-1.6v-.2c0-1.05,.6-1.6,1.7-1.6h22.8c1.15,0,1.75,.55,1.75,1.6v.2c0,1.05-.6,1.6-1.75,1.6h-9.5v27.4c0,1.1-.55,1.7-1.65,1.7h-.5c-1.05,0-1.6-.6-1.6-1.7v-27.4Z"/><path class="cls-1" d="M202.01,76.13v12.45c0,1.3-.65,1.7-1.55,1.7h-.45c-.95,0-1.6-.4-1.6-1.7v-12.2c0-4.6-2.25-7.4-6.3-7.4-4.25,0-7.3,2.9-7.35,7.35v12.25c0,1.3-.65,1.7-1.55,1.7h-.45c-.95,0-1.6-.4-1.6-1.7V56.43c0-.15,.6-.4,1.3-.4,1.15,0,2.3,.6,2.3,3.2v11.4c1.5-2.95,4.3-4.9,8.05-4.9,6.2,0,9.2,4.25,9.2,10.4Z"/><path class="cls-1" d="M223.06,76.13h.55v-1c0-4.05-2.35-6.3-6.45-6.3-3.8,0-6.1,1.85-7.3,4.25-.1,.05-2.2-.05-2.2-1.85,0-.7,.5-1.75,1.45-2.65,1.55-1.5,4.3-2.85,8.25-2.85,6.35,0,9.8,3.55,9.8,9.45v14.75c0,.15-.65,.4-1.3,.4-1.05,0-1.9-.5-2.1-2.3-.05-.7-.1-1.45-.1-2.2-1.6,2.9-4.85,4.8-8.85,4.8-5,0-8.1-2.6-8.1-6.65,0-5.4,5.1-7.7,16.35-7.85Zm.55,2.35l-.85,.05c-8.7,.2-12.45,1.7-12.45,5.35,0,2.5,2,4.05,5.2,4.05,4.6,0,8.1-3.1,8.1-7.15v-2.3Z"/><path class="cls-1" d="M254.21,76.08v12.5c0,1.3-.65,1.7-1.55,1.7h-.45c-.95,0-1.6-.4-1.6-1.7v-12.2c0-4.6-2.2-7.45-6.25-7.45-3.5,0-6.1,1.95-7.4,4.8v14.85c0,1.3-.65,1.7-1.55,1.7h-.45c-.95,0-1.6-.4-1.6-1.7v-22.1c0-.1,.6-.4,1.3-.4,1.1,0,2.1,.55,2.2,3v1.4c1.6-2.85,4.4-4.75,8.2-4.75,6.15,0,9.15,4.25,9.15,10.35Z"/><path class="cls-1" d="M260.46,56.43c0-.15,.55-.4,1.25-.4,1.15,0,2.3,.6,2.3,3.2v17.9l9.45-9.7c.75-.9,1.55-1.3,2.2-1.35,1.3-.05,2,1.2,1.9,1.5l-9.8,9.9,11.1,11.25c.1,.35-.6,1.65-1.95,1.6-.75-.05-1.45-.45-2.2-1.35l-10.7-10.8v10.4c0,1.3-.65,1.7-1.55,1.7h-.45c-.9,0-1.55-.35-1.55-1.7V56.43Z"/><path class="cls-1" d="M280.56,85.78c0-1.25,1.4-1.8,1.55-1.75,1.5,2.15,4.2,3.75,8.1,3.75s5.95-1.6,5.95-3.95c0-2.8-2.6-3.35-6.65-4.25-3.65-.75-8.25-1.8-8.25-6.65,0-4.25,3.55-7.2,9.05-7.2,3.85,0,6.45,1.25,7.8,2.7,.55,.55,.9,1.3,.9,1.9,0,1.25-1.45,1.9-1.55,1.8-1.3-2-3.9-3.55-7.1-3.55-3.65,0-5.75,1.65-5.75,3.95,0,2.6,2.5,3.2,6.45,4.1,3.9,.85,8.6,1.9,8.6,6.8,0,4.35-3.65,7.25-9.5,7.25-3.9,0-6.6-1.15-8.15-2.5-1-.85-1.45-1.65-1.45-2.4Z"/><path class="cls-1" d="M314.41,69.33h-3.35c-1.15,0-1.55-.5-1.55-1.4v-.3c0-.9,.4-1.35,1.55-1.35h3.35v-2.4c0-5.55,2.55-8.3,6.95-8.3,1.9,0,3.2,.45,4.05,1.2,.55,.45,.8,1.05,.8,1.7,0,1.1-.8,1.7-.9,1.6-.7-.8-2.15-1.45-3.6-1.45-2.6,0-3.85,1.65-3.85,5.55v2.1h4.6c1.15,0,1.6,.5,1.6,1.35v.3c0,.9-.45,1.4-1.6,1.4h-4.5v19.25c0,1.25-.6,1.7-1.55,1.7h-.4c-.95,0-1.6-.4-1.6-1.7v-19.25Z"/><path class="cls-1" d="M338.01,65.73c7.05,0,12.05,5.25,12.05,12.55s-5,12.4-12.1,12.4-12.1-5.25-12.1-12.5,5-12.45,12.15-12.45Zm0,3.05c-5,0-8.65,3.9-8.65,9.4s3.65,9.45,8.65,9.45,8.55-3.9,8.55-9.35-3.55-9.5-8.55-9.5Z"/><path class="cls-1" d="M368.26,68.33c0,1.45-1,2.05-1.1,1.95-.6-.6-1.55-1-2.85-1-3.9,0-5.7,3.85-5.7,9.85v9.45c0,1.25-.65,1.7-1.55,1.7h-.4c-1,0-1.65-.4-1.65-1.7v-22.1c0-.1,.55-.4,1.3-.4,1,0,1.9,.5,2.1,2.4,.05,.85,.1,1.7,.1,2.6,.95-3.6,3.15-5.35,6.2-5.35,2.15,0,3.55,1.05,3.55,2.6Z"/><path class="cls-1" d="M375.86,67.13c0-.3,.85-1.1,1.9-1.1,.95,.05,1.75,.55,2.35,2.25l6.85,18.65,6.9-18.65c.6-1.75,1.5-2.25,2.35-2.2,1.05,.05,1.8,.75,1.8,1.05l-8.75,22c-.3,.9-1,1.25-2.35,1.25s-1.95-.3-2.3-1.15l-8.75-22.1Z"/><path class="cls-1" d="M404.01,56.48c1.45,0,2.3,.8,2.3,2.3s-.9,2.25-2.35,2.25-2.25-.8-2.25-2.25,.85-2.3,2.3-2.3Zm-1.85,11.35c0-1.3,.65-1.75,1.6-1.75h.4c.95,0,1.6,.4,1.6,1.75v20.75c0,1.3-.65,1.7-1.6,1.7h-.4c-.95,0-1.6-.4-1.6-1.7v-20.75Z"/><path class="cls-1" d="M410.61,85.78c0-1.25,1.4-1.8,1.55-1.75,1.5,2.15,4.2,3.75,8.1,3.75s5.95-1.6,5.95-3.95c0-2.8-2.6-3.35-6.65-4.25-3.65-.75-8.25-1.8-8.25-6.65,0-4.25,3.55-7.2,9.05-7.2,3.85,0,6.45,1.25,7.8,2.7,.55,.55,.9,1.3,.9,1.9,0,1.25-1.45,1.9-1.55,1.8-1.3-2-3.9-3.55-7.1-3.55-3.65,0-5.75,1.65-5.75,3.95,0,2.6,2.5,3.2,6.45,4.1,3.9,.85,8.6,1.9,8.6,6.8,0,4.35-3.65,7.25-9.5,7.25-3.9,0-6.6-1.15-8.15-2.5-1-.85-1.45-1.65-1.45-2.4Z"/><path class="cls-1" d="M436.76,56.48c1.45,0,2.3,.8,2.3,2.3s-.9,2.25-2.35,2.25-2.25-.8-2.25-2.25,.85-2.3,2.3-2.3Zm-1.85,11.35c0-1.3,.65-1.75,1.6-1.75h.4c.95,0,1.6,.4,1.6,1.75v20.75c0,1.3-.65,1.7-1.6,1.7h-.4c-.95,0-1.6-.4-1.6-1.7v-20.75Z"/><path class="cls-1" d="M446.71,83.18v-13.85h-2.35c-1.15,0-1.55-.5-1.55-1.35v-.35c0-.85,.4-1.35,1.55-1.35h2.35v-4.2c0-1.25,.65-1.75,1.6-1.75h.4c.95,0,1.55,.45,1.55,1.75v4.2h6.05c1.1,0,1.55,.45,1.55,1.35v.3c0,.9-.45,1.4-1.6,1.4h-6.05v13.3c0,3.5,1.05,5,3.55,5,1.6,0,2.8-.75,3.55-1.85,.15-.1,1,.4,1,1.65,0,.6-.25,1.25-.9,1.85-.85,.8-2.2,1.4-4.15,1.4-4.4,0-6.55-2.45-6.55-7.5Z"/><path class="cls-1" d="M464.41,56.48c1.45,0,2.3,.8,2.3,2.3s-.9,2.25-2.35,2.25-2.25-.8-2.25-2.25,.85-2.3,2.3-2.3Zm-1.85,11.35c0-1.3,.65-1.75,1.6-1.75h.4c.95,0,1.6,.4,1.6,1.75v20.75c0,1.3-.65,1.7-1.6,1.7h-.4c-.95,0-1.6-.4-1.6-1.7v-20.75Z"/><path class="cls-1" d="M493.66,76.08v12.5c0,1.3-.65,1.7-1.55,1.7h-.45c-.95,0-1.6-.4-1.6-1.7v-12.2c0-4.6-2.2-7.45-6.25-7.45-3.5,0-6.1,1.95-7.4,4.8v14.85c0,1.3-.65,1.7-1.55,1.7h-.45c-.95,0-1.6-.4-1.6-1.7v-22.1c0-.1,.6-.4,1.3-.4,1.1,0,2.1,.55,2.2,3v1.4c1.6-2.85,4.4-4.75,8.2-4.75,6.15,0,9.15,4.25,9.15,10.35Z"/><path class="cls-1" d="M496.6,94.13c0-3.5,3.45-5.95,7.8-6.75-.85-.5-1.5-1.25-1.5-2.4,0-1.05,.6-1.95,1.45-2.55-3.65-1.15-6.05-4.15-6.05-7.85,0-4.95,4.1-8.85,9.65-8.85,2.1,0,4.1,.6,5.65,1.65l1.8-2.7c.7-1.2,1.5-1.55,2.35-1.45,1.15,.15,1.8,1.3,1.75,1.6l-3.95,4.2c1.3,1.45,2.15,3.3,2.15,5.4,0,4.85-4.1,8.55-9.7,8.55-.45,0-.85,0-1.3-.05-.5,.35-.6,.8-.6,1.3,.05,1.6,2.45,1.85,6.5,2.85,3.45,.85,7.15,2.55,7.15,6.4,0,4.45-4.4,7.15-12,7.15s-11.15-2.2-11.15-6.5Zm19.65-.4c0-2.2-2.5-3.2-5.25-3.9-1-.25-2-.45-2.95-.7-4.25,.35-7.95,2.15-7.95,4.95,0,2.55,2.7,3.95,7.75,3.95s8.4-1.5,8.4-4.3Zm-2.15-19.25c0-3.55-2.45-6.05-6.2-6.05s-6.1,2.45-6.1,6.05,2.55,6,6.15,6,6.15-2.4,6.15-6Z"/><path class="cls-1" d="M523.4,88.18v-.45c0-1.45,.7-2.25,2.15-2.25h.5c1.45,0,2.15,.8,2.15,2.25v.45c0,1.45-.7,2.25-2.15,2.25h-.5c-1.4,0-2.15-.8-2.15-2.25Zm1.35-8.45l-1.15-19.9c-.15-1.55,.5-2.3,1.6-2.3h1.15c1.15,0,1.8,.75,1.65,2.3l-1.1,19.95c-.1,.8-.25,1.25-.9,1.25h-.4c-.6,0-.8-.45-.85-1.3Z"/></g><g><path class="cls-1" d="M189.39,141.54c0-1.35,1.65-2.25,1.8-2.1,1.5,2.75,4.65,5.4,9.7,5.4,4.75,0,7.7-2.2,7.7-5.9,0-4.15-4-5.15-8.55-6.25-4.95-1.25-9.85-2.9-9.85-9.15,0-5.3,4.6-9,10.9-9,4.2,0,7.25,1.35,8.95,2.9,1,.95,1.55,2,1.55,2.85,0,1.45-1.75,2.3-1.85,2.15-1.4-2.5-4.35-4.75-8.65-4.75s-7.25,2.25-7.25,5.75c0,3.95,3.4,4.75,8.05,5.9,5.25,1.25,10.4,3.2,10.4,9.4,0,5.65-4.45,9.25-11.35,9.25-4.75,0-8.15-1.55-10-3.4-1.05-1.05-1.55-2.2-1.55-3.05Z"/><path class="cls-1" d="M218.88,140.49v-13.85h-2.35c-1.15,0-1.55-.5-1.55-1.35v-.35c0-.85,.4-1.35,1.55-1.35h2.35v-4.2c0-1.25,.65-1.75,1.6-1.75h.4c.95,0,1.55,.45,1.55,1.75v4.2h6.05c1.1,0,1.55,.45,1.55,1.35v.3c0,.9-.45,1.4-1.6,1.4h-6.05v13.3c0,3.5,1.05,5,3.55,5,1.6,0,2.8-.75,3.55-1.85,.15-.1,1,.4,1,1.65,0,.6-.25,1.25-.9,1.85-.85,.8-2.2,1.4-4.15,1.4-4.4,0-6.55-2.45-6.55-7.5Z"/><path class="cls-1" d="M249.34,133.44h.55v-1c0-4.05-2.35-6.3-6.45-6.3-3.8,0-6.1,1.85-7.3,4.25-.1,.05-2.2-.05-2.2-1.85,0-.7,.5-1.75,1.45-2.65,1.55-1.5,4.3-2.85,8.25-2.85,6.35,0,9.8,3.55,9.8,9.45v14.75c0,.15-.65,.4-1.3,.4-1.05,0-1.9-.5-2.1-2.3-.05-.7-.1-1.45-.1-2.2-1.6,2.9-4.85,4.8-8.85,4.8-5,0-8.1-2.6-8.1-6.65,0-5.4,5.1-7.7,16.35-7.85Zm.55,2.35l-.85,.05c-8.7,.2-12.45,1.7-12.45,5.35,0,2.5,2,4.05,5.2,4.05,4.6,0,8.1-3.1,8.1-7.15v-2.3Z"/><path class="cls-1" d="M263.38,156.04l4.1-9.95c-.95-.05-1.45-.3-1.8-1.15l-8.65-20.5c-.05-.3,.85-1.1,1.95-1.1,.9,.05,1.7,.6,2.25,2.15l7.3,18.25,6.45-18.1c.55-1.85,1.55-2.3,2.45-2.25,.9,0,1.8,.75,1.75,1l-11.6,30.5c-.55,1.7-1.4,2.15-2.35,2.15-1,0-1.9-.75-1.85-1Z"/><path class="cls-1" d="M293.58,113.79c1.45,0,2.3,.8,2.3,2.3s-.9,2.25-2.35,2.25-2.25-.8-2.25-2.25,.85-2.3,2.3-2.3Zm-1.85,11.35c0-1.3,.65-1.75,1.6-1.75h.4c.95,0,1.6,.4,1.6,1.75v20.75c0,1.3-.65,1.7-1.6,1.7h-.4c-.95,0-1.6-.4-1.6-1.7v-20.75Z"/><path class="cls-1" d="M322.83,133.39v12.5c0,1.3-.65,1.7-1.55,1.7h-.45c-.95,0-1.6-.4-1.6-1.7v-12.2c0-4.6-2.2-7.45-6.25-7.45-3.5,0-6.1,1.95-7.4,4.8v14.85c0,1.3-.65,1.7-1.55,1.7h-.45c-.95,0-1.6-.4-1.6-1.7v-22.1c0-.1,.6-.4,1.3-.4,1.1,0,2.1,.55,2.2,3v1.4c1.6-2.85,4.4-4.75,8.2-4.75,6.15,0,9.15,4.25,9.15,10.35Z"/><path class="cls-1" d="M338.28,140.49v-13.85h-2.35c-1.15,0-1.55-.5-1.55-1.35v-.35c0-.85,.4-1.35,1.55-1.35h2.35v-4.2c0-1.25,.65-1.75,1.6-1.75h.4c.95,0,1.55,.45,1.55,1.75v4.2h6.05c1.1,0,1.55,.45,1.55,1.35v.3c0,.9-.45,1.4-1.6,1.4h-6.05v13.3c0,3.5,1.05,5,3.55,5,1.6,0,2.8-.75,3.55-1.85,.15-.1,1,.4,1,1.65,0,.6-.25,1.25-.9,1.85-.85,.8-2.2,1.4-4.15,1.4-4.4,0-6.55-2.45-6.55-7.5Z"/><path class="cls-1" d="M364.53,123.04c7.05,0,12.05,5.25,12.05,12.55s-5,12.4-12.1,12.4-12.1-5.25-12.1-12.5,5-12.45,12.15-12.45Zm0,3.05c-5,0-8.65,3.9-8.65,9.4s3.65,9.45,8.65,9.45,8.55-3.9,8.55-9.35-3.55-9.5-8.55-9.5Z"/><path class="cls-1" d="M402.18,125.09v22.15c0,.1-.6,.4-1.3,.4-1,0-1.9-.5-2.1-2.35-.05-.65-.1-1.3-.1-1.95-1.6,2.65-4.35,4.65-8.2,4.65-6.15,0-9.15-4.25-9.15-10.4v-12.5c0-1.3,.65-1.7,1.6-1.7h.4c.95,0,1.6,.4,1.6,1.7v12.25c0,4.6,2.25,7.45,6.3,7.45,3.45,0,6.05-1.95,7.35-4.85v-14.85c0-1.3,.65-1.7,1.55-1.7h.45c.95,0,1.6,.4,1.6,1.7Z"/><path class="cls-1" d="M418.63,123.04c3.75,0,6.35,1.35,7.95,2.9,1.35,1.25,1.95,2.7,1.95,3.6,0,1.6-2.15,1.9-2.3,1.7-1.05-2.75-3.2-5.1-7.55-5.1-5,0-8.55,3.9-8.55,9.3s3.5,9.45,8.55,9.45c4.3,0,6.5-2.35,7.55-5.1,.1-.2,2.3,.05,2.3,1.75,0,.8-.6,2.2-1.95,3.5-1.55,1.65-4.2,2.95-8,2.95-7,0-12-5.25-12-12.55s5-12.4,12.05-12.4Z"/><path class="cls-1" d="M454.13,133.44v12.45c0,1.3-.65,1.7-1.55,1.7h-.45c-.95,0-1.6-.4-1.6-1.7v-12.2c0-4.6-2.25-7.4-6.3-7.4-4.25,0-7.3,2.9-7.35,7.35v12.25c0,1.3-.65,1.7-1.55,1.7h-.45c-.95,0-1.6-.4-1.6-1.7v-32.15c0-.15,.6-.4,1.3-.4,1.15,0,2.3,.6,2.3,3.2v11.4c1.5-2.95,4.3-4.9,8.05-4.9,6.2,0,9.2,4.25,9.2,10.4Z"/><path class="cls-1" d="M468.93,128.09c0-1.4,.75-2.25,2.15-2.25h.5c1.5,0,2.2,.85,2.2,2.25v.45c0,1.45-.75,2.2-2.2,2.2h-.5c-1.4,0-2.15-.75-2.15-2.2v-.45Zm0,16.95c0-1.45,.75-2.25,2.15-2.25h.5c1.5,0,2.2,.8,2.2,2.25v.45c0,1.45-.75,2.25-2.2,2.25h-.5c-1.4,0-2.15-.8-2.15-2.25v-.45Z"/><path class="cls-1" d="M476.43,155.84c0-.6,.45-1.25,.55-1.3,6.6-1.5,10.7-9.2,10.7-18.55s-4.1-16.9-10.7-18.4c-.15-.05-.55-.75-.55-1.3,0-.95,.6-1.4,1.65-1.4,2.1,0,4.85,1.3,7.35,4.1,3.4,3.6,5.95,9.85,5.95,17.05s-2.5,13.45-5.9,17.15c-2.55,2.75-5.3,4.05-7.4,4.05-1.05,0-1.65-.45-1.65-1.4Z"/></g><g><g><path class="cls-8" d="M655.31,395.91c.64,2.83,2.87,12.69-2.06,22.25-11.1,21.52-46.88,18.99-52.03,18.63-4.09-.29-43.56-3.57-51.12-28.11-2.75-8.92-.11-16.85,.8-19.49,7.1-20.43,33.47-32.47,56.36-30.26,20.79,2.01,43.36,16.23,48.05,36.98Z"/><path class="cls-8" d="M586.09,363.48c-6.79,3.95-13.58,7.91-20.37,11.86-6.87-2.77-11.22-9.1-10.88-15.41,.5-9.25,11.02-16.58,20.17-13.86,6.82,2.03,11.67,9.26,11.07,17.4Z"/><path class="cls-8" d="M665.59,375.94c-1.16,7.14-7.93,12.92-16.22,13.05-4.55-5.14-9.1-10.28-13.64-15.42,.48-8.49,6.76-15.04,13.84-15.62,9.18-.76,17.52,8.71,16.02,18Z"/></g><path class="cls-7" d="M618.13,403.23c1.4,5.34-.49,11.26-4.15,14.63-8.39,7.73-27.24,3.28-30.95-7.28-1.71-4.86-.13-10.81,3.35-14.69,6.48-7.24,17.09-4.53,18.56-4.12,1.63,.44,10.96,2.99,13.19,11.47Z"/><path class="cls-1" d="M591.67,384.14c-.28,.52-2.68,.09-7.42,1.01-5.14,1-7.27,2.48-7.95,2.05-.91-.57,1.42-4.17,5.66-5.28,4.92-1.29,10.17,1.38,9.72,2.22Z"/><path class="cls-1" d="M617.81,386.38c.09,.63,2.54,.88,6.76,3.23,4.57,2.55,6.1,4.71,6.9,4.47,1.07-.32,.1-4.75-3.57-7.15-4.26-2.79-10.23-1.55-10.09-.55Z"/><path class="cls-1" d="M608.63,399.16c-.22,2.2-4.51,4.05-8.01,3.26-3.33-.75-6.39-4-5.73-6.08,.65-2.06,4.82-2.63,7.74-1.99,2.77,.61,6.22,2.73,6.01,4.8Z"/></g><g><path class="cls-3" d="M165.81,370.35c2.35,5.61,2.99,14.1,0,18.75-.43,.67-1.65,2.37-1.45,4.52,.18,2.04,1.53,3.41,1.94,3.88,3.33,3.83,3.18,15.55-1.62,23.91-4.82,8.4-13.06,11.21-18.58,13.09-13.24,4.51-29.55,3.03-41.22-5.8-2.88-2.18-8.53-6.57-11.14-14.4-2.04-6.11-1.18-11.17-.97-12.28,.39-2.11,2.04-10.95,8.56-13.9,3.37-1.52,8.74-1.79,13.25-.65,1.93,.49,4.32,1.39,5.01,.48,.5-.66-.27-1.81-.81-3.39-.95-2.78-.56-5.14-.07-8.18,.24-1.45,1.14-6.13,4.59-10.57,5.92-7.62,14.98-8.96,18.42-9.21,2.47-.18,8.38-.54,14.54,3.07,2.15,1.26,6.98,4.55,9.54,10.66Z"/><path class="cls-1" d="M156.54,382.4c-.21,1.46-1.99,2.11-2.18,2.18-1.37,.49-3.32,.25-3.99-.93-.87-1.53,.56-4.42,2.65-4.63,1.83-.19,3.77,1.72,3.52,3.39Z"/><path class="cls-5" d="M127.34,397.26c-1.06,.04-7.58,.41-10.53,5.06-2.94,4.65-1.73,9.46-1.55,10.04,1.21,4.01,4.2,6.07,5.25,6.72,5.83,3.58,12.31,.62,12.86,.36"/><path class="cls-4" d="M170.93,378.77c-.56-1.49-2.58-1.95-3.72-1.99-3.5-.1-7.07,3.55-6.46,5.46,.61,1.89,5.57,2.87,8.32,.74,1.1-.85,2.45-2.66,1.86-4.22Z"/></g><g><path class="cls-2" d="M85.46,354.21c.17,.91,1.14,1.4,1.62,1.69,2.12,1.28,3.03,3.74,3.94,6.2,1.98,5.36-1.63,11.36-2.26,12.41-.36,.6-4.89,7.93-11.4,8.4-6.45,.46-8.68-.03-8.68-.03-.51-.11-1.58-.37-2.68,.09-1.57,.65-2.09,2.28-2.61,3.24-2.04,3.78-8.09,4.91-11.7,4.79-4.94-.16-8.28-2.74-9.45-3.67-1.42-1.13-4.86-3.87-5.5-8.04-.65-4.25,.15-6.52,.15-6.52,.3-.86,.86-2.02,.34-2.71-.46-.61-1.5-.51-1.9-.49-3.27,.14-7.36-3.05-9.31-5.64-2.8-3.73-2.54-8.09-2.46-9.27,.35-5.75,3.87-11.41,7.26-12.3,3.59-.94,4.02-.99,4.02-.99,1.25-.13,2.28-.08,2.75-.78,.33-.48,.2-1.04,.12-1.65-.2-1.44,.13-2.9,.16-4.34,.04-2.09,2.19-8.15,7.82-11.27,7.38-4.08,15.72-.32,17.92,2.03,1.58,1.7,2.38,2.55,2.5,3.77,.05,.52,.04,1.52,.69,1.96,.37,.25,.86,.26,1,.27,.66,.02,1.16-.25,1.24-.28,.84-.41,9.02-2,14.24,2.15,6.26,4.99,5.59,16.17,3.25,18.71-.24,.26-1.23,1.23-1.04,2.27Z"/><path class="cls-3" d="M70.86,356.94c-.28,6.89-9.77,12.41-16.39,9.41-3.86-1.75-6.76-6.39-6.03-11.21,.84-5.5,6.13-9.25,11.42-9.09,6.21,.19,11.21,5.72,11,10.89Z"/></g></g></g></svg>