<?xml version="1.0" encoding="UTF-8"?><svg id="Layer_2" xmlns="http://www.w3.org/2000/svg" xmlns:xlink="http://www.w3.org/1999/xlink" viewBox="0 0 432.44 745.43"><defs><style>.cls-1{fill:#ffe6b3;}.cls-2{fill:#ffd9cf;}.cls-3{fill:#c7d6aa;}.cls-4{fill:#635654;}.cls-5{fill:#9dcebb;}.cls-6{fill:#ffbf73;}.cls-7{clip-path:url(#clippath-2);}.cls-8{fill:#d2bd9f;}.cls-8,.cls-9,.cls-10,.cls-11,.cls-12,.cls-13,.cls-14{stroke-miterlimit:10;}.cls-8,.cls-9,.cls-11,.cls-12{stroke:#5b4e4a;}.cls-8,.cls-9,.cls-11,.cls-12,.cls-14{stroke-width:2px;}.cls-15,.cls-9{fill:#d88b7c;}.cls-10{stroke-linecap:round;stroke-width:4px;}.cls-10,.cls-11,.cls-13,.cls-16{fill:none;}.cls-10,.cls-13,.cls-14{stroke:#635654;}.cls-17{fill:#abbf95;}.cls-18{clip-path:url(#clippath-1);}.cls-19{fill:#97ab89;}.cls-12{fill:#fff6f0;}.cls-20{clip-path:url(#clippath);}.cls-21{fill:#ff9388;}.cls-13{stroke-width:.75px;}.cls-22{fill:#f9f4ef;}.cls-14{fill:#bddbef;}.cls-23{fill:#ffdb92;}.cls-24{fill:#fca4a4;}.cls-25{fill:#9da886;}</style><clipPath id="clippath"><rect class="cls-16" width="360" height="657"/></clipPath><clipPath id="clippath-1"><rect class="cls-16" x="300.45" y="552.52" width="93.37" height="119.2" transform="translate(26.28 -14.18) rotate(2.43)"/></clipPath><clipPath id="clippath-2"><rect class="cls-16" x="183.29" y="535.7" width="93.37" height="119.2" transform="translate(-253.55 178.8) rotate(-28.14)"/></clipPath></defs><g id="mobile"><g id="contact"><g class="cls-20"><g><rect class="cls-12" x="79.71" y="467.3" width="277.76" height="243.78" transform="translate(-151.66 81.41) rotate(-15.74)"/><g><line class="cls-13" x1="70.81" y1="504.21" x2="136.95" y2="738.84"/><line class="cls-13" x1="91.56" y1="498.36" x2="157.7" y2="733"/><line class="cls-13" x1="112.3" y1="492.51" x2="178.45" y2="727.15"/><line class="cls-13" x1="133.05" y1="486.66" x2="199.19" y2="721.3"/><line class="cls-13" x1="153.8" y1="480.82" x2="219.94" y2="715.45"/><line class="cls-13" x1="240.69" y1="709.6" x2="174.54" y2="474.97"/><line class="cls-13" x1="195.29" y1="469.12" x2="261.43" y2="703.76"/><line class="cls-13" x1="282.18" y1="697.91" x2="216.03" y2="463.27"/><line class="cls-13" x1="236.78" y1="457.42" x2="302.92" y2="692.06"/><line class="cls-13" x1="323.67" y1="686.21" x2="257.53" y2="451.57"/><line class="cls-13" x1="278.27" y1="445.73" x2="344.42" y2="680.36"/><line class="cls-13" x1="365.16" y1="674.51" x2="299.02" y2="439.88"/><line class="cls-13" x1="56.09" y1="524.6" x2="323.74" y2="449.15"/><line class="cls-13" x1="329.56" y1="469.77" x2="61.9" y2="545.23"/><line class="cls-13" x1="67.72" y1="565.85" x2="335.37" y2="490.4"/><line class="cls-13" x1="340.87" y1="511.11" x2="73.53" y2="586.47"/><line class="cls-13" x1="79.34" y1="607.1" x2="346.68" y2="531.74"/><line class="cls-13" x1="352.81" y1="552.27" x2="85.16" y2="627.72"/><line class="cls-13" x1="90.97" y1="648.35" x2="358.31" y2="572.99"/><line class="cls-13" x1="364.12" y1="593.61" x2="96.79" y2="668.97"/><line class="cls-13" x1="102.6" y1="689.6" x2="370.25" y2="614.15"/><line class="cls-13" x1="376.07" y1="634.77" x2="108.41" y2="710.22"/><line class="cls-13" x1="114.23" y1="730.85" x2="381.88" y2="655.4"/></g></g><g><g><rect class="cls-8" x="123.83" y="387.51" width="255.29" height="312.89" transform="translate(50.32 -20.55) rotate(5.2)"/><rect class="cls-9" x="124.29" y="377.24" width="28.71" height="312.89" transform="translate(48.92 -10.37) rotate(5.2)"/></g><g><path class="cls-15" d="M350.68,499.91c-1.87,18.01-28.83,31.49-43.11,22.98-14.32-8.53-15.66-39.01-.14-49.13,8.96-5.84,22.09-3.95,30.98,2.46,6.71,4.84,13.29,13.92,12.27,23.69Z"/><path class="cls-1" d="M337.2,492.47c-.42,1.08-1.64,2.11-2.82,1.76-.89-.26-1.47-1.24-1.46-2.09,.02-1.74,2.54-3.19,3.7-2.54,.78,.44,.98,1.84,.58,2.86Z"/><g><ellipse class="cls-25" cx="335.24" cy="473.44" rx="4.22" ry="8.26" transform="translate(-115.49 108.23) rotate(-15.68)"/><ellipse class="cls-25" cx="341.24" cy="474.57" rx="8.6" ry="4.05" transform="translate(-239.71 410.14) rotate(-47.95)"/><ellipse class="cls-25" cx="343.24" cy="479.07" rx="9.22" ry="3.78" transform="translate(-24.45 18.5) rotate(-2.98)"/><ellipse class="cls-25" cx="337.89" cy="480.95" rx="4.15" ry="8.38" transform="translate(-184.55 211.61) rotate(-27.64)"/><ellipse class="cls-25" cx="334.09" cy="478.47" rx="9.2" ry="3.79" transform="translate(-52.93 41.7) rotate(-6.62)"/></g><path class="cls-1" d="M318.39,483.11c-.19,1.83-3.31,2.98-4.33,2.14-.67-.55-.49-1.99,0-2.9,.4-.74,1.42-1.93,2.67-1.64,1.07,.24,1.77,1.45,1.67,2.41Z"/><path class="cls-1" d="M323.12,495.51c-.45,1.5-2.67,2.3-3.43,1.67-.55-.46-.37-1.69,.09-2.46,.59-1.01,1.98-1.81,2.81-1.3,.62,.38,.75,1.39,.54,2.1Z"/><path class="cls-1" d="M307.1,493.44c-.24,1.57-2.13,2.77-3.17,2.29-.9-.42-1.13-2.08-.65-3.25,.34-.83,1.27-1.95,2.32-1.76,1.07,.2,1.66,1.64,1.5,2.73Z"/><path class="cls-1" d="M331.82,510.45c-.38,1.48-2.37,2.44-3.34,1.82-.66-.42-.77-1.52-.53-2.29,.43-1.37,2.17-2.33,3.17-1.76,.69,.39,.9,1.45,.7,2.23Z"/><path class="cls-1" d="M316.83,511.38c-.48,1.3-2.26,1.94-3.13,1.33-.71-.51-.66-1.76-.35-2.55,.33-.85,1.23-1.87,2.17-1.7,1.03,.19,1.74,1.74,1.31,2.92Z"/><path class="cls-1" d="M339.63,501.31c-.33,1.04-1.71,1.73-2.43,1.28-.54-.34-.64-1.28-.36-1.94,.39-.93,1.64-1.54,2.35-1.09,.53,.33,.63,1.17,.45,1.75Z"/></g><g><path class="cls-15" d="M260.88,427c15.26,9.74,15.23,39.88,1.23,48.84-14.04,8.98-41.9-3.48-43.99-21.89-1.21-10.63,6.36-21.52,16.08-26.59,7.34-3.83,18.4-5.64,26.68-.36Z"/><g><ellipse class="cls-19" cx="227.11" cy="429.34" rx="4.6" ry="12.51" transform="translate(-230.12 593.2) rotate(-81.84)"/><ellipse class="cls-25" cx="232.55" cy="424.13" rx="5.58" ry="10.32" transform="translate(-205.6 219.21) rotate(-36.2)"/><ellipse class="cls-25" cx="240.02" cy="424.51" rx="10.63" ry="5.42" transform="translate(-245.77 381.73) rotate(-55.48)"/><ellipse class="cls-25" cx="239.14" cy="430.64" rx="4.53" ry="12.71" transform="translate(-194.76 663.81) rotate(-89.21)"/><ellipse class="cls-25" cx="233.28" cy="433.03" rx="10.43" ry="5.52" transform="translate(-258.48 422.77) rotate(-60.49)"/></g><circle class="cls-1" cx="229.71" cy="450.47" r="2.74"/><path class="cls-1" d="M244,445.8c1.09,.8,1.5,2.57,.88,3.17-.67,.65-2.7,.09-3.34-1.23-.31-.63-.43-1.69,.18-2.2,.65-.54,1.72-.14,2.28,.26Z"/><circle class="cls-1" cx="237.7" cy="462.91" r="2.34"/><path class="cls-1" d="M261.32,450.75c.99,.82,1.1,2.56,.39,3.12-.73,.56-2.22-.15-2.94-1.09-.08-.11-.88-1.15-.49-1.88,.42-.79,2.09-.93,3.04-.15Z"/><path class="cls-1" d="M260,462.22c1.15,.69,1.99,2.23,1.57,2.79-.5,.68-3.05,.24-3.68-1.2-.25-.58-.28-1.5,.23-1.88,.62-.46,1.65,.16,1.88,.29Z"/><path class="cls-1" d="M257.95,438.02c1.01,.73,1.45,2.32,.88,2.9-.53,.54-1.88,.16-2.65-.53-.72-.64-1.31-1.87-.83-2.5,.47-.62,1.81-.45,2.61,.13Z"/><path class="cls-1" d="M248.76,458.98c1.14,.68,1.86,2.25,1.41,2.87-.59,.82-3.45,.42-4.11-1.12-.24-.56-.25-1.41,.23-1.88,.65-.63,1.86-.24,2.47,.12Z"/></g></g><g><rect class="cls-12" x="285.64" y="538.02" width="121.56" height="181.76" transform="translate(26.99 -14.13) rotate(2.43)"/><g class="cls-18"><rect class="cls-14" x="300.45" y="552.52" width="93.37" height="119.2" transform="translate(26.28 -14.18) rotate(2.43)"/><circle class="cls-6" cx="378.8" cy="579.48" r="12.86"/><path class="cls-25" d="M301.96,628.03c15.91-3.26,31.83-6.52,47.74-9.78,1.11-.49,2.41-.12,3.08,.89,3.55,5.27,7.1,10.55,10.65,15.82,.41,.61,1.06,1,1.79,1.09,7.21,.83,14.42,1.65,21.63,2.48,.22,.02,.44,.08,.64,.16,6.38,2.5,9.51,4.81,9.39,6.93-.24,4.12-12.78,7.51-37.61,10.17-.08,0-.39-.03-.9-.07-10.85-.84-24.46-3.37-40.89-9.52-5.17-6.05-10.34-12.11-15.52-18.16Z"/><path class="cls-17" d="M298.3,593.12c7.01,3.49,14.01,6.97,21.02,10.46,1.61,.43,2.77,1.82,2.92,3.46l1.51,17.11c.1,1.12,.68,2.15,1.59,2.82l20.39,14.99c.36,.26,.76,.47,1.19,.6l19.56,6.04c1.36,.42,2.39,1.53,2.7,2.9l1.03,4.55c.36,1.58,1.65,2.78,3.26,3.03l23.17,3.61c2.15,.34,3.63,2.32,3.32,4.45l-1.53,10.52c-.3,2.04-2.14,3.51-4.22,3.37l-94.97-6.56c-2.16-.15-3.81-1.98-3.7-4.13-1.63-16.87-2.05-36.21,.08-57.43,.69-6.89,1.6-13.5,2.68-19.79Z"/><path class="cls-3" d="M402.95,614.62c-9.04,1.61-18.08,3.23-27.12,4.84-.89,.16-1.66,.71-2.11,1.51l-8.42,14.83c-.39,.69-1.03,1.2-1.78,1.43-7.98,2.4-15.96,4.8-23.94,7.2-.33,.1-.18,.09-.82,.39-4.02,1.9-8.1,3.61-15.46,6.32-6.57,2.42-6.34,2.17-6.7,2.47-5.68,4.73-3.55,17.62-1.41,22.22,9.47,20.32,78.91,6.67,87.59,4.91,1.25-20.94,2.49-41.89,3.74-62.83,.12-2.02-1.62-3.62-3.57-3.28Z"/><path class="cls-22" d="M345.3,620.06c4.39,3.74,12.18,3.39,14.27,3.29,3.71-.17,5.7-.85,8.54,.31,2.13,.86,1.81,1.57,3.5,2.01,3.45,.9,5.43-1.87,10.52-1.67,1.31,.05,2.15,.27,3.26,.51,5.64,1.24,9.26,1.1,24.92,2.27,10.42,.78,10.99,1,12.82,.36,5.83-2.05,10.72-8.12,8.93-12.76-1.11-2.87-4.97-5.7-7.33-4.91-1.18,.4-2.2,1.84-2.17,3.2,.02,1.01,.52,1.86,.54,1.86,.04,0-.48-2.64-2.15-5.24-.93-1.44-1.3-1.46-2.38-3.08-1.3-1.96-1.77-3.46-2.08-4.18-1.43-3.33-5.94-5.3-9.2-6.66-4.96-2.07-9.87-2.07-19.71-2.07-2.5,0-5.98,.08-6.7,1.65-.63,1.38,1.18,3.23,.32,4.01-.67,.61-1.89-.41-3.12,.13-2.33,1.02-1.95,6.43-.72,7.6,.09,.08,.46,.41,.37,.68-.1,.32-.69,.25-1.03,.46-1.18,.75,1.57,4.51,.23,6.08-.16,.18-.39,.36-2.02,.72-4.96,1.1-7.79,.58-8.92,2.13-.27,.37-.05,.68-.39,.98-.8,.7-2.64,.1-3.32-.11-3.56-1.09-7.8-1.1-16.28-1.11-.82,0-2.16,.01-2.49,.65-.49,.94,1.52,2.64,1.81,2.89Z"/><path class="cls-22" d="M321.4,569.13c1.43,1.84,1.2,4.32,1.1,5.37-.18,1.9-.86,2.94-.19,3.51,.6,.51,1.48-.06,3.65-.09,2.32-.04,5.43,.42,5.82,1.62,.18,.55-.29,1.06,0,1.27,.42,.32,1.8-.52,2.06-.67,2.86-1.66,8.63,.41,12.35,1.35,8.7,2.19,15.56,.51,15.6,1.12,.03,.46-3.93,1.07-6.6,1.27-4.07,.3-6.4-1.58-8.23-.37-.94,.62-.68,1.24-1.54,2.09-1.85,1.84-5.5,1.44-8.4,1.2-11.98-1.01-17.97-1.52-21.35-.3-.74,.27-3.75,1.45-5.32,.37-.52-.36-.79-.91-1.37-.9-.85,.02-1.01,1.23-2.06,1.5-.71,.18-1.09-.27-2.66-.9-1.66-.67-3.31-1.33-4.54-.82-1,.41-.76,1.2-1.89,1.57-.64,.21-1.31,.11-2.66-.07-.92-.13-1.41-.2-1.89-.37-1.57-.58-2.28-2.03-2.61-2.71-1.21-2.48-1.26-7.7,2.35-12.55,1.09-1.46,4.68-6.27,8.57-5.83,3.62,.41,5.95,5.18,7.12,4.64,.44-.2,.06-.9,.6-1.79,.99-1.65,3.85-1.91,4.61-1.98,2.22-.2,5.75,.27,7.47,2.49Z"/><path class="cls-22" d="M415.26,565.58c-1.09,.44-2.76,2.24-3.46,1.69-.4-.31,.01-1.05-.32-1.6-.89-1.5-7.56-.75-11.05,3.29-1.71,1.97-2.3,4.38-3.5,9.21-.92,3.71-1.03,6.12-2.99,7.28-1.16,.68-2.84,.87-2.95,1.76-.08,.65,.75,1.11,.61,1.35-.23,.4-2.43-1.1-4.96-1.26-3.37-.22-7.11,1.95-7.33,4.11-.12,1.11,.69,1.71,.34,2.45-.36,.76-1.69,.59-3.97,.63-3.15,.06-5.85,.14-6.41,1.46-.37,.86,.49,1.51,.12,2.14-.7,1.18-3.75-1.05-8.13-.32-1.69,.28-1.97,.73-3.73,.81-1.99,.08-3.02-.44-4.58-.72-2.79-.5-4.83,.22-6.56,.59-4.01,.86-6.86-.04-14.79-1.01-10.12-1.24-19.02-1.41-19.07-.99-.04,.31,4.52,2.26,8.67,2.23,.54,0,1.74-.05,2.76,.77,1.12,.91,1.21,2.21,1.56,3.03,1.33,3.07,7.79,2.63,14.1,2.35,0,0,5.96-.27,13.01-.35,6.76-.08,15.4,.23,15.43,1.09,.02,.64-4.78,1.18-4.75,1.67,.06,.99,19.74-.95,27.19,1.44,.62,.2,2.76,.94,5.71,1,2.08,.04,3.39-.28,4.46-.43,5.06-.7,8.04,1.99,10.86,2.36,7.16,.95,19.77-12.52,18.66-26.6-.92-11.76-11.19-20.97-14.93-19.46Z"/></g><rect class="cls-11" x="300.45" y="552.52" width="93.37" height="119.2" transform="translate(26.28 -14.18) rotate(2.43)"/></g><g><rect class="cls-12" x="177.11" y="519.23" width="121.56" height="181.76" transform="translate(-259.6 184.29) rotate(-28.14)"/><rect class="cls-5" x="183.29" y="535.7" width="93.37" height="119.2" transform="translate(-253.55 178.8) rotate(-28.14)"/><g class="cls-7"><g><path class="cls-23" d="M303.51,623.22c-.36,18.99-15.94,37.41-35.58,37.26-20.89-.17-37.41-21.26-34.71-42.16,2.58-20.05,22.34-36.06,42.12-32.25,17.29,3.33,28.49,20.64,28.18,37.15Z"/><circle class="cls-21" cx="262.54" cy="637.6" r="7.26"/><circle class="cls-21" cx="270.75" cy="600.39" r="7.26"/><path class="cls-23" d="M241.57,625.67c1.03,3.99,2.06,7.99,3.09,11.98-3.63,3.83-11.52,11.01-23.4,13.36-13.57,2.68-30.75-1.26-32.03-8.08-1.25-6.7,12.92-15.83,24.97-18.88,11.9-3.01,22.21-.21,27.37,1.62Z"/><path class="cls-23" d="M256.99,593.29c-3.12,2.7-6.23,5.41-9.35,8.11-5.05-1.54-14.99-5.39-22.39-14.99-8.45-10.95-12.59-28.09-7.05-32.27,5.44-4.11,19.93,4.5,28.04,13.93,8,9.31,10.1,19.78,10.76,25.22Z"/><line class="cls-10" x1="267.11" y1="606.74" x2="256.84" y2="605.48"/><line class="cls-10" x1="261.98" y1="630.96" x2="251.71" y2="629.71"/><path class="cls-4" d="M271.54,619.83c-.47,1.93-2.29,3.69-3.32,3.34-1.04-.35-1.12-2.77-.93-4.15,.25-1.83,1.3-4.26,2.4-4.21,1.15,.05,2.41,2.75,1.85,5.03Z"/><path class="cls-4" d="M238.19,560.55c-2.42,.74-6.68,2.39-10.82,6.11-4.44,3.98-6.57,8.39-7.52,10.77-2.95-5.23-3.68-9.8-3.89-12.5-.29-3.76-.66-8.63,2.24-10.79,2.59-1.92,6.46-.68,9.87,.41,4.85,1.55,8.21,4.21,10.12,6Z"/><path class="cls-4" d="M204.71,627.49c-.46,2.17-1.15,6.85,.65,12.28,2.33,7.05,7.34,10.83,9.09,12.03-7.61,.86-13.19-.75-16.31-1.97-3.54-1.39-8.25-3.24-8.92-6.9-.56-3.06,1.99-5.85,4.19-8.26,3.57-3.91,7.82-6.02,11.3-7.17Z"/></g><g><path class="cls-2" d="M224.05,584.31c-1.2,18.26-16.96,31.94-33.31,33.31-22.27,1.87-43.82-19.26-40.6-41.37,2.63-18.12,21.22-32.36,40.91-30.09,18.78,2.16,34.27,18.86,33,38.16Z"/><path class="cls-24" d="M191.46,598.42c-.35,1.95-1.5,3.14-1.88,3.51-.66,.66-2.02,2.02-4.01,1.94-2.4-.1-3.76-2.22-3.99-2.59-.89-1.45-.82-2.89-.79-3.58,.03-.62,.13-2.35,1.4-3.93,.39-.48,2-2.5,4.51-2.32,2.53,.17,3.84,2.34,4.06,2.7,1.11,1.83,.8,3.69,.7,4.27Z"/><path class="cls-24" d="M197.35,570.59c-.21,.55-1.22,3.2-3.92,3.96-.42,.12-2.3,.59-4.09-.48-1.52-.91-2.03-2.37-2.31-3.15-.21-.6-.83-2.44-.03-4.54,.21-.55,.82-1.94,2.31-2.94,.36-.24,2.68-1.8,5.18-.79,2.26,.92,2.94,3.23,3.1,3.77,.58,1.98-.02,3.63-.23,4.17Z"/><line class="cls-10" x1="203.75" y1="575.08" x2="193.48" y2="573.83"/><line class="cls-10" x1="199.87" y1="593.76" x2="189.6" y2="592.5"/><path class="cls-24" d="M184.08,580.51c-.52,2.75-2.65,6.11-5.55,6.26-3.59,.19-7.43-4.57-6.35-8.82,1.05-4.11,6.4-6.53,9.5-4.78,2.44,1.38,2.84,5.01,2.4,7.34Z"/><path class="cls-2" d="M229.31,553.97c.52,6.53-7.11,12.11-13.75,12.46-5.64,.3-9.59-3.22-10.05-3.64-.62-.57-5.07-4.66-4.41-9.52,.86-6.3,9.87-10.84,17.28-9.35,4.66,.94,10.5,4.64,10.93,10.05Z"/><path class="cls-2" d="M212.22,626.96c-2.62,6.1-11.07,7.89-16.94,5.48-7.04-2.89-11.3-12.21-7.76-18.16,3.51-5.9,13.45-6.36,19.37-2.1,4.16,2.99,7.69,9.29,5.33,14.78Z"/></g></g><rect class="cls-11" x="183.29" y="535.7" width="93.37" height="119.2" transform="translate(-253.55 178.8) rotate(-28.14)"/></g></g></g></g></svg>