<?xml version="1.0" encoding="UTF-8"?><svg id="Layer_2" xmlns="http://www.w3.org/2000/svg" viewBox="0 0 360 199.17"><defs><style>.cls-1{stroke:#635654;}.cls-1,.cls-2,.cls-3,.cls-4,.cls-5,.cls-6{stroke-width:2px;}.cls-1,.cls-2,.cls-3,.cls-4,.cls-5,.cls-6,.cls-7{stroke-miterlimit:10;}.cls-1,.cls-2,.cls-8{fill:#fff3e6;}.cls-9,.cls-4{fill:#b5957f;}.cls-10{fill:#5b4e4a;}.cls-2,.cls-3,.cls-4,.cls-5,.cls-6,.cls-7{stroke:#5b4e4a;}.cls-3{fill:#ff8183;}.cls-5,.cls-7{fill:none;}.cls-6{fill:#c2d8f2;}.cls-11{fill:#9b8170;}.cls-7{stroke-linecap:round;stroke-width:5px;}.cls-12{fill:#ffc7be;}</style></defs><g id="mobile"><g id="about"><g><path class="cls-4" d="M235.16,133.78c-11.78,3.29-21.6,4.42-28.42,4.83-16.72,1-19.64-2.06-20.65-3.67-2.32-3.7-.3-8.82,.25-10.22,.93-2.38,2.96-5.85,14.61-12.81,3.78-2.26,9.01-5.15,15.55-8.04,6.22,9.97,12.44,19.94,18.66,29.92Z"/><ellipse class="cls-1" cx="269.46" cy="112.28" rx="32.1" ry="21.93"/><path class="cls-2" d="M230.65,119.95c-.8,5.46-2.31,15.66-5.58,15.98-2.58,.25-5.08-6.77-10.08-20.8-2.01-5.65-3.02-9.28-1.31-12.6,1.27-2.45,3.54-3.79,6.17-5.31,4.16-2.4,8.03-3.34,10.47-3.75,1.1,6.51,1.91,15.71,.32,26.48Z"/><path class="cls-6" d="M317.64,147.78c-32.02,.15-64.03,.29-96.05,.44,.35-9.34,1.23-17.46,2.2-24.08,1.58-10.85,3.6-19.14,4.76-23.82,.71-2.87,1.34-5.24,1.78-6.85,.85-.52,2.08-1.13,3.65-1.5,2.55-.61,4.7-.28,5.9,0,.34,2.86,.9,7.1,1.82,12.22,1.19,6.59,1.81,9.92,2.9,11.47,3.49,4.97,10.63,5.11,23.48,5.35,11.59,.22,19.07,.26,23.27-4.92,.58-.71,1.38-1.88,2.9-7.08,1.51-5.17,2.98-11.82,3.65-19.78,1.8,.42,3.6,.84,5.4,1.26,1.74,4.14,3.07,7.78,4.08,10.73,.4,1.18,1.34,3.99,2.4,7.69,.82,2.87,1.41,5.22,1.84,6.96,2.94,11.96,4.85,23.56,6.03,31.9Z"/><path class="cls-2" d="M268.18,96.74c-.29,.76-.88,1.19-1.23,1.42-10.98,7.31-20.11,7.64-20.11,7.64-3.95,.14-5.93,.21-7.72-1.07-5.04-3.63-3.1-13.1-2.95-13.78,4.54,.11,9.4,.39,14.53,.91,6.26,.63,12.07,1.54,17.37,2.57,.21,.54,.44,1.43,.11,2.31Z"/><path class="cls-2" d="M267.43,96.74c.29,.76,.88,1.19,1.23,1.42,10.98,7.31,20.11,7.64,20.11,7.64,3.95,.14,5.93,.21,7.72-1.07,5.04-3.63,3.1-13.1,2.95-13.78-4.54,.11-9.4,.39-14.53,.91-6.26,.63-12.07,1.54-17.37,2.57-.21,.54-.44,1.43-.11,2.31Z"/><path class="cls-3" d="M261.11,98.99c-6,3.27-6.95,4.71-7.14,5.44-.03,.1-.04,.18-.05,.24-.46,2.79,1.27,5.17,1.57,5.59,1.85,2.55,5.93,4.58,8.81,3.23,1.49-.69,2.28-2.68,3.87-6.66,.22-.55,1.29-3.28,1.48-6.63,.11-1.83-.09-3.27-1-3.9-.58-.4-1.62-.55-7.54,2.68Z"/><path class="cls-3" d="M279.33,102.68c2.09,2,2.55,2.82,2.67,3.33,0,0,.02,.12,.04,.24,.27,1.87-1.12,4.35-2.87,5.89-1.52,1.34-4.99,3.45-7.69,2.12-1.76-.87-2.28-3.06-3.32-7.44-1.45-6.1-.93-10.24-.04-10.66,.29-.14,.67-.17,2.34,.54,3.71,1.57,6.45,3.66,8.86,5.97Z"/><path class="cls-4" d="M326.86,23.81c.64-.78,4.82-6.07,3.07-12.58-1.69-6.29-7.94-10.1-13.73-10.22-1.03-.02-6.81-.14-10.65,4.57-1.7,2.09-2.41,4.37-2.65,6.38-7.61-5.29-21.05-12.18-38.35-10.7-11.69,1-20.82,5.43-27.21,9.75-.58-1.45-1.52-3.17-3.04-4.8-3.71-3.95-9.65-5.99-15.32-4.61-6.82,1.66-12.29,8.05-12.11,14.63,.15,5.23,3.82,8.89,5.13,10.2,2.13,2.12,4.43,3.37,6.32,4.12-6.43,9.56-12.85,23.68-7.98,37.71,2.81,8.1,8.28,12.98,11.41,15.7,12.23,10.66,26.7,11.35,45.21,11.98,19.77,.67,36.08,1.18,49.25-10.3,2.36-2.06,8.37-7.43,11.44-16.4,4.87-14.22-.5-29.15-8.32-40.52,2.31-.68,5.19-2.07,7.52-4.91Z"/><g><circle class="cls-12" cx="305.51" cy="53.2" r="8.69"/><circle class="cls-12" cx="228.97" cy="53.2" r="8.69"/><path class="cls-10" d="M244.81,42.64c.52,3.09-2.59,6.73-6.11,7.29-.2,.03-3.91,.56-5.47-1.82-1.05-1.61-.48-3.55-.32-4.07,.84-2.83,3.57-3.98,4.19-4.24,.73-.31,3.77-1.59,6,.06,.13,.1,1.43,1.09,1.72,2.79Z"/><path class="cls-10" d="M290.62,42.64c-.52,3.09,2.59,6.73,6.11,7.29,.2,.03,3.91,.56,5.47-1.82,1.05-1.61,.48-3.55,.32-4.07-.84-2.83-3.57-3.98-4.19-4.24-.73-.31-3.77-1.59-6,.06-.13,.1-1.43,1.09-1.72,2.79Z"/><path class="cls-8" d="M284.48,59.62c.12,.62,1.23,7.18-3.16,12.17-4.28,4.86-10.66,4.71-14.08,4.63-3.12-.07-10.7-.25-14.86-6.15-3.19-4.52-2.41-9.63-2.29-10.37,1.25-7.46,8.78-13.76,17.14-13.8,8.18-.04,15.83,5.93,17.24,13.51Z"/><path class="cls-10" d="M273.94,53.56c.11,.85-.52,1.58-.84,1.95-1.47,1.71-3.92,1.66-5.87,1.62-1.89-.04-4.46-.09-5.81-1.89-.28-.37-.73-.97-.64-1.68,.22-1.82,3.75-2.98,6.45-3,2.79-.03,6.46,1.12,6.7,3Z"/><line class="cls-7" x1="267.24" y1="53.9" x2="267.24" y2="59.73"/></g><path class="cls-4" d="M347.58,80.05c2.79,2.81,2.47,7.21,2.32,9.24-1.04,14.39-21.54,27.67-25.06,29.9-4.66-10-9.33-20-13.99-29.99,4.45-3.23,8.43-5.39,11.31-6.79,4.78-2.31,8.87-4.25,14.47-4.63,3.66-.25,8.12-.56,10.94,2.27Z"/><path class="cls-2" d="M323.08,99.58c6.92,12.95,8.96,16,7.39,19.18-.75,1.53-2.47,2.59-5.89,4.73-4.08,2.55-7.75,4.04-10.21,4.91-1.04-5.77-2.45-12.09-4.4-18.81-1.77-6.14-3.74-11.74-5.74-16.79,.67-1.17,1.94-3.04,4.12-4.65,1.29-.96,2.92-2.12,4.5-2.22,3.05-.19,5.25,4.35,10.22,13.65Z"/><circle class="cls-12" cx="338.54" cy="82.23" r="1.48"/><circle class="cls-12" cx="344.06" cy="83.96" r="1.48"/><circle class="cls-12" cx="345.54" cy="89.48" r="1.48"/><path class="cls-12" d="M341.41,91.3c-1.17,.71-3.22-.7-4.18-2.11-.14-.21-1.36-2.05-.68-3.04,.75-1.09,3.66-.98,4.97,.68,1.11,1.4,.99,3.8-.11,4.47Z"/></g><g><rect class="cls-9" y="159.49" width="360" height="39.68"/><rect class="cls-11" y="144.17" width="360" height="20"/></g><line class="cls-5" y1="144.17" x2="360" y2="144.17"/><line class="cls-5" y1="164.17" x2="360" y2="164.17"/></g></g></svg>