<?xml version="1.0" encoding="UTF-8"?><svg id="Layer_2" xmlns="http://www.w3.org/2000/svg" xmlns:xlink="http://www.w3.org/1999/xlink" viewBox="0 0 764.26 807.9"><defs><style>.cls-1{fill:#ffe6b3;}.cls-2{fill:#ffd9cf;}.cls-3{fill:#c7d6aa;}.cls-4{fill:#635654;}.cls-5{fill:#9dcebb;}.cls-6{clip-path:url(#clippath-2);}.cls-7{fill:#d2bd9f;}.cls-7,.cls-8,.cls-9,.cls-10,.cls-11,.cls-12,.cls-13{stroke-miterlimit:10;}.cls-7,.cls-8,.cls-10,.cls-11{stroke:#5b4e4a;}.cls-7,.cls-8,.cls-10,.cls-11,.cls-13{stroke-width:2px;}.cls-14,.cls-8{fill:#d88b7c;}.cls-9{stroke-linecap:round;stroke-width:4px;}.cls-9,.cls-10,.cls-12,.cls-15{fill:none;}.cls-9,.cls-12,.cls-13{stroke:#635654;}.cls-16{fill:#abbf95;}.cls-17{clip-path:url(#clippath-1);}.cls-18{fill:#97ab89;}.cls-11{fill:#fff6f0;}.cls-19{clip-path:url(#clippath);}.cls-20{fill:#ff9388;}.cls-12{stroke-width:.75px;}.cls-21{fill:#f9f4ef;}.cls-13{fill:#bddbef;}.cls-22{fill:#ffdb92;}.cls-23{fill:#fca4a4;}.cls-24{fill:#9da886;}</style><clipPath id="clippath"><rect class="cls-15" width="764.26" height="807.9"/></clipPath><clipPath id="clippath-1"><rect class="cls-15" x="637.83" y="586.08" width="198.22" height="253.05" transform="translate(30.9 -30.62) rotate(2.43)"/></clipPath><clipPath id="clippath-2"><rect class="cls-15" x="389.11" y="550.37" width="198.22" height="253.05" transform="translate(-261.52 310.23) rotate(-28.14)"/></clipPath></defs><g id="mobile"><g id="contact"><g class="cls-19"><g><rect class="cls-11" x="169.22" y="405.18" width="589.67" height="517.54" transform="translate(-162.74 150.81) rotate(-15.74)"/><g><line class="cls-12" x1="150.33" y1="483.53" x2="290.75" y2="981.65"/><line class="cls-12" x1="194.37" y1="471.11" x2="334.79" y2="969.23"/><line class="cls-12" x1="238.42" y1="458.7" x2="378.84" y2="956.82"/><line class="cls-12" x1="282.46" y1="446.28" x2="422.88" y2="944.4"/><line class="cls-12" x1="326.5" y1="433.86" x2="466.92" y2="931.99"/><line class="cls-12" x1="510.97" y1="919.57" x2="370.55" y2="421.45"/><line class="cls-12" x1="414.59" y1="409.03" x2="555.01" y2="907.16"/><line class="cls-12" x1="599.05" y1="894.74" x2="458.63" y2="396.62"/><line class="cls-12" x1="502.68" y1="384.2" x2="643.09" y2="882.33"/><line class="cls-12" x1="687.14" y1="869.91" x2="546.72" y2="371.79"/><line class="cls-12" x1="590.76" y1="359.37" x2="731.18" y2="857.49"/><line class="cls-12" x1="775.22" y1="845.08" x2="634.81" y2="346.96"/><line class="cls-12" x1="119.07" y1="526.82" x2="687.29" y2="366.64"/><line class="cls-12" x1="699.63" y1="410.43" x2="131.41" y2="570.6"/><line class="cls-12" x1="143.76" y1="614.39" x2="711.98" y2="454.21"/><line class="cls-12" x1="723.65" y1="498.19" x2="156.1" y2="658.18"/><line class="cls-12" x1="168.44" y1="701.96" x2="735.99" y2="541.97"/><line class="cls-12" x1="749" y1="585.57" x2="180.79" y2="745.75"/><line class="cls-12" x1="193.13" y1="789.53" x2="760.68" y2="629.54"/><line class="cls-12" x1="773.02" y1="673.33" x2="205.47" y2="833.32"/><line class="cls-12" x1="217.82" y1="877.1" x2="786.03" y2="716.92"/><line class="cls-12" x1="798.38" y1="760.71" x2="230.16" y2="920.89"/><line class="cls-12" x1="242.5" y1="964.67" x2="810.72" y2="804.5"/></g></g><g><g><rect class="cls-7" x="262.88" y="235.77" width="541.97" height="664.25" transform="translate(53.65 -46.03) rotate(5.2)"/><rect class="cls-8" x="263.87" y="213.98" width="60.96" height="664.25" transform="translate(50.69 -24.42) rotate(5.2)"/></g><g><path class="cls-14" d="M744.48,474.4c-3.97,38.23-61.21,66.84-91.52,48.78-30.39-18.11-33.25-82.83-.29-104.31,19.02-12.4,46.89-8.39,65.76,5.23,14.24,10.29,28.21,29.56,26.05,50.3Z"/><path class="cls-1" d="M715.85,458.61c-.88,2.29-3.49,4.47-5.98,3.74-1.9-.56-3.13-2.63-3.11-4.43,.04-3.7,5.4-6.76,7.85-5.39,1.65,.93,2.07,3.91,1.24,6.08Z"/><g><ellipse class="cls-24" cx="711.69" cy="418.2" rx="8.95" ry="17.54" transform="translate(-86.55 207.93) rotate(-15.68)"/><ellipse class="cls-24" cx="724.45" cy="420.6" rx="18.26" ry="8.6" transform="translate(-73.08 676.88) rotate(-47.95)"/><ellipse class="cls-24" cx="728.69" cy="430.15" rx="19.57" ry="8.02" transform="translate(-21.38 38.48) rotate(-2.98)"/><ellipse class="cls-24" cx="717.32" cy="434.16" rx="8.82" ry="17.8" transform="translate(-119.55 382.28) rotate(-27.64)"/><ellipse class="cls-24" cx="709.26" cy="428.89" rx="19.54" ry="8.04" transform="translate(-44.71 84.62) rotate(-6.62)"/></g><path class="cls-1" d="M675.92,438.75c-.4,3.89-7.04,6.33-9.2,4.55-1.42-1.17-1.03-4.23,0-6.16,.84-1.58,3.02-4.09,5.66-3.49,2.28,.52,3.75,3.08,3.54,5.11Z"/><path class="cls-1" d="M685.97,465.07c-.96,3.19-5.67,4.88-7.29,3.55-1.17-.97-.78-3.59,.19-5.23,1.26-2.14,4.21-3.84,5.96-2.77,1.31,.8,1.59,2.95,1.14,4.45Z"/><path class="cls-1" d="M651.96,460.67c-.51,3.33-4.51,5.89-6.73,4.86-1.92-.89-2.4-4.43-1.38-6.91,.73-1.77,2.7-4.15,4.93-3.74,2.27,.41,3.53,3.48,3.18,5.79Z"/><path class="cls-1" d="M704.45,496.78c-.8,3.14-5.03,5.18-7.09,3.87-1.39-.89-1.63-3.23-1.12-4.86,.91-2.9,4.61-4.95,6.73-3.74,1.46,.84,1.91,3.08,1.49,4.73Z"/><path class="cls-1" d="M672.62,498.76c-1.01,2.76-4.81,4.13-6.64,2.82-1.51-1.07-1.4-3.74-.75-5.42,.7-1.81,2.61-3.97,4.61-3.61,2.2,.4,3.7,3.7,2.78,6.2Z"/><path class="cls-1" d="M721.02,477.38c-.7,2.21-3.63,3.68-5.17,2.71-1.15-.73-1.36-2.72-.77-4.12,.83-1.98,3.48-3.27,4.99-2.31,1.12,.71,1.34,2.48,.95,3.72Z"/></g><g><path class="cls-14" d="M553.83,319.62c32.4,20.68,32.34,84.67,2.61,103.68-29.8,19.06-88.94-7.38-93.39-46.47-2.56-22.56,13.5-45.68,34.14-56.45,15.58-8.13,39.06-11.98,56.64-.76Z"/><g><ellipse class="cls-18" cx="482.15" cy="324.59" rx="9.77" ry="26.56" transform="translate(92.4 755.77) rotate(-81.84)"/><ellipse class="cls-24" cx="493.7" cy="313.53" rx="11.85" ry="21.9" transform="translate(-89.87 352.09) rotate(-36.2)"/><ellipse class="cls-24" cx="509.55" cy="314.34" rx="22.57" ry="11.5" transform="translate(-38.19 556.06) rotate(-55.48)"/><ellipse class="cls-24" cx="507.69" cy="327.35" rx="9.62" ry="26.98" transform="translate(173.35 830.46) rotate(-89.21)"/><ellipse class="cls-24" cx="495.25" cy="332.42" rx="22.14" ry="11.73" transform="translate(-37.98 599.7) rotate(-60.49)"/></g><circle class="cls-1" cx="487.65" cy="369.44" r="5.82"/><path class="cls-1" d="M517.99,359.53c2.32,1.69,3.18,5.45,1.87,6.73-1.42,1.38-5.73,.18-7.1-2.62-.65-1.33-.91-3.58,.39-4.67,1.38-1.15,3.66-.3,4.84,.56Z"/><circle class="cls-1" cx="504.63" cy="395.85" r="4.97"/><path class="cls-1" d="M554.78,370.04c2.11,1.74,2.34,5.44,.82,6.62-1.54,1.19-4.72-.33-6.24-2.32-.18-.23-1.86-2.44-1.04-3.99,.9-1.67,4.43-1.98,6.45-.31Z"/><path class="cls-1" d="M551.97,394.38c2.45,1.46,4.22,4.72,3.33,5.92-1.07,1.43-6.47,.51-7.82-2.55-.54-1.23-.59-3.18,.5-3.99,1.32-.97,3.51,.34,3.99,.62Z"/><path class="cls-1" d="M547.62,343.01c2.14,1.55,3.08,4.93,1.87,6.16-1.12,1.14-3.99,.35-5.64-1.12-1.52-1.35-2.79-3.97-1.77-5.32,1-1.32,3.84-.96,5.53,.27Z"/><path class="cls-1" d="M528.11,387.5c2.43,1.44,3.95,4.77,2.99,6.1-1.26,1.73-7.32,.88-8.73-2.38-.52-1.19-.53-3,.5-3.99,1.38-1.33,3.94-.51,5.24,.26Z"/></g></g><g><rect class="cls-11" x="606.4" y="555.32" width="258.07" height="385.87" transform="translate(32.41 -30.53) rotate(2.43)"/><g class="cls-17"><rect class="cls-13" x="637.83" y="586.08" width="198.22" height="253.05" transform="translate(30.9 -30.62) rotate(2.43)"/><path class="cls-24" d="M641.04,746.39c33.79-6.92,67.57-13.84,101.36-20.76,2.35-1.04,5.11-.25,6.55,1.88,7.53,11.2,15.07,22.39,22.6,33.59,.87,1.29,2.25,2.13,3.79,2.31,15.3,1.75,30.61,3.5,45.91,5.26,.46,.05,.92,.17,1.36,.34,13.55,5.31,20.19,10.22,19.93,14.72-.52,8.74-27.14,15.93-79.85,21.58-.16,.02-.82-.06-1.91-.14-23.03-1.79-51.93-7.16-86.8-20.21-10.98-12.85-21.96-25.7-32.94-38.56Z"/><path class="cls-16" d="M633.29,672.28c14.87,7.4,29.75,14.8,44.62,22.2,3.41,.92,5.89,3.85,6.19,7.34l3.2,36.32c.21,2.38,1.44,4.56,3.38,5.99l43.28,31.82c.76,.56,1.62,.99,2.52,1.27l41.52,12.81c2.89,.89,5.07,3.24,5.73,6.16l2.19,9.67c.76,3.35,3.51,5.9,6.93,6.44l49.19,7.67c4.57,.71,7.71,4.93,7.05,9.46l-3.25,22.33c-.63,4.34-4.54,7.46-8.95,7.15l-201.61-13.94c-4.59-.32-8.08-4.21-7.85-8.76-3.46-35.8-4.34-76.88,.18-121.93,1.47-14.64,3.41-28.65,5.68-42.01Z"/><path class="cls-3" d="M855.44,717.92c-19.19,3.43-38.38,6.85-57.57,10.28-1.88,.34-3.52,1.51-4.48,3.2l-17.87,31.48c-.83,1.47-2.18,2.55-3.77,3.03-16.94,5.1-33.89,10.19-50.83,15.29-.71,.21-.39,.19-1.75,.83-8.54,4.04-17.2,7.66-32.82,13.41-13.95,5.14-13.47,4.61-14.22,5.24-12.05,10.04-7.54,37.4-2.99,47.17,20.1,43.14,167.52,14.17,185.95,10.42,2.65-44.46,5.29-88.93,7.94-133.39,.26-4.28-3.45-7.69-7.57-6.95Z"/><path class="cls-21" d="M733.06,729.47c9.33,7.93,25.86,7.19,30.29,6.99,7.89-.35,12.1-1.8,18.13,.65,4.52,1.83,3.84,3.33,7.43,4.27,7.32,1.91,11.52-3.97,22.33-3.55,2.79,.11,4.57,.58,6.92,1.09,11.97,2.64,19.66,2.33,52.91,4.81,22.11,1.65,23.34,2.13,27.22,.76,12.37-4.36,22.75-17.24,18.96-27.09-2.35-6.1-10.54-12.1-15.57-10.42-2.51,.84-4.67,3.91-4.62,6.79,.04,2.14,1.1,3.95,1.15,3.94,.08-.02-1.02-5.6-4.57-11.12-1.97-3.06-2.76-3.1-5.04-6.55-2.76-4.17-3.76-7.35-4.42-8.88-3.04-7.08-12.61-11.25-19.54-14.14-10.52-4.39-20.96-4.39-41.84-4.39-5.32,0-12.7,.17-14.22,3.51-1.34,2.93,2.51,6.86,.68,8.51-1.42,1.28-4.02-.86-6.63,.28-4.95,2.17-4.15,13.64-1.53,16.13,.19,.18,.97,.86,.78,1.45-.21,.68-1.47,.53-2.18,.98-2.51,1.6,3.34,9.57,.49,12.91-.33,.39-.82,.76-4.29,1.53-10.54,2.34-16.53,1.23-18.94,4.53-.57,.79-.11,1.45-.83,2.08-1.69,1.48-5.61,.21-7.05-.23-7.56-2.31-16.56-2.32-34.57-2.36-1.74,0-4.58,.02-5.28,1.38-1.03,1.99,3.23,5.61,3.84,6.14Z"/><path class="cls-21" d="M682.32,621.35c3.03,3.9,2.54,9.18,2.33,11.39-.38,4.03-1.82,6.23-.4,7.45,1.26,1.08,3.14-.12,7.76-.19,4.93-.08,11.52,.9,12.35,3.44,.39,1.18-.61,2.24,0,2.7,.9,.68,3.82-1.11,4.37-1.43,6.08-3.52,18.33,.87,26.21,2.86,18.48,4.65,33.04,1.09,33.13,2.38,.07,.98-8.34,2.28-14.02,2.7-8.64,.65-13.59-3.36-17.47-.79-1.99,1.31-1.45,2.63-3.28,4.44-3.92,3.91-11.67,3.06-17.84,2.54-25.44-2.15-38.16-3.22-45.32-.63-1.56,.56-7.96,3.07-11.29,.79-1.11-.76-1.69-1.93-2.91-1.9-1.81,.03-2.14,2.62-4.37,3.17-1.51,.38-2.32-.57-5.64-1.9-3.52-1.42-7.03-2.83-9.65-1.75-2.13,.88-1.62,2.56-4,3.33-1.36,.44-2.79,.24-5.64-.16-1.96-.27-2.99-.42-4-.79-3.34-1.23-4.84-4.32-5.54-5.75-2.56-5.26-2.68-16.35,5-26.64,2.31-3.1,9.93-13.31,18.2-12.38,7.68,.87,12.63,10.99,15.11,9.84,.93-.43,.14-1.91,1.27-3.81,2.11-3.51,8.18-4.06,9.78-4.2,4.71-.43,12.2,.57,15.86,5.29Z"/><path class="cls-21" d="M881.59,613.81c-2.31,.93-5.86,4.75-7.34,3.59-.84-.66,.02-2.22-.67-3.4-1.88-3.18-16.06-1.59-23.46,6.98-3.62,4.19-4.89,9.31-7.42,19.54-1.95,7.88-2.18,13-6.36,15.46-2.45,1.45-6.03,1.84-6.25,3.73-.16,1.37,1.59,2.36,1.29,2.87-.5,.85-5.16-2.33-10.53-2.67-7.16-.46-15.09,4.14-15.57,8.72-.25,2.36,1.46,3.63,.72,5.21-.76,1.61-3.59,1.25-8.43,1.35-6.68,.13-12.42,.31-13.61,3.1-.78,1.83,1.04,3.22,.25,4.55-1.48,2.5-7.96-2.22-17.26-.67-3.58,.6-4.19,1.56-7.93,1.71-4.22,.17-6.4-.94-9.72-1.53-5.93-1.06-10.25,.47-13.93,1.26-8.51,1.82-14.57-.09-31.39-2.15-21.49-2.63-40.38-2.99-40.49-2.09-.08,.66,9.59,4.8,18.4,4.73,1.15,0,3.69-.1,5.85,1.64,2.38,1.93,2.56,4.69,3.32,6.44,2.82,6.53,16.53,5.58,29.94,4.98,0,0,12.66-.56,27.63-.73,14.35-.16,32.7,.5,32.75,2.32,.04,1.36-10.15,2.51-10.08,3.55,.13,2.1,41.9-2.02,57.71,3.06,1.32,.43,5.86,2.01,12.12,2.13,4.43,.09,7.2-.6,9.48-.91,10.74-1.48,17.07,4.22,23.05,5.01,15.2,2.01,41.96-26.58,39.62-56.46-1.96-24.97-23.75-44.52-31.69-41.32Z"/></g><rect class="cls-10" x="637.83" y="586.08" width="198.22" height="253.05" transform="translate(30.9 -30.62) rotate(2.43)"/></g><g><rect class="cls-11" x="376.01" y="515.42" width="258.07" height="385.87" transform="translate(-274.37 321.88) rotate(-28.14)"/><rect class="cls-5" x="389.11" y="550.37" width="198.22" height="253.05" transform="translate(-261.52 310.23) rotate(-28.14)"/><g class="cls-6"><g><path class="cls-22" d="M644.34,736.18c-.76,40.32-33.83,79.43-75.54,79.1-44.34-.35-79.41-45.13-73.7-89.51,5.48-42.56,47.42-76.56,89.42-68.46,36.71,7.08,60.48,43.81,59.82,78.87Z"/><circle class="cls-20" cx="557.36" cy="766.7" r="15.42"/><circle class="cls-20" cx="574.79" cy="687.72" r="15.42"/><path class="cls-22" d="M512.83,741.38c2.19,8.48,4.37,16.96,6.56,25.44-7.71,8.14-24.45,23.37-49.69,28.35-28.81,5.68-65.29-2.68-67.99-17.16-2.66-14.23,27.44-33.61,53.02-40.08,25.26-6.39,47.14-.45,58.1,3.44Z"/><path class="cls-22" d="M545.59,672.65c-6.61,5.74-13.23,11.48-19.84,17.22-10.72-3.27-31.83-11.45-47.54-31.82-17.94-23.25-26.73-59.62-14.97-68.5,11.55-8.73,42.32,9.56,59.52,29.57,16.99,19.76,21.43,41.99,22.83,53.53Z"/><line class="cls-9" x1="567.07" y1="701.19" x2="545.27" y2="698.53"/><line class="cls-9" x1="556.17" y1="752.62" x2="534.37" y2="749.95"/><path class="cls-4" d="M576.47,728.99c-1,4.09-4.85,7.83-7.05,7.09-2.21-.74-2.38-5.88-1.98-8.82,.53-3.88,2.75-9.04,5.1-8.95,2.43,.1,5.11,5.85,3.93,10.67Z"/><path class="cls-4" d="M505.67,603.15c-5.13,1.57-14.17,5.08-22.97,12.98-9.42,8.46-13.94,17.8-15.96,22.86-6.25-11.1-7.82-20.81-8.26-26.54-.61-7.99-1.41-18.33,4.76-22.9,5.5-4.08,13.72-1.45,20.95,.87,10.3,3.3,17.43,8.94,21.48,12.73Z"/><path class="cls-4" d="M434.59,745.25c-.98,4.6-2.43,14.54,1.38,26.07,4.95,14.96,15.59,22.99,19.29,25.54-16.15,1.83-28-1.59-34.61-4.19-7.52-2.95-17.52-6.87-18.93-14.66-1.18-6.5,4.22-12.43,8.89-17.54,7.57-8.3,16.61-12.77,23.98-15.21Z"/></g><g><path class="cls-2" d="M475.65,653.58c-2.55,38.77-36.01,67.8-70.71,70.71-47.27,3.96-93.02-40.88-86.2-87.83,5.58-38.46,45.05-68.7,86.85-63.89,39.88,4.59,72.76,40.05,70.07,81Z"/><path class="cls-23" d="M406.46,683.53c-.75,4.14-3.19,6.66-4,7.46-1.4,1.4-4.29,4.3-8.52,4.11-5.09-.22-7.98-4.72-8.46-5.51-1.89-3.08-1.74-6.14-1.68-7.59,.06-1.32,.28-4.99,2.98-8.34,.82-1.02,4.25-5.3,9.58-4.94,5.36,.36,8.15,4.97,8.62,5.74,2.35,3.89,1.7,7.83,1.48,9.06Z"/><path class="cls-23" d="M418.96,624.46c-.44,1.16-2.58,6.79-8.33,8.42-.89,.25-4.88,1.26-8.69-1.02-3.22-1.93-4.31-5.03-4.9-6.69-.45-1.27-1.77-5.18-.07-9.64,.44-1.17,1.75-4.11,4.9-6.23,.76-.51,5.68-3.83,11-1.67,4.8,1.95,6.24,6.86,6.57,8,1.23,4.2-.05,7.71-.48,8.85Z"/><line class="cls-9" x1="432.55" y1="633.99" x2="410.75" y2="631.32"/><line class="cls-9" x1="424.3" y1="673.64" x2="402.51" y2="670.97"/><path class="cls-23" d="M390.8,645.51c-1.1,5.85-5.63,12.96-11.79,13.29-7.63,.4-15.78-9.71-13.48-18.72,2.23-8.72,13.6-13.87,20.17-10.14,5.19,2.94,6.03,10.63,5.1,15.57Z"/><path class="cls-2" d="M486.82,589.17c1.11,13.87-15.08,25.71-29.2,26.45-11.97,.63-20.35-6.83-21.34-7.74-1.32-1.21-10.76-9.89-9.36-20.21,1.82-13.38,20.96-23.02,36.69-19.84,9.89,2,22.29,9.85,23.21,21.34Z"/><path class="cls-2" d="M450.53,744.12c-5.56,12.95-23.51,16.74-35.96,11.63-14.94-6.13-23.98-25.93-16.47-38.56,7.46-12.54,28.55-13.5,41.11-4.45,8.83,6.36,16.32,19.73,11.32,31.38Z"/></g></g><rect class="cls-10" x="389.11" y="550.37" width="198.22" height="253.05" transform="translate(-261.52 310.23) rotate(-28.14)"/></g></g></g></g></svg>