<?xml version="1.0" encoding="UTF-8"?><svg id="Layer_2" xmlns="http://www.w3.org/2000/svg" viewBox="0 0 360 244.84"><defs><style>.cls-1{stroke:#635654;}.cls-1,.cls-2,.cls-3,.cls-4,.cls-5,.cls-6{stroke-width:2px;}.cls-1,.cls-2,.cls-3,.cls-4,.cls-5,.cls-6,.cls-7{stroke-miterlimit:10;}.cls-1,.cls-2,.cls-8{fill:#fff3e6;}.cls-9,.cls-4{fill:#b5957f;}.cls-10{fill:#5b4e4a;}.cls-2,.cls-3,.cls-4,.cls-5,.cls-6,.cls-7{stroke:#5b4e4a;}.cls-3{fill:#ff8183;}.cls-5,.cls-7{fill:none;}.cls-6{fill:#c2d8f2;}.cls-11{fill:#9b8170;}.cls-7{stroke-linecap:round;stroke-width:5px;}.cls-12{fill:#ffc7be;}</style></defs><g id="mobile"><g id="about"><g><path class="cls-4" d="M228.39,141.61c-12.47,3.49-22.87,4.68-30.09,5.11-17.71,1.06-20.79-2.18-21.87-3.89-2.46-3.92-.32-9.34,.27-10.82,.99-2.52,3.13-6.19,15.47-13.56,4-2.39,9.54-5.45,16.46-8.52,6.59,10.56,13.17,21.12,19.76,31.68Z"/><ellipse class="cls-1" cx="264.71" cy="118.84" rx="34" ry="23.22"/><path class="cls-2" d="M223.62,126.96c-.85,5.78-2.44,16.58-5.9,16.92-2.73,.27-5.38-7.17-10.67-22.03-2.13-5.98-3.2-9.83-1.39-13.34,1.34-2.6,3.75-4.01,6.54-5.62,4.41-2.55,8.5-3.54,11.09-3.97,1.16,6.89,2.02,16.64,.34,28.05Z"/><path class="cls-6" d="M315.73,156.43c-33.9,.15-67.81,.31-101.71,.46,.37-9.89,1.31-18.48,2.33-25.5,1.68-11.49,3.81-20.27,5.04-25.22,.75-3.04,1.42-5.55,1.89-7.25,.9-.55,2.2-1.19,3.86-1.59,2.7-.64,4.98-.3,6.24,0,.36,3.02,.95,7.52,1.93,12.94,1.26,6.98,1.91,10.51,3.07,12.15,3.7,5.26,11.25,5.41,24.87,5.67,12.27,.23,20.2,.27,24.64-5.21,.61-.75,1.46-1.99,3.07-7.49,1.6-5.48,3.16-12.51,3.87-20.95,1.91,.45,3.81,.89,5.72,1.34,1.84,4.38,3.25,8.24,4.32,11.37,.42,1.24,1.42,4.22,2.54,8.14,.87,3.04,1.5,5.52,1.95,7.37,3.12,12.67,5.14,24.95,6.39,33.78Z"/><path class="cls-2" d="M263.36,102.38c-.31,.8-.93,1.26-1.3,1.5-11.63,7.74-21.29,8.09-21.29,8.09-4.19,.15-6.28,.23-8.18-1.14-5.34-3.84-3.28-13.88-3.12-14.59,4.81,.12,9.95,.42,15.39,.97,6.63,.67,12.78,1.63,18.39,2.73,.22,.57,.47,1.51,.11,2.44Z"/><path class="cls-2" d="M262.57,102.38c.31,.8,.93,1.26,1.3,1.5,11.63,7.74,21.29,8.09,21.29,8.09,4.19,.15,6.28,.23,8.18-1.14,5.34-3.84,3.28-13.88,3.12-14.59-4.81,.12-9.95,.42-15.39,.97-6.63,.67-12.78,1.63-18.39,2.73-.22,.57-.47,1.51-.11,2.44Z"/><path class="cls-3" d="M255.87,104.76c-6.35,3.47-7.36,4.99-7.56,5.76-.03,.1-.04,.19-.05,.25-.49,2.95,1.34,5.47,1.66,5.91,1.96,2.7,6.28,4.85,9.33,3.42,1.57-.73,2.41-2.84,4.09-7.05,.23-.59,1.36-3.47,1.57-7.02,.11-1.94-.1-3.46-1.06-4.13-.61-.42-1.72-.58-7.99,2.84Z"/><path class="cls-3" d="M275.17,108.67c2.22,2.12,2.7,2.99,2.83,3.53,0,0,.03,.13,.04,.26,.28,1.98-1.18,4.61-3.04,6.24-1.61,1.42-5.28,3.65-8.15,2.24-1.86-.92-2.41-3.24-3.52-7.88-1.54-6.46-.99-10.84-.04-11.28,.31-.14,.71-.18,2.48,.57,3.93,1.66,6.83,3.88,9.39,6.32Z"/><path class="cls-4" d="M325.5,25.15c.68-.83,5.1-6.43,3.25-13.32-1.79-6.66-8.41-10.7-14.53-10.82-1.09-.02-7.21-.15-11.28,4.84-1.8,2.21-2.56,4.63-2.8,6.76-8.06-5.6-22.29-12.89-40.61-11.33-12.38,1.06-22.05,5.75-28.82,10.33-.62-1.53-1.61-3.36-3.22-5.08-3.92-4.19-10.22-6.34-16.22-4.88-7.22,1.76-13.01,8.53-12.82,15.49,.16,5.54,4.04,9.41,5.43,10.8,2.25,2.25,4.69,3.57,6.69,4.37-6.8,10.12-13.61,25.08-8.45,39.93,2.98,8.57,8.77,13.74,12.08,16.63,12.95,11.29,28.27,12.02,47.88,12.68,20.94,.71,38.21,1.24,52.15-10.91,2.5-2.18,8.87-7.87,12.12-17.37,5.16-15.06-.53-30.87-8.81-42.91,2.44-.72,5.5-2.19,7.96-5.2Z"/><g><circle class="cls-12" cx="302.89" cy="56.27" r="9.2"/><circle class="cls-12" cx="221.84" cy="56.27" r="9.2"/><path class="cls-10" d="M238.61,45.09c.56,3.28-2.74,7.13-6.47,7.72-.21,.03-4.14,.6-5.79-1.93-1.12-1.7-.51-3.75-.34-4.31,.89-3,3.78-4.22,4.44-4.49,.78-.33,3.99-1.68,6.35,.07,.14,.11,1.51,1.15,1.82,2.95Z"/><path class="cls-10" d="M287.12,45.09c-.56,3.28,2.74,7.13,6.47,7.72,.21,.03,4.14,.6,5.79-1.93,1.12-1.7,.51-3.75,.34-4.31-.89-3-3.78-4.22-4.44-4.49-.78-.33-3.99-1.68-6.35,.07-.14,.11-1.51,1.15-1.82,2.95Z"/><path class="cls-8" d="M280.62,63.07c.12,.66,1.3,7.6-3.35,12.89-4.53,5.14-11.29,4.98-14.91,4.9-3.31-.08-11.33-.26-15.73-6.51-3.37-4.79-2.55-10.2-2.42-10.98,1.32-7.9,9.3-14.57,18.15-14.61,8.66-.04,16.76,6.28,18.26,14.31Z"/><path class="cls-10" d="M269.46,56.66c.12,.9-.55,1.67-.89,2.07-1.55,1.81-4.15,1.75-6.21,1.71-2-.04-4.72-.1-6.15-2-.3-.39-.77-1.02-.68-1.78,.23-1.93,3.97-3.15,6.83-3.18,2.95-.03,6.84,1.19,7.1,3.18Z"/><line class="cls-7" x1="262.36" y1="57.01" x2="262.36" y2="63.19"/></g><path class="cls-4" d="M347.44,84.71c2.95,2.97,2.62,7.63,2.46,9.78-1.1,15.24-22.8,29.3-26.53,31.66-4.94-10.59-9.88-21.17-14.81-31.76,4.71-3.42,8.92-5.71,11.97-7.19,5.06-2.45,9.39-4.5,15.33-4.91,3.88-.27,8.6-.59,11.58,2.41Z"/><path class="cls-2" d="M321.5,105.38c7.33,13.71,9.49,16.94,7.83,20.31-.8,1.62-2.61,2.75-6.24,5.01-4.32,2.7-8.21,4.28-10.81,5.2-1.1-6.11-2.6-12.8-4.66-19.92-1.88-6.5-3.96-12.43-6.08-17.78,.71-1.24,2.05-3.22,4.36-4.93,1.37-1.02,3.09-2.24,4.77-2.35,3.23-.2,5.56,4.61,10.82,14.46Z"/><circle class="cls-12" cx="337.86" cy="87.01" r="1.57"/><circle class="cls-12" cx="343.71" cy="88.85" r="1.57"/><circle class="cls-12" cx="345.28" cy="94.69" r="1.57"/><path class="cls-12" d="M340.91,96.62c-1.24,.75-3.41-.74-4.43-2.23-.15-.23-1.44-2.17-.72-3.22,.79-1.15,3.87-1.04,5.26,.72,1.17,1.49,1.05,4.03-.11,4.73Z"/></g><g><rect class="cls-9" y="181.35" width="360" height="63.49"/><rect class="cls-11" y="156.84" width="360" height="24.51"/></g><line class="cls-5" y1="156.84" x2="360" y2="156.84"/><line class="cls-5" y1="181.35" x2="360" y2="181.35"/></g></g></svg>