<?xml version="1.0" encoding="UTF-8"?><svg id="Layer_2" xmlns="http://www.w3.org/2000/svg" xmlns:xlink="http://www.w3.org/1999/xlink" viewBox="0 0 611.41 646.32"><defs><style>.cls-1{fill:#ffe6b3;}.cls-2{fill:#ffd9cf;}.cls-3{fill:#c7d6aa;}.cls-4{fill:#635654;}.cls-5{fill:#9dcebb;}.cls-6{clip-path:url(#clippath-2);}.cls-7{fill:#d2bd9f;}.cls-7,.cls-8,.cls-9,.cls-10,.cls-11,.cls-12,.cls-13{stroke-miterlimit:10;}.cls-7,.cls-8,.cls-10,.cls-11{stroke:#5b4e4a;}.cls-7,.cls-8,.cls-10,.cls-11,.cls-13{stroke-width:2px;}.cls-14,.cls-8{fill:#d88b7c;}.cls-9{stroke-linecap:round;stroke-width:4px;}.cls-9,.cls-10,.cls-12,.cls-15{fill:none;}.cls-9,.cls-12,.cls-13{stroke:#635654;}.cls-16{fill:#abbf95;}.cls-17{clip-path:url(#clippath-1);}.cls-18{fill:#97ab89;}.cls-11{fill:#fff6f0;}.cls-19{clip-path:url(#clippath);}.cls-20{fill:#ff9388;}.cls-12{stroke-width:.75px;}.cls-21{fill:#f9f4ef;}.cls-13{fill:#bddbef;}.cls-22{fill:#ffdb92;}.cls-23{fill:#fca4a4;}.cls-24{fill:#9da886;}</style><clipPath id="clippath"><rect class="cls-15" width="611.41" height="646.32"/></clipPath><clipPath id="clippath-1"><rect class="cls-15" x="508.67" y="455.27" width="158.58" height="202.44" transform="translate(24.14 -24.44) rotate(2.43)"/></clipPath><clipPath id="clippath-2"><rect class="cls-15" x="309.69" y="426.7" width="158.58" height="202.44" transform="translate(-202.99 245.82) rotate(-28.14)"/></clipPath></defs><g id="mobile"><g id="contact"><g class="cls-19"><g><rect class="cls-11" x="104.97" y="325.74" width="471.73" height="414.03" transform="translate(-131.76 112.46) rotate(-15.74)"/><g><line class="cls-12" x1="89.86" y1="388.42" x2="202.2" y2="786.92"/><line class="cls-12" x1="125.1" y1="378.49" x2="237.43" y2="776.99"/><line class="cls-12" x1="160.33" y1="368.56" x2="272.67" y2="767.06"/><line class="cls-12" x1="195.57" y1="358.62" x2="307.9" y2="757.12"/><line class="cls-12" x1="230.8" y1="348.69" x2="343.14" y2="747.19"/><line class="cls-12" x1="378.37" y1="737.26" x2="266.04" y2="338.76"/><line class="cls-12" x1="301.27" y1="328.83" x2="413.61" y2="727.33"/><line class="cls-12" x1="448.84" y1="717.39" x2="336.51" y2="318.89"/><line class="cls-12" x1="371.74" y1="308.96" x2="484.08" y2="707.46"/><line class="cls-12" x1="519.31" y1="697.53" x2="406.98" y2="299.03"/><line class="cls-12" x1="442.21" y1="289.1" x2="554.54" y2="687.6"/><line class="cls-12" x1="589.78" y1="677.66" x2="477.44" y2="279.16"/><line class="cls-12" x1="64.86" y1="423.05" x2="519.43" y2="294.91"/><line class="cls-12" x1="529.31" y1="329.94" x2="74.73" y2="458.08"/><line class="cls-12" x1="84.61" y1="493.11" x2="539.18" y2="364.97"/><line class="cls-12" x1="548.52" y1="400.15" x2="94.48" y2="528.14"/><line class="cls-12" x1="104.35" y1="563.17" x2="558.39" y2="435.18"/><line class="cls-12" x1="568.8" y1="470.05" x2="114.23" y2="598.2"/><line class="cls-12" x1="124.1" y1="633.23" x2="578.14" y2="505.23"/><line class="cls-12" x1="588.02" y1="540.26" x2="133.98" y2="668.25"/><line class="cls-12" x1="143.85" y1="703.28" x2="598.43" y2="575.14"/><line class="cls-12" x1="608.3" y1="610.17" x2="153.73" y2="738.31"/><line class="cls-12" x1="163.6" y1="773.34" x2="618.18" y2="645.2"/></g></g><g><g><rect class="cls-7" x="199.1" y="154.22" width="433.58" height="531.4" transform="translate(39.76 -35.95) rotate(5.2)"/><rect class="cls-8" x="199.89" y="136.79" width="48.76" height="531.4" transform="translate(37.39 -18.66) rotate(5.2)"/></g><g><path class="cls-14" d="M584.38,345.12c-3.18,30.58-48.97,53.47-73.22,39.03-24.31-14.48-26.6-66.26-.23-83.45,15.22-9.92,37.51-6.71,52.61,4.18,11.4,8.23,22.57,23.65,20.84,40.24Z"/><path class="cls-1" d="M561.48,332.49c-.71,1.83-2.79,3.58-4.78,2.99-1.52-.45-2.5-2.11-2.49-3.54,.03-2.96,4.32-5.41,6.28-4.31,1.32,.74,1.66,3.13,.99,4.86Z"/><g><ellipse class="cls-24" cx="558.15" cy="300.16" rx="7.16" ry="14.03" transform="translate(-60.36 162.04) rotate(-15.68)"/><ellipse class="cls-24" cx="568.36" cy="302.08" rx="14.61" ry="6.88" transform="translate(-36.62 521.82) rotate(-47.95)"/><ellipse class="cls-24" cx="571.75" cy="309.72" rx="15.65" ry="6.42" transform="translate(-15.33 30.15) rotate(-2.98)"/><ellipse class="cls-24" cx="562.66" cy="312.93" rx="7.06" ry="14.24" transform="translate(-80.96 296.7) rotate(-27.64)"/><ellipse class="cls-24" cx="556.21" cy="308.71" rx="15.63" ry="6.43" transform="translate(-31.88 66.18) rotate(-6.62)"/></g><path class="cls-1" d="M529.54,316.6c-.32,3.11-5.63,5.06-7.36,3.64-1.13-.93-.83-3.39,0-4.93,.67-1.26,2.42-3.27,4.53-2.79,1.82,.41,3,2.47,2.83,4.09Z"/><path class="cls-1" d="M537.57,337.65c-.77,2.56-4.54,3.9-5.83,2.84-.94-.77-.63-2.87,.15-4.18,1.01-1.71,3.37-3.07,4.77-2.21,1.05,.64,1.27,2.36,.91,3.56Z"/><path class="cls-1" d="M510.37,334.13c-.41,2.67-3.61,4.71-5.38,3.89-1.53-.71-1.92-3.54-1.11-5.53,.58-1.42,2.16-3.32,3.95-2.99,1.81,.33,2.83,2.78,2.54,4.63Z"/><path class="cls-1" d="M552.36,363.02c-.64,2.51-4.03,4.15-5.67,3.09-1.11-.71-1.3-2.58-.9-3.89,.73-2.32,3.69-3.96,5.38-2.99,1.17,.67,1.52,2.47,1.19,3.78Z"/><path class="cls-1" d="M526.89,364.61c-.81,2.21-3.85,3.3-5.31,2.25-1.21-.86-1.12-3-.6-4.33,.56-1.45,2.09-3.17,3.69-2.88,1.76,.32,2.96,2.96,2.22,4.96Z"/><path class="cls-1" d="M565.62,347.51c-.56,1.77-2.91,2.95-4.14,2.17-.92-.58-1.08-2.18-.62-3.29,.66-1.58,2.78-2.61,3.99-1.85,.89,.57,1.08,1.98,.76,2.98Z"/></g><g><path class="cls-14" d="M431.87,221.3c25.92,16.54,25.87,67.73,2.09,82.94-23.84,15.25-71.15-5.9-74.71-37.18-2.05-18.05,10.8-36.55,27.31-45.16,12.46-6.5,31.25-9.58,45.31-.61Z"/><g><ellipse class="cls-18" cx="374.52" cy="225.27" rx="7.82" ry="21.25" transform="translate(98.36 564.02) rotate(-81.84)"/><ellipse class="cls-24" cx="383.76" cy="216.42" rx="9.48" ry="17.52" transform="translate(-53.74 268.42) rotate(-36.2)"/><ellipse class="cls-24" cx="396.44" cy="217.07" rx="18.05" ry="9.2" transform="translate(-7.06 420.72) rotate(-55.48)"/><ellipse class="cls-24" cx="394.95" cy="227.48" rx="7.7" ry="21.58" transform="translate(162.03 619.25) rotate(-89.21)"/><ellipse class="cls-24" cx="385" cy="231.53" rx="17.71" ry="9.38" transform="translate(-6.13 452.55) rotate(-60.49)"/></g><circle class="cls-1" cx="378.92" cy="261.15" r="4.66"/><path class="cls-1" d="M403.19,253.22c1.86,1.35,2.55,4.36,1.49,5.38-1.14,1.11-4.58,.14-5.68-2.09-.52-1.06-.73-2.87,.31-3.74,1.1-.92,2.93-.24,3.87,.45Z"/><circle class="cls-1" cx="392.51" cy="282.28" r="3.97"/><path class="cls-1" d="M432.62,261.63c1.69,1.39,1.87,4.35,.66,5.3-1.23,.96-3.77-.26-4.99-1.86-.14-.19-1.49-1.95-.83-3.19,.72-1.33,3.54-1.59,5.16-.25Z"/><path class="cls-1" d="M430.38,281.1c1.96,1.17,3.38,3.78,2.67,4.73-.85,1.15-5.18,.41-6.25-2.04-.43-.99-.47-2.55,.4-3.19,1.06-.78,2.81,.27,3.19,.5Z"/><path class="cls-1" d="M426.89,240c1.71,1.24,2.46,3.94,1.49,4.93-.9,.91-3.19,.28-4.51-.89-1.21-1.08-2.23-3.17-1.41-4.25,.8-1.06,3.07-.77,4.43,.21Z"/><path class="cls-1" d="M411.29,275.6c1.94,1.15,3.16,3.82,2.39,4.88-1.01,1.39-5.86,.71-6.98-1.9-.41-.96-.43-2.4,.4-3.19,1.11-1.06,3.15-.41,4.19,.21Z"/></g></g><g><rect class="cls-11" x="483.52" y="430.65" width="206.46" height="308.7" transform="translate(25.35 -24.37) rotate(2.43)"/><g class="cls-17"><rect class="cls-13" x="508.67" y="455.27" width="158.58" height="202.44" transform="translate(24.14 -24.44) rotate(2.43)"/><path class="cls-24" d="M511.24,583.52c27.03-5.54,54.06-11.07,81.09-16.61,1.88-.84,4.09-.2,5.24,1.51,6.03,8.96,12.06,17.91,18.08,26.87,.69,1.03,1.8,1.7,3.03,1.84,12.24,1.4,24.49,2.8,36.73,4.21,.37,.04,.74,.13,1.09,.27,10.84,4.25,16.15,8.18,15.94,11.77-.41,6.99-21.71,12.75-63.88,17.26-.13,.01-.66-.04-1.53-.11-18.43-1.43-41.54-5.72-69.44-16.17-8.78-10.28-17.57-20.56-26.35-30.85Z"/><path class="cls-16" d="M505.03,524.22c11.9,5.92,23.8,11.84,35.7,17.76,2.73,.74,4.71,3.08,4.95,5.88l2.56,29.06c.17,1.91,1.15,3.65,2.7,4.79l34.62,25.45c.61,.45,1.29,.79,2.02,1.02l33.21,10.25c2.31,.71,4.06,2.59,4.59,4.93l1.75,7.73c.61,2.68,2.8,4.72,5.55,5.15l39.35,6.14c3.65,.57,6.17,3.94,5.64,7.57l-2.6,17.87c-.5,3.47-3.63,5.97-7.16,5.72l-161.29-11.15c-3.67-.25-6.46-3.37-6.28-7.01-2.77-28.64-3.48-61.51,.14-97.54,1.18-11.71,2.72-22.92,4.55-33.61Z"/><path class="cls-3" d="M682.75,560.74c-15.35,2.74-30.71,5.48-46.06,8.22-1.51,.27-2.82,1.21-3.59,2.56l-14.3,25.18c-.67,1.17-1.75,2.04-3.02,2.42-13.56,4.08-27.11,8.15-40.67,12.23-.57,.17-.31,.15-1.4,.67-6.83,3.23-13.76,6.13-26.26,10.73-11.16,4.11-10.78,3.69-11.38,4.19-9.64,8.03-6.03,29.92-2.4,37.73,16.08,34.51,134.02,11.33,148.76,8.34,2.12-35.57,4.24-71.14,6.35-106.71,.21-3.43-2.76-6.15-6.06-5.56Z"/><path class="cls-21" d="M584.84,569.98c7.46,6.34,20.69,5.75,24.23,5.59,6.31-.28,9.68-1.44,14.5,.52,3.61,1.47,3.07,2.67,5.94,3.42,5.85,1.53,9.22-3.17,17.87-2.84,2.23,.08,3.66,.46,5.53,.87,9.58,2.11,15.73,1.87,42.33,3.85,17.69,1.32,18.67,1.7,21.78,.6,9.89-3.49,18.2-13.79,15.17-21.68-1.88-4.88-8.44-9.68-12.46-8.34-2.01,.67-3.73,3.13-3.69,5.43,.03,1.71,.88,3.16,.92,3.15,.07-.02-.82-4.48-3.66-8.9-1.58-2.45-2.2-2.48-4.03-5.24-2.21-3.33-3.01-5.88-3.54-7.11-2.43-5.66-10.09-9-15.63-11.32-8.42-3.51-16.77-3.51-33.47-3.51-4.25,0-10.16,.14-11.38,2.81-1.07,2.35,2.01,5.49,.55,6.81-1.14,1.03-3.21-.69-5.3,.23-3.96,1.74-3.32,10.92-1.23,12.9,.15,.14,.77,.69,.63,1.16-.17,.54-1.17,.42-1.74,.79-2.01,1.28,2.67,7.65,.4,10.33-.26,.31-.66,.61-3.43,1.23-8.43,1.87-13.23,.98-15.16,3.63-.46,.63-.09,1.16-.67,1.66-1.35,1.18-4.49,.17-5.64-.18-6.05-1.85-13.25-1.86-27.65-1.89-1.39,0-3.66,.02-4.22,1.1-.82,1.59,2.58,4.49,3.07,4.91Z"/><path class="cls-21" d="M544.26,483.48c2.43,3.12,2.03,7.34,1.87,9.12-.3,3.22-1.46,4.99-.32,5.96,1.01,.86,2.52-.09,6.21-.15,3.95-.06,9.21,.72,9.88,2.75,.31,.94-.49,1.79,0,2.16,.72,.54,3.05-.89,3.49-1.14,4.86-2.82,14.66,.7,20.97,2.29,14.78,3.72,26.43,.87,26.5,1.9,.05,.78-6.67,1.82-11.21,2.16-6.91,.52-10.87-2.69-13.98-.64-1.59,1.05-1.16,2.1-2.62,3.56-3.14,3.12-9.33,2.45-14.27,2.03-20.35-1.72-30.53-2.57-36.26-.51-1.25,.45-6.37,2.46-9.03,.63-.89-.61-1.35-1.54-2.33-1.52-1.45,.03-1.71,2.1-3.49,2.54-1.21,.3-1.86-.46-4.51-1.52-2.82-1.13-5.62-2.26-7.72-1.4-1.7,.7-1.29,2.04-3.2,2.67-1.09,.35-2.23,.19-4.51-.13-1.57-.22-2.39-.33-3.2-.64-2.67-.98-3.88-3.45-4.43-4.6-2.05-4.21-2.14-13.08,4-21.31,1.85-2.48,7.95-10.65,14.56-9.91,6.15,.69,10.11,8.79,12.09,7.87,.75-.34,.11-1.53,1.02-3.05,1.68-2.8,6.54-3.25,7.83-3.36,3.77-.34,9.76,.46,12.69,4.23Z"/><path class="cls-21" d="M703.67,477.45c-1.85,.74-4.69,3.8-5.87,2.87-.67-.53,.02-1.78-.54-2.72-1.5-2.54-12.85-1.27-18.77,5.58-2.9,3.35-3.91,7.45-5.94,15.64-1.56,6.31-1.74,10.4-5.08,12.37-1.96,1.16-4.82,1.48-5,2.98-.13,1.1,1.27,1.89,1.03,2.3-.4,.68-4.13-1.86-8.42-2.14-5.72-.37-12.07,3.31-12.45,6.98-.2,1.89,1.17,2.91,.58,4.17-.61,1.29-2.87,1-6.74,1.08-5.35,.11-9.93,.24-10.89,2.48-.62,1.46,.84,2.57,.2,3.64-1.19,2-6.37-1.78-13.81-.54-2.87,.48-3.35,1.25-6.34,1.37-3.37,.14-5.12-.75-7.78-1.22-4.75-.85-8.2,.38-11.14,1-6.81,1.46-11.66-.07-25.12-1.72-17.19-2.1-32.31-2.39-32.39-1.68-.06,.53,7.67,3.84,14.72,3.78,.92,0,2.95-.08,4.68,1.31,1.91,1.54,2.05,3.75,2.65,5.15,2.26,5.22,13.22,4.46,23.95,3.98,0,0,10.13-.45,22.1-.59,11.48-.13,26.16,.4,26.2,1.86,.03,1.09-8.12,2.01-8.07,2.84,.1,1.68,33.52-1.62,46.17,2.45,1.06,.34,4.69,1.6,9.7,1.7,3.54,.07,5.76-.48,7.58-.73,8.59-1.18,13.66,3.38,18.44,4.01,12.16,1.61,33.57-21.26,31.69-45.17-1.57-19.98-19-35.62-25.35-33.06Z"/></g><rect class="cls-10" x="508.67" y="455.27" width="158.58" height="202.44" transform="translate(24.14 -24.44) rotate(2.43)"/></g><g><rect class="cls-11" x="299.2" y="398.74" width="206.46" height="308.7" transform="translate(-213.27 255.14) rotate(-28.14)"/><rect class="cls-5" x="309.69" y="426.7" width="158.58" height="202.44" transform="translate(-202.99 245.82) rotate(-28.14)"/><g class="cls-6"><g><path class="cls-22" d="M513.87,575.34c-.61,32.26-27.07,63.54-60.43,63.28-35.47-.28-63.53-36.11-58.96-71.61,4.39-34.05,37.94-61.25,71.54-54.77,29.37,5.66,48.38,35.05,47.85,63.1Z"/><circle class="cls-20" cx="444.29" cy="599.76" r="12.34"/><circle class="cls-20" cx="458.23" cy="536.58" r="12.34"/><path class="cls-22" d="M408.67,579.5c1.75,6.78,3.5,13.57,5.25,20.35-6.16,6.51-19.56,18.7-39.75,22.68-23.05,4.55-52.23-2.14-54.39-13.73-2.12-11.38,21.95-26.89,42.42-32.06,20.21-5.11,37.71-.36,46.48,2.76Z"/><path class="cls-22" d="M434.87,524.52c-5.29,4.59-10.58,9.18-15.87,13.78-8.58-2.61-25.46-9.16-38.03-25.46-14.35-18.6-21.38-47.7-11.98-54.8,9.24-6.98,33.85,7.65,47.62,23.66,13.59,15.81,17.15,33.59,18.27,42.82Z"/><line class="cls-9" x1="452.05" y1="547.35" x2="434.62" y2="545.22"/><line class="cls-9" x1="443.34" y1="588.49" x2="425.9" y2="586.36"/><path class="cls-4" d="M459.58,569.59c-.8,3.27-3.88,6.26-5.64,5.68-1.77-.59-1.91-4.7-1.58-7.05,.42-3.1,2.2-7.24,4.08-7.16,1.95,.08,4.09,4.68,3.14,8.53Z"/><path class="cls-4" d="M402.94,468.92c-4.1,1.26-11.34,4.06-18.38,10.38-7.54,6.77-11.15,14.24-12.77,18.29-5-8.88-6.26-16.65-6.61-21.23-.49-6.39-1.12-14.66,3.8-18.32,4.4-3.27,10.97-1.16,16.76,.69,8.24,2.64,13.94,7.16,17.19,10.19Z"/><path class="cls-4" d="M346.07,582.6c-.78,3.68-1.95,11.63,1.1,20.86,3.96,11.97,12.47,18.39,15.44,20.43-12.92,1.46-22.4-1.28-27.69-3.35-6.01-2.36-14.01-5.5-15.14-11.73-.94-5.2,3.38-9.94,7.11-14.04,6.06-6.64,13.29-10.22,19.19-12.17Z"/></g><g><path class="cls-2" d="M378.92,509.26c-2.04,31.02-28.81,54.24-56.57,56.57-37.82,3.17-74.41-32.71-68.96-70.26,4.47-30.77,36.04-54.96,69.48-51.11,31.9,3.67,58.21,32.04,56.05,64.8Z"/><path class="cls-23" d="M323.57,533.23c-.6,3.32-2.55,5.33-3.2,5.97-1.12,1.12-3.43,3.44-6.82,3.29-4.07-.18-6.38-3.78-6.77-4.41-1.51-2.46-1.39-4.92-1.34-6.07,.05-1.05,.23-3.99,2.38-6.67,.66-.82,3.4-4.24,7.67-3.95,4.29,.29,6.52,3.98,6.89,4.59,1.88,3.11,1.36,6.26,1.18,7.25Z"/><path class="cls-23" d="M333.57,485.97c-.35,.93-2.07,5.43-6.66,6.73-.71,.2-3.91,1.01-6.95-.82-2.58-1.55-3.45-4.03-3.92-5.35-.36-1.02-1.41-4.14-.06-7.71,.36-.94,1.4-3.29,3.92-4.99,.61-.41,4.55-3.06,8.8-1.34,3.84,1.56,4.99,5.49,5.26,6.4,.98,3.36-.04,6.17-.39,7.08Z"/><line class="cls-9" x1="344.44" y1="493.59" x2="327" y2="491.46"/><line class="cls-9" x1="337.84" y1="525.31" x2="320.41" y2="523.18"/><path class="cls-23" d="M311.04,502.81c-.88,4.68-4.51,10.37-9.43,10.63-6.1,.32-12.62-7.77-10.78-14.97,1.78-6.98,10.88-11.09,16.14-8.12,4.15,2.35,4.82,8.51,4.08,12.46Z"/><path class="cls-2" d="M387.85,457.74c.89,11.09-12.07,20.57-23.36,21.16-9.58,.5-16.28-5.47-17.07-6.19-1.05-.97-8.61-7.91-7.49-16.17,1.45-10.7,16.76-18.42,29.35-15.87,7.91,1.6,17.83,7.88,18.57,17.07Z"/><path class="cls-2" d="M358.82,581.7c-4.45,10.36-18.81,13.39-28.77,9.3-11.95-4.91-19.18-20.75-13.18-30.85,5.97-10.03,22.84-10.8,32.89-3.56,7.06,5.09,13.05,15.78,9.05,25.1Z"/></g></g><rect class="cls-10" x="309.69" y="426.7" width="158.58" height="202.44" transform="translate(-202.99 245.82) rotate(-28.14)"/></g></g></g></g></svg>