<?xml version="1.0" encoding="UTF-8"?><svg id="Layer_2" xmlns="http://www.w3.org/2000/svg" viewBox="0 0 313.37 362"><defs><style>.cls-1{fill:#5b4e4a;}.cls-2{fill:#ffc0b8;}.cls-3{fill:#ffdf99;}.cls-4{fill:#fff6f0;stroke:#5b4e4a;stroke-miterlimit:10;stroke-width:2px;}</style></defs><g id="mobile"><g id="contact"><g><rect class="cls-4" x="1" y="1" width="311.37" height="360" rx="10.36" ry="10.36"/><g><path class="cls-2" d="M53.73,320.41c.11,.58,.74,.9,1.04,1.09,1.37,.82,1.95,2.41,2.54,3.99,1.27,3.45-1.05,7.32-1.45,7.99-.23,.39-3.15,5.11-7.34,5.41-4.16,.29-5.59-.02-5.59-.02-.33-.07-1.01-.24-1.73,.06-1.01,.42-1.35,1.47-1.68,2.09-1.31,2.44-5.21,3.16-7.54,3.09-3.18-.1-5.34-1.77-6.08-2.36-.91-.73-3.13-2.49-3.54-5.18-.42-2.74,.1-4.2,.1-4.2,.2-.55,.55-1.3,.22-1.75-.29-.39-.97-.33-1.23-.32-2.1,.09-4.74-1.97-5.99-3.63-1.81-2.4-1.63-5.21-1.59-5.97,.23-3.7,2.49-7.35,4.67-7.92,2.31-.61,2.59-.64,2.59-.64,.81-.09,1.47-.05,1.77-.5,.21-.31,.13-.67,.08-1.06-.13-.92,.09-1.86,.1-2.8,.03-1.35,1.41-5.25,5.03-7.26,4.75-2.63,10.13-.21,11.54,1.31,1.02,1.1,1.53,1.64,1.61,2.43,.03,.33,.03,.98,.44,1.26,.24,.16,.55,.17,.65,.17,.43,.01,.75-.16,.8-.18,.54-.26,5.81-1.29,9.17,1.39,4.03,3.22,3.6,10.42,2.09,12.05-.15,.17-.79,.79-.67,1.46Z"/><path class="cls-3" d="M44.32,322.17c-.18,4.44-6.29,7.99-10.56,6.06-2.48-1.12-4.36-4.12-3.88-7.22,.54-3.54,3.95-5.96,7.36-5.86,4,.12,7.22,3.68,7.08,7.02Z"/></g><g><path class="cls-1" d="M42.25,39.02h-6.11c-.7,0-1.09-.35-1.09-1.02v-.13c0-.67,.38-1.02,1.09-1.02h14.59c.74,0,1.12,.35,1.12,1.02v.13c0,.67-.38,1.02-1.12,1.02h-6.08v17.54c0,.7-.35,1.09-1.05,1.09h-.32c-.67,0-1.03-.38-1.03-1.09v-17.54Z"/><path class="cls-1" d="M67.89,48.58v7.97c0,.83-.42,1.09-.99,1.09h-.29c-.61,0-1.03-.26-1.03-1.09v-7.81c0-2.94-1.44-4.74-4.03-4.74-2.72,0-4.67,1.86-4.7,4.7v7.84c0,.83-.42,1.09-.99,1.09h-.29c-.61,0-1.03-.26-1.03-1.09v-20.57c0-.1,.38-.26,.83-.26,.74,0,1.47,.38,1.47,2.05v7.3c.96-1.89,2.75-3.14,5.15-3.14,3.97,0,5.89,2.72,5.89,6.66Z"/><path class="cls-1" d="M81.36,48.58h.35v-.64c0-2.59-1.5-4.03-4.13-4.03-2.43,0-3.9,1.18-4.67,2.72-.06,.03-1.41-.03-1.41-1.18,0-.45,.32-1.12,.93-1.7,.99-.96,2.75-1.82,5.28-1.82,4.06,0,6.27,2.27,6.27,6.05v9.44c0,.1-.42,.26-.83,.26-.67,0-1.21-.32-1.34-1.47-.03-.45-.06-.93-.06-1.41-1.03,1.86-3.11,3.07-5.66,3.07-3.2,0-5.18-1.66-5.18-4.26,0-3.46,3.26-4.93,10.46-5.02Zm.35,1.5l-.54,.03c-5.57,.13-7.97,1.09-7.97,3.42,0,1.6,1.28,2.59,3.33,2.59,2.94,0,5.18-1.98,5.18-4.58v-1.47Z"/><path class="cls-1" d="M101.29,48.55v8c0,.83-.42,1.09-.99,1.09h-.29c-.61,0-1.03-.26-1.03-1.09v-7.81c0-2.94-1.41-4.77-4-4.77-2.24,0-3.9,1.25-4.73,3.07v9.5c0,.83-.42,1.09-.99,1.09h-.29c-.61,0-1.03-.26-1.03-1.09v-14.14c0-.06,.38-.26,.83-.26,.71,0,1.34,.35,1.41,1.92v.9c1.02-1.82,2.82-3.04,5.25-3.04,3.94,0,5.86,2.72,5.86,6.62Z"/><path class="cls-1" d="M105.3,35.98c0-.1,.35-.26,.8-.26,.74,0,1.47,.38,1.47,2.05v11.46l6.05-6.21c.48-.58,.99-.83,1.41-.86,.83-.03,1.28,.77,1.22,.96l-6.27,6.34,7.1,7.2c.06,.22-.38,1.06-1.25,1.02-.48-.03-.93-.29-1.41-.86l-6.85-6.91v6.66c0,.83-.42,1.09-.99,1.09h-.29c-.58,0-.99-.22-.99-1.09v-20.57Z"/><path class="cls-1" d="M118.16,54.76c0-.8,.9-1.15,.99-1.12,.96,1.38,2.69,2.4,5.18,2.4s3.81-1.02,3.81-2.53c0-1.79-1.66-2.14-4.26-2.72-2.34-.48-5.28-1.15-5.28-4.26,0-2.72,2.27-4.61,5.79-4.61,2.46,0,4.13,.8,4.99,1.73,.35,.35,.58,.83,.58,1.22,0,.8-.93,1.22-.99,1.15-.83-1.28-2.5-2.27-4.54-2.27-2.34,0-3.68,1.06-3.68,2.53,0,1.66,1.6,2.05,4.13,2.62,2.5,.54,5.5,1.22,5.5,4.35,0,2.78-2.34,4.64-6.08,4.64-2.5,0-4.22-.74-5.21-1.6-.64-.54-.93-1.06-.93-1.54Z"/><path class="cls-1" d="M139.82,44.23h-2.14c-.74,0-.99-.32-.99-.9v-.19c0-.58,.26-.86,.99-.86h2.14v-1.54c0-3.55,1.63-5.31,4.45-5.31,1.21,0,2.05,.29,2.59,.77,.35,.29,.51,.67,.51,1.09,0,.7-.51,1.09-.58,1.02-.45-.51-1.38-.93-2.3-.93-1.66,0-2.46,1.06-2.46,3.55v1.34h2.94c.74,0,1.03,.32,1.03,.86v.19c0,.58-.29,.9-1.03,.9h-2.88v12.32c0,.8-.38,1.09-.99,1.09h-.26c-.61,0-1.02-.26-1.02-1.09v-12.32Z"/><path class="cls-1" d="M154.93,41.93c4.51,0,7.71,3.36,7.71,8.03s-3.2,7.94-7.74,7.94-7.74-3.36-7.74-8,3.2-7.97,7.78-7.97Zm0,1.95c-3.2,0-5.54,2.5-5.54,6.02s2.34,6.05,5.54,6.05,5.47-2.5,5.47-5.98-2.27-6.08-5.47-6.08Z"/><path class="cls-1" d="M174.29,43.59c0,.93-.64,1.31-.71,1.25-.38-.38-.99-.64-1.82-.64-2.49,0-3.65,2.46-3.65,6.3v6.05c0,.8-.42,1.09-.99,1.09h-.26c-.64,0-1.06-.26-1.06-1.09v-14.14c0-.06,.35-.26,.83-.26,.64,0,1.22,.32,1.34,1.54,.03,.54,.06,1.09,.06,1.66,.61-2.3,2.02-3.42,3.97-3.42,1.38,0,2.27,.67,2.27,1.66Z"/><path class="cls-1" d="M179.15,42.82c0-.19,.54-.7,1.22-.7,.61,.03,1.12,.35,1.5,1.44l4.38,11.94,4.42-11.94c.38-1.12,.96-1.44,1.5-1.41,.67,.03,1.15,.48,1.15,.67l-5.6,14.08c-.19,.58-.64,.8-1.5,.8s-1.25-.19-1.47-.74l-5.6-14.14Z"/><path class="cls-1" d="M197.16,36.01c.93,0,1.47,.51,1.47,1.47s-.58,1.44-1.5,1.44-1.44-.51-1.44-1.44,.54-1.47,1.47-1.47Zm-1.18,7.26c0-.83,.42-1.12,1.02-1.12h.26c.61,0,1.03,.26,1.03,1.12v13.28c0,.83-.42,1.09-1.03,1.09h-.26c-.61,0-1.02-.26-1.02-1.09v-13.28Z"/><path class="cls-1" d="M201.39,54.76c0-.8,.9-1.15,.99-1.12,.96,1.38,2.69,2.4,5.18,2.4s3.81-1.02,3.81-2.53c0-1.79-1.66-2.14-4.26-2.72-2.33-.48-5.28-1.15-5.28-4.26,0-2.72,2.27-4.61,5.79-4.61,2.46,0,4.13,.8,4.99,1.73,.35,.35,.58,.83,.58,1.22,0,.8-.93,1.22-.99,1.15-.83-1.28-2.49-2.27-4.54-2.27-2.34,0-3.68,1.06-3.68,2.53,0,1.66,1.6,2.05,4.13,2.62,2.5,.54,5.5,1.22,5.5,4.35,0,2.78-2.34,4.64-6.08,4.64-2.49,0-4.22-.74-5.21-1.6-.64-.54-.93-1.06-.93-1.54Z"/><path class="cls-1" d="M218.12,36.01c.93,0,1.47,.51,1.47,1.47s-.58,1.44-1.5,1.44-1.44-.51-1.44-1.44,.54-1.47,1.47-1.47Zm-1.18,7.26c0-.83,.42-1.12,1.02-1.12h.26c.61,0,1.03,.26,1.03,1.12v13.28c0,.83-.42,1.09-1.03,1.09h-.26c-.61,0-1.02-.26-1.02-1.09v-13.28Z"/><path class="cls-1" d="M224.49,53.1v-8.86h-1.5c-.74,0-.99-.32-.99-.86v-.22c0-.54,.26-.86,.99-.86h1.5v-2.69c0-.8,.42-1.12,1.02-1.12h.26c.61,0,.99,.29,.99,1.12v2.69h3.87c.7,0,.99,.29,.99,.86v.19c0,.58-.29,.9-1.02,.9h-3.87v8.51c0,2.24,.67,3.2,2.27,3.2,1.02,0,1.79-.48,2.27-1.18,.1-.06,.64,.26,.64,1.06,0,.38-.16,.8-.58,1.18-.54,.51-1.41,.9-2.66,.9-2.81,0-4.19-1.57-4.19-4.8Z"/><path class="cls-1" d="M235.82,36.01c.93,0,1.47,.51,1.47,1.47s-.58,1.44-1.5,1.44-1.44-.51-1.44-1.44,.54-1.47,1.47-1.47Zm-1.18,7.26c0-.83,.42-1.12,1.02-1.12h.26c.61,0,1.03,.26,1.03,1.12v13.28c0,.83-.42,1.09-1.03,1.09h-.26c-.61,0-1.02-.26-1.02-1.09v-13.28Z"/><path class="cls-1" d="M254.54,48.55v8c0,.83-.42,1.09-.99,1.09h-.29c-.61,0-1.03-.26-1.03-1.09v-7.81c0-2.94-1.41-4.77-4-4.77-2.24,0-3.9,1.25-4.73,3.07v9.5c0,.83-.42,1.09-.99,1.09h-.29c-.61,0-1.03-.26-1.03-1.09v-14.14c0-.06,.38-.26,.83-.26,.71,0,1.34,.35,1.41,1.92v.9c1.02-1.82,2.82-3.04,5.25-3.04,3.94,0,5.86,2.72,5.86,6.62Z"/><path class="cls-1" d="M256.43,60.1c0-2.24,2.21-3.81,4.99-4.32-.54-.32-.96-.8-.96-1.54,0-.67,.38-1.25,.93-1.63-2.34-.74-3.87-2.66-3.87-5.02,0-3.17,2.62-5.66,6.18-5.66,1.34,0,2.62,.38,3.62,1.06l1.15-1.73c.45-.77,.96-.99,1.5-.93,.74,.1,1.15,.83,1.12,1.02l-2.53,2.69c.83,.93,1.38,2.11,1.38,3.46,0,3.1-2.62,5.47-6.21,5.47-.29,0-.54,0-.83-.03-.32,.22-.38,.51-.38,.83,.03,1.02,1.57,1.18,4.16,1.82,2.21,.54,4.58,1.63,4.58,4.1,0,2.85-2.82,4.58-7.68,4.58s-7.14-1.41-7.14-4.16Zm12.58-.26c0-1.41-1.6-2.05-3.36-2.5-.64-.16-1.28-.29-1.89-.45-2.72,.22-5.09,1.38-5.09,3.17,0,1.63,1.73,2.53,4.96,2.53s5.38-.96,5.38-2.75Zm-1.38-12.32c0-2.27-1.57-3.87-3.97-3.87s-3.9,1.57-3.9,3.87,1.63,3.84,3.94,3.84,3.94-1.54,3.94-3.84Z"/><path class="cls-1" d="M273.58,56.3v-.29c0-.93,.45-1.44,1.38-1.44h.32c.93,0,1.38,.51,1.38,1.44v.29c0,.93-.45,1.44-1.38,1.44h-.32c-.9,0-1.38-.51-1.38-1.44Zm.87-5.41l-.74-12.73c-.1-.99,.32-1.47,1.02-1.47h.74c.74,0,1.15,.48,1.05,1.47l-.7,12.77c-.06,.51-.16,.8-.58,.8h-.26c-.38,0-.51-.29-.54-.83Z"/><path class="cls-1" d="M59.81,92.17c0-.86,1.05-1.44,1.15-1.34,.96,1.76,2.98,3.46,6.21,3.46,3.04,0,4.93-1.41,4.93-3.78,0-2.66-2.56-3.3-5.47-4-3.17-.8-6.3-1.86-6.3-5.86,0-3.39,2.94-5.76,6.97-5.76,2.69,0,4.64,.86,5.73,1.86,.64,.61,.99,1.28,.99,1.82,0,.93-1.12,1.47-1.19,1.38-.89-1.6-2.78-3.04-5.54-3.04s-4.64,1.44-4.64,3.68c0,2.53,2.18,3.04,5.15,3.78,3.36,.8,6.66,2.05,6.66,6.02,0,3.62-2.85,5.92-7.26,5.92-3.04,0-5.21-.99-6.4-2.18-.67-.67-.99-1.41-.99-1.95Z"/><path class="cls-1" d="M78.69,91.5v-8.86h-1.5c-.74,0-.99-.32-.99-.86v-.22c0-.54,.26-.86,.99-.86h1.5v-2.69c0-.8,.42-1.12,1.02-1.12h.26c.61,0,.99,.29,.99,1.12v2.69h3.87c.7,0,.99,.29,.99,.86v.19c0,.58-.29,.9-1.02,.9h-3.87v8.51c0,2.24,.67,3.2,2.27,3.2,1.02,0,1.79-.48,2.27-1.18,.1-.06,.64,.26,.64,1.06,0,.38-.16,.8-.58,1.18-.54,.51-1.41,.9-2.66,.9-2.81,0-4.19-1.57-4.19-4.8Z"/><path class="cls-1" d="M98.17,86.98h.35v-.64c0-2.59-1.5-4.03-4.13-4.03-2.43,0-3.9,1.18-4.67,2.72-.06,.03-1.41-.03-1.41-1.18,0-.45,.32-1.12,.93-1.7,.99-.96,2.75-1.82,5.28-1.82,4.06,0,6.27,2.27,6.27,6.05v9.44c0,.1-.42,.26-.83,.26-.67,0-1.21-.32-1.34-1.47-.03-.45-.06-.93-.06-1.41-1.03,1.86-3.11,3.07-5.66,3.07-3.2,0-5.18-1.66-5.18-4.26,0-3.46,3.26-4.93,10.46-5.02Zm.35,1.5l-.54,.03c-5.57,.13-7.97,1.09-7.97,3.42,0,1.6,1.28,2.59,3.33,2.59,2.94,0,5.18-1.98,5.18-4.58v-1.47Z"/><path class="cls-1" d="M107.17,101.45l2.62-6.37c-.61-.03-.93-.19-1.15-.74l-5.54-13.12c-.03-.19,.54-.7,1.25-.7,.58,.03,1.09,.38,1.44,1.38l4.67,11.68,4.13-11.58c.35-1.18,.99-1.47,1.57-1.44,.58,0,1.15,.48,1.12,.64l-7.42,19.52c-.35,1.09-.9,1.38-1.5,1.38-.64,0-1.22-.48-1.19-.64Z"/><path class="cls-1" d="M126.49,74.41c.93,0,1.47,.51,1.47,1.47s-.58,1.44-1.5,1.44-1.44-.51-1.44-1.44,.54-1.47,1.47-1.47Zm-1.18,7.26c0-.83,.42-1.12,1.02-1.12h.26c.61,0,1.03,.26,1.03,1.12v13.28c0,.83-.42,1.09-1.03,1.09h-.26c-.61,0-1.02-.26-1.02-1.09v-13.28Z"/><path class="cls-1" d="M145.21,86.95v8c0,.83-.42,1.09-.99,1.09h-.29c-.61,0-1.03-.26-1.03-1.09v-7.81c0-2.94-1.41-4.77-4-4.77-2.24,0-3.9,1.25-4.73,3.07v9.5c0,.83-.42,1.09-.99,1.09h-.29c-.61,0-1.03-.26-1.03-1.09v-14.14c0-.06,.38-.26,.83-.26,.71,0,1.34,.35,1.41,1.92v.9c1.02-1.82,2.82-3.04,5.25-3.04,3.94,0,5.86,2.72,5.86,6.62Z"/><path class="cls-1" d="M155.1,91.5v-8.86h-1.5c-.74,0-.99-.32-.99-.86v-.22c0-.54,.26-.86,.99-.86h1.5v-2.69c0-.8,.42-1.12,1.02-1.12h.26c.61,0,.99,.29,.99,1.12v2.69h3.87c.7,0,.99,.29,.99,.86v.19c0,.58-.29,.9-1.02,.9h-3.87v8.51c0,2.24,.67,3.2,2.27,3.2,1.02,0,1.79-.48,2.27-1.18,.1-.06,.64,.26,.64,1.06,0,.38-.16,.8-.58,1.18-.54,.51-1.41,.9-2.66,.9-2.81,0-4.19-1.57-4.19-4.8Z"/><path class="cls-1" d="M171.9,80.33c4.51,0,7.71,3.36,7.71,8.03s-3.2,7.94-7.74,7.94-7.74-3.36-7.74-8,3.2-7.97,7.78-7.97Zm0,1.95c-3.2,0-5.54,2.5-5.54,6.02s2.34,6.05,5.54,6.05,5.47-2.5,5.47-5.98-2.27-6.08-5.47-6.08Z"/><path class="cls-1" d="M196,81.64v14.17c0,.06-.38,.26-.83,.26-.64,0-1.22-.32-1.34-1.5-.03-.42-.06-.83-.06-1.25-1.02,1.7-2.78,2.98-5.25,2.98-3.94,0-5.86-2.72-5.86-6.66v-8c0-.83,.42-1.09,1.02-1.09h.26c.61,0,1.02,.26,1.02,1.09v7.84c0,2.94,1.44,4.77,4.03,4.77,2.21,0,3.87-1.25,4.7-3.1v-9.5c0-.83,.42-1.09,.99-1.09h.29c.61,0,1.02,.26,1.02,1.09Z"/><path class="cls-1" d="M206.52,80.33c2.4,0,4.06,.86,5.09,1.86,.86,.8,1.25,1.73,1.25,2.3,0,1.02-1.38,1.22-1.47,1.09-.67-1.76-2.05-3.26-4.83-3.26-3.2,0-5.47,2.5-5.47,5.95s2.24,6.05,5.47,6.05c2.75,0,4.16-1.5,4.83-3.26,.06-.13,1.47,.03,1.47,1.12,0,.51-.38,1.41-1.25,2.24-.99,1.06-2.69,1.89-5.12,1.89-4.48,0-7.68-3.36-7.68-8.03s3.2-7.94,7.71-7.94Z"/><path class="cls-1" d="M229.24,86.98v7.97c0,.83-.42,1.09-.99,1.09h-.29c-.61,0-1.03-.26-1.03-1.09v-7.81c0-2.94-1.44-4.74-4.03-4.74-2.72,0-4.67,1.86-4.7,4.7v7.84c0,.83-.42,1.09-.99,1.09h-.29c-.61,0-1.03-.26-1.03-1.09v-20.57c0-.1,.38-.26,.83-.26,.74,0,1.47,.38,1.47,2.05v7.3c.96-1.89,2.75-3.14,5.15-3.14,3.97,0,5.89,2.72,5.89,6.66Z"/><path class="cls-1" d="M238.72,83.56c0-.9,.48-1.44,1.38-1.44h.32c.96,0,1.41,.54,1.41,1.44v.29c0,.93-.48,1.41-1.41,1.41h-.32c-.9,0-1.38-.48-1.38-1.41v-.29Zm0,10.85c0-.93,.48-1.44,1.38-1.44h.32c.96,0,1.41,.51,1.41,1.44v.29c0,.93-.48,1.44-1.41,1.44h-.32c-.9,0-1.38-.51-1.38-1.44v-.29Z"/><path class="cls-1" d="M243.52,101.32c0-.38,.29-.8,.35-.83,4.22-.96,6.85-5.89,6.85-11.87s-2.62-10.81-6.85-11.77c-.1-.03-.35-.48-.35-.83,0-.61,.38-.9,1.05-.9,1.35,0,3.11,.83,4.71,2.62,2.18,2.3,3.81,6.3,3.81,10.91s-1.6,8.61-3.78,10.98c-1.63,1.76-3.39,2.59-4.74,2.59-.67,0-1.05-.29-1.05-.9Z"/></g></g></g></g></svg>