<?xml version="1.0" encoding="UTF-8"?><svg id="Layer_2" xmlns="http://www.w3.org/2000/svg" xmlns:xlink="http://www.w3.org/1999/xlink" viewBox="0 0 360 680"><defs><style>.cls-1,.cls-2,.cls-3,.cls-4,.cls-5,.cls-6,.cls-7,.cls-8,.cls-9,.cls-10,.cls-11,.cls-12,.cls-13,.cls-14,.cls-15,.cls-16,.cls-17,.cls-18,.cls-19,.cls-20,.cls-21,.cls-22,.cls-23,.cls-24,.cls-25,.cls-26,.cls-27,.cls-28,.cls-29{stroke-miterlimit:10;}.cls-1,.cls-2,.cls-3,.cls-4,.cls-5,.cls-6,.cls-7,.cls-8,.cls-9,.cls-11,.cls-12,.cls-13,.cls-14,.cls-15,.cls-16,.cls-17,.cls-18,.cls-19,.cls-20,.cls-21,.cls-22,.cls-23,.cls-25,.cls-26,.cls-28,.cls-29{stroke-width:2px;}.cls-1,.cls-2,.cls-3,.cls-4,.cls-5,.cls-6,.cls-7,.cls-8,.cls-9,.cls-11,.cls-12,.cls-13,.cls-14,.cls-15,.cls-16,.cls-17,.cls-18,.cls-19,.cls-20,.cls-21,.cls-22,.cls-25,.cls-26,.cls-28,.cls-29{stroke:#5b4e4a;}.cls-1,.cls-3{fill:#938782;}.cls-2{fill:#94a588;}.cls-3,.cls-24{stroke-linecap:round;}.cls-4{fill:#dda37c;}.cls-5,.cls-30{fill:#fff3e6;}.cls-6{fill:#b6ddc8;}.cls-31{clip-path:url(#clippath-2);}.cls-7{fill:#b5957f;}.cls-8{fill:#db836e;}.cls-9{fill:#ad937d;}.cls-10,.cls-14,.cls-32,.cls-24,.cls-27{fill:none;}.cls-10,.cls-24,.cls-27{stroke:#fff3e6;}.cls-11{fill:#c9a389;}.cls-12{fill:#839379;}.cls-33{clip-path:url(#clippath-1);}.cls-34{clip-path:url(#clippath-4);}.cls-13{fill:#989da0;}.cls-35{opacity:.3;}.cls-35,.cls-36{fill:#fceed6;}.cls-15{fill:#937b6a;}.cls-16{fill:#96ad8c;}.cls-17{fill:#ad8b73;}.cls-37{clip-path:url(#clippath);}.cls-18{fill:#77b1a3;}.cls-38,.cls-23{fill:#353833;}.cls-39{clip-path:url(#clippath-3);}.cls-19{fill:#8e6d5c;}.cls-20{fill:#997f74;}.cls-21{fill:#ffaa9f;}.cls-22{fill:#aab7c1;}.cls-23{stroke:#635654;}.cls-40{fill:url(#linear-gradient);opacity:.6;}.cls-41{fill:#ccb09e;}.cls-24,.cls-27{stroke-width:1.5px;}.cls-25{fill:#e0cdbd;}.cls-26{fill:#a07767;}.cls-28{fill:#d39e7a;}.cls-42{fill:#ffebcf;}.cls-29{fill:#cc966e;}</style><clipPath id="clippath"><rect class="cls-32" width="360" height="680"/></clipPath><clipPath id="clippath-1"><path class="cls-32" d="M206.04,459.29c-3.38,6.25-12.87,6.47-23.06,6.72-10.96,.26-23.03,.55-26.77-6.72-3.17-6.17,1.03-15.09,5.98-19.93,10.44-10.21,30.91-8.78,39.86,1.99,3.61,4.35,7.05,12.27,3.99,17.94Z"/></clipPath><clipPath id="clippath-2"><path class="cls-32" d="M248.56,439.49c6.12,6.28,8.77,17.54,4.23,23.25-1.13,1.42-3.26,3.2-25.68,3-17.15-.15-19.33-1.22-20.83-3-4.65-5.53-1.97-16.93,4.23-23.25,6.22-6.34,14.78-6.34,19.02-6.34s12.84,0,19.02,6.34Z"/></clipPath><clipPath id="clippath-3"><path class="cls-32" d="M230.42,435.47c-3.29,5.79-12.05,5.91-22.12,6.03-10.93,.14-20.31,.26-24.13-6.03-3.61-5.93-.7-15.01,4.02-20.11,9.36-10.11,29.4-8.41,38.21,2.01,3.77,4.46,7.18,12.54,4.02,18.1Z"/></clipPath><linearGradient id="linear-gradient" x1="185.22" y1="466.74" x2="185.22" y2="203.02" gradientUnits="userSpaceOnUse"><stop offset="0" stop-color="#ead9bb"/><stop offset=".17" stop-color="#e5d0b2"/><stop offset=".44" stop-color="#d7b89b"/><stop offset=".78" stop-color="#c29175"/><stop offset="1" stop-color="#b27559"/></linearGradient><clipPath id="clippath-4"><path class="cls-32" d="M351.58,658.59c-25.49,.25-50.98,.49-76.47,.74,4.41-38.97,8.82-77.94,13.24-116.91h77.94c-4.9,38.73-9.8,77.45-14.71,116.18Z"/></clipPath></defs><g id="mobile"><g id="home"><g class="cls-37"><rect class="cls-41" y="162" width="360" height="518"/><rect class="cls-20" x="1" y="664.93" width="358" height="14.07"/><rect class="cls-20" x="1" y="656.45" width="358" height="8.48"/><g><rect class="cls-4" x="312.82" y="429.59" width="51.25" height="38.44"/><rect class="cls-36" x="323.5" y="438.13" width="37.02" height="13.52" rx="4.92" ry="4.92"/></g><rect class="cls-13" x="344.85" y="410.37" width="39.86" height="57.66" rx="8.87" ry="8.87"/><g><rect class="cls-8" x="263.99" y="421.1" width="54.35" height="47.63"/><rect class="cls-15" x="260.85" y="416.77" width="60.51" height="8.54" rx="3.11" ry="3.11"/><rect class="cls-36" x="272.24" y="433.15" width="37.02" height="13.52" rx="4.92" ry="4.92"/></g><g><g><path class="cls-29" d="M206.04,459.29c-3.38,6.25-12.87,6.47-23.06,6.72-10.96,.26-23.03,.55-26.77-6.72-3.17-6.17,1.03-15.09,5.98-19.93,10.44-10.21,30.91-8.78,39.86,1.99,3.61,4.35,7.05,12.27,3.99,17.94Z"/><g class="cls-33"><g><path class="cls-42" d="M184.69,443.82c-.47,.65-4.13-1.24-5.69-2.14-2.38-1.36-3.93-2.68-4.98-3.56-1.95-1.62-4.78-3.86-8.54-6.41,1.53-.69,3.06-1.38,4.6-2.08,2.35,1.69,5.63,4.23,9.24,7.7,2.06,1.98,5.94,5.7,5.38,6.47Z"/><path class="cls-42" d="M165.01,442.94c.35,.67,3.54-.38,5.11-.89,3.89-1.28,7.18-2.96,10.18-4.76,2.22-1.34,5.19-3.28,8.45-5.95-.59-.89-1.17-1.78-1.75-2.67-4.3,1.59-7.73,3.35-10.18,4.76-3.9,2.24-6.12,4.04-8.45,5.95-3.5,2.87-3.45,3.4-3.36,3.57Z"/></g></g></g><path class="cls-14" d="M206.04,459.29c-3.38,6.25-12.87,6.47-23.06,6.72-10.96,.26-23.03,.55-26.77-6.72-3.17-6.17,1.03-15.09,5.98-19.93,10.44-10.21,30.91-8.78,39.86,1.99,3.61,4.35,7.05,12.27,3.99,17.94Z"/></g><g><g><path class="cls-29" d="M248.56,439.49c6.12,6.28,8.77,17.54,4.23,23.25-1.13,1.42-3.26,3.2-25.68,3-17.15-.15-19.33-1.22-20.83-3-4.65-5.53-1.97-16.93,4.23-23.25,6.22-6.34,14.78-6.34,19.02-6.34s12.84,0,19.02,6.34Z"/><g class="cls-31"><path class="cls-42" d="M237.01,444.57c-.39,.86-4.48-.61-7.07-1.82-2.74-1.29-7.49-4.03-12.47-9.99,.97-.5,1.94-1,2.91-1.51,2.58,1.47,6.09,3.65,9.98,6.71,2.19,1.72,7.11,5.59,6.65,6.61Z"/><path class="cls-42" d="M217.67,444.94c.36,.67,3.53-.41,5.11-.95,3.88-1.32,7.15-3.03,10.13-4.86,2.21-1.36,5.15-3.34,8.39-6.03-.59-.88-1.19-1.77-1.78-2.65-4.28,1.64-7.69,3.43-10.13,4.86-3.88,2.28-6.08,4.1-8.39,6.03-3.47,2.9-3.41,3.44-3.32,3.6Z"/></g></g><path class="cls-14" d="M248.56,439.49c6.12,6.28,8.77,17.54,4.23,23.25-1.13,1.42-3.26,3.2-25.68,3-17.15-.15-19.33-1.22-20.83-3-4.65-5.53-1.97-16.93,4.23-23.25,6.22-6.34,14.78-6.34,19.02-6.34s12.84,0,19.02,6.34Z"/></g><g><g><path class="cls-29" d="M230.42,435.47c-3.29,5.79-12.05,5.91-22.12,6.03-10.93,.14-20.31,.26-24.13-6.03-3.61-5.93-.7-15.01,4.02-20.11,9.36-10.11,29.4-8.41,38.21,2.01,3.77,4.46,7.18,12.54,4.02,18.1Z"/><g class="cls-39"><g><path class="cls-42" d="M217.79,421.46c-.64,.97-4.81-.67-7.38-2.04-2.72-1.45-7.29-4.54-11.3-11.3,1.2-.58,2.41-1.15,3.61-1.73,2.49,1.65,5.83,4.12,9.36,7.58,1.99,1.95,6.46,6.33,5.7,7.48Z"/><path class="cls-42" d="M197.52,418.97c.35,.87,3.69,.29,5.34,0,4.07-.71,7.52-2.03,10.67-3.56,2.34-1.13,5.45-2.84,8.89-5.34-.59-1.19-1.19-2.37-1.78-3.56-4.5,1-8.09,2.39-10.67,3.56-4.1,1.86-6.44,3.55-8.89,5.34-3.69,2.69-3.65,3.34-3.56,3.56Z"/></g></g></g><path class="cls-14" d="M230.42,435.47c-3.29,5.79-12.05,5.91-22.12,6.03-10.93,.14-20.31,.26-24.13-6.03-3.61-5.93-.7-15.01,4.02-20.11,9.36-10.11,29.4-8.41,38.21,2.01,3.77,4.46,7.18,12.54,4.02,18.1Z"/></g><g><path class="cls-28" d="M302.06,361.5c-2.74-2.04-3.09-7.1-1.65-9.05,10.92-14.76,19.04-25.45,20.39-26.84,.75-.77,1.62-1.34,1.62-1.34,.09-.06,.43-.28,.94-.54,.92-.47,1.7-.7,1.94-.76,1.03-.27,3.57-.54,5.35,.9,1.14,.92,1.45,2.12,1.74,3.24,.57,2.23,.18,4.12,0,4.87-1.46,6.07-8,15.08-12.17,21.09-3.63,5.24-4.62,6.99-7.49,8.35-2.99,1.42-7.79,2.22-10.68,.08Z"/><path class="cls-28" d="M310.73,370.21c-2.74-1.81-2.07-6.27-1.65-9.05,.94-6.26,3.72-8.31,18.97-25.65,.83-.94,4.84-5.5,10.13-6.3,2.65-.4,3.79,.43,4.05,.63,.45,.35,1.32,1.24,1.35,3.78,.05,4.21-2.29,7.54-2.77,8.21-2.87,3.98-10.12,13.83-20.39,26.84-2.22,2.92-6.56,3.61-9.69,1.54Z"/><path class="cls-28" d="M313.28,371.67c-3.94,1.56-8.44-.02-10.04-3.54l-17.71-38.88c-2.27-4.06-.96-8.62,1.92-10.35,3.43-2.06,9.93-.64,12.35,4.69l17.71,38.88c1.6,3.52-.29,7.64-4.24,9.2Z"/><path class="cls-28" d="M297.32,366.56c-3.5,1.47-7.62,.02-9.2-3.25l-21.44-44.35c-2.93-4.74-1.39-9.89,1.42-11.31,2.98-1.51,8.96,.39,11.26,5.97l21.44,44.35c1.58,3.27,.02,7.11-3.48,8.58Z"/><path class="cls-28" d="M287.87,371.61c-3.69,1.71-8.16,.31-9.99-3.13l-21.22-39.83c-3.59-5.47-1.98-11.37,1.01-12.89,3.07-1.56,9.54,.52,12.33,6.7l21.22,39.83c1.83,3.44,.33,7.61-3.35,9.33Z"/><path class="cls-22" d="M330,384.03h-59.9c-.59-.09-1.44-.29-2.35-.76-2.46-1.27-3.65-3.64-5.2-7.85-1.79-4.86-2.79-8.7-3.15-10.11,0,0-2.93-11.41-.94-13.88,.78-.97,1.78-1.35,1.78-1.35,.44-.17,.92-.26,1.43-.26h76.77c.98,.17,2.28,.57,3.21,1.61,1.53,1.72,1.16,4.17-.09,9.95-1.85,8.53-2.93,11.82-4.05,14.71-1.38,3.54-2.69,6.14-5.4,7.36-.82,.37-1.57,.52-2.1,.59Z"/><path class="cls-5" d="M311.55,356.28c-10.15,9.36-12.12,15.79-18.51,16.33-3.2,.27-5.96-1.07-8.54-2.33-4.56-2.22-6.83-5.24-8.54-7.58-3.54-4.83-4.64-9.59-4.98-12.83h48.4c-1.79,1.3-4.65,3.48-7.83,6.41Z"/></g><g><g><rect class="cls-41" x="127.76" y="400.4" width="12.1" height="65.49"/><path class="cls-14" d="M127.76,400.4v65.49"/><path class="cls-14" d="M139.86,400.4v65.49"/></g><g><rect class="cls-41" x="122.06" y="383.32" width="265.52" height="17.08"/><polyline class="cls-14" points="387.58 383.32 122.06 383.32 122.06 400.4 387.58 400.4"/></g></g><g><path class="cls-11" d="M92.74,412.4v-1.59c0-.1-.02-.2-.05-.3-.21-6.73-1.32-21.12-10.07-32.31-1.91-2.44-4.66-5.96-9.43-8.45-10.95-5.72-21.75-.37-22.98,.27-8.66,4.48-12.54,12.68-14.05,15.86-4.14,8.75-4.68,18.43-4.82,24.67-.02,.08-.04,.17-.04,.26v1.59c-.02,1.19-.01,2.17,0,2.87v43.73c0,.59,.48,1.07,1.07,1.07h4.95c.59,0,1.07-.48,1.07-1.07v-43.72h0s0,0,0,0v-2.87s0,0,0,0c.12-8.22,.27-18,4.73-26.48,1.29-2.45,3.96-7.49,9.45-10.59,6.36-3.59,14.47-3.42,20.62,.77,3.51,2.39,5.38,5.42,6.6,7.4,5.59,9.05,5.74,20.23,5.86,28.91,0,0,0,0,0,0v2.63s0,0,0,0h0v43.95c0,.59,.48,1.07,1.07,1.07h4.95c.59,0,1.07-.48,1.07-1.07v-43.72c.01-.67,.02-1.66,0-2.87Z"/><path class="cls-11" d="M109.05,463.84c-1.42,2.05-3.71,3.19-6.09,3.19H15.93c-2.03,0-3.77-2.17-4.12-5.13-.65-2.69-1.25-5.64-1.77-8.83-1.23-7.6-1.63-14.51-1.65-20.3,0-.22,0-.43-.02-.65-.06-.75-.13-2.91,.95-4.79,.76-1.33,1.9-2.19,3.19-2.19H109.17c2.59,0,4.55,3.44,4.12,7.21,0,5.87-.38,12.93-1.65,20.72-.52,3.19-1.12,6.14-1.77,8.83-.03,.26-.12,.93-.83,1.94Z"/><rect class="cls-11" x="5.32" y="425.14" width="111.05" height="8.37"/></g><g><path class="cls-16" d="M10.4,426.25c-.14-2.7-.04-4.42,0-5.04,.09-1.36,.58-8.54,2.32-8.83,.98-.16,1.93,1.96,3.47,5.04,1.58,3.16,3.86,7.49,6.95,12.61-1.15,1.11-3.07,2.68-5.79,3.78-2.31,.94-4.37,1.2-5.79,1.26-.51-2.41-.98-5.39-1.16-8.83Z"/><path class="cls-16" d="M8.08,433.81c.77-1.54,.44-3.08,0-5.04-.42-1.88-1.31-5.8-4.63-8.83-1.62-1.48-4.66-3.51-5.79-2.52-.64,.56-.14,1.61,0,5.04,.18,4.31-.53,4.67,0,7.07,.15,.69,.95,3.67,3.47,5.54,.77,.57,1.92,1.43,3.47,1.26,1.5-.16,2.82-1.21,3.47-2.52Z"/><path class="cls-16" d="M21.98,427.51c2.02-6.16,7.29-11.17,9.26-10.09,.64,.35,.81,1.91,1.16,5.04,.44,3.98,.66,5.96,0,7.57-1.05,2.53-3.22,3.68-5.79,5.04-2.19,1.16-3.64,1.93-4.63,1.26-1.72-1.16-.95-5.93,0-8.83Z"/><path class="cls-16" d="M21.98,436.33c1.01-2.4,1.79-4.29,3.47-6.3,2.46-2.94,5.1-4.19,6.95-5.04,.45-.21,5.17-2.35,5.79-1.26,.32,.56-.57,1.71-1.16,2.52-2.49,3.45-2.53,4.85-3.81,7.68-.19,.42-.37,.79-.55,1.15,0,0-.61,1.21-1.42,2.52-.76,1.22-2.36,3.51-4.63,6.3h-6.95c.37-1.86,1.04-4.54,2.32-7.57Z"/><path class="cls-16" d="M13.87,443.9c-.85-2.04-2.02-5.79-1.16-10.09,.48-2.39,1.86-4.54,4.63-8.83,3.27-5.07,4.21-5.13,4.63-5.04,1.27,.27,1.81,2.74,2.32,5.04,1.09,4.99,.22,9.1,0,10.09-.63,2.76-1.72,5.05-2.32,6.3-.5,1.05-.97,1.91-1.33,2.52h-6.78Z"/><path class="cls-16" d="M13.87,443.9c.44-1.17,.97-2.9,1.16-5.04,.4-4.5-.92-7.9-2.32-11.35-.46-1.14-3.84-9.38-5.79-8.83-.43,.12-.65,.64-1.16,2.52-1.32,4.89-1.82,8.62-2.32,13.87-.15,1.55-.23,2.5,0,3.78,.41,2.35,1.53,4.06,2.32,5.04H13.87Z"/><path class="cls-16" d="M6.93,438.86c-.58-2.74-1.97-4.45-3.47-6.3-1.16-1.42-2.89-3.52-5.79-5.04-2.5-1.32-6.28-2.42-6.95-1.26-.43,.76,.9,1.74,2.32,5.04,1.46,3.42,.98,4.61,2.32,7.57,.6,1.32,1.62,3.14,3.47,5.04H6.93c.22-1.12,.45-2.94,0-5.04Z"/><path class="cls-26" d="M25.53,466.06H.71c-1.23,0-2.3-.81-2.6-1.96l-5.91-22.84c-.42-1.63,.86-3.21,2.6-3.21H31.44c1.74,0,3.02,1.58,2.6,3.21l-5.91,22.84c-.3,1.15-1.37,1.96-2.6,1.96Z"/><path class="cls-26" d="M28.94,467.32H-2.23c-.66,0-1.25-.4-1.53-1.02l-1.79-4.06c-.51-1.16,.3-2.49,1.53-2.49H30.73c1.23,0,2.04,1.33,1.53,2.49l-1.79,4.06c-.27,.62-.87,1.02-1.53,1.02Z"/></g><g><path class="cls-1" d="M207.74,375.68c-2.69-2.63-3.57-5.39-3.57-5.39-1.57-4.83,.04-11.09,1.48-13,.18-.23,.87-1.08,1.01-2.32,.08-.69-.04-1.22-.12-1.62-.16-.8-.35-1.92-.51-3.27-.16-1.34-.27-2.28-.25-3.24,.04-1.52,.11-4.12,1.54-5.23,2.25-1.74,7.75,.28,10.5,2.55,.45,.37,1.35,1.19,2.81,1.59,1.21,.34,1.9,.13,3.48,.04,4.37-.24,5.74,.95,6.99-.18,.4-.36,.19-.42,1.3-2.57,.55-1.07,1.24-2.28,1.59-2.81,1.37-2.03,4.71-4.24,7.01-3.39,1.92,.71,2.6,3.37,3.89,8.45,.84,3.31,.48,3.5,1.1,4.61,1.81,3.23,5.54,2.95,11.09,5.02,2.17,.81,8.66,3.33,12.86,9.2,1.11,1.56,4.4,6.17,2.83,10.28-.61,1.6-1.75,2.72-3.38,3.75-8.01,5.09-16.74,5.6-16.74,5.6-11.96,.7-34.56,2.02-44.93-8.09Z"/><path class="cls-1" d="M225.73,378.68c-.82-3.88-6.6-5.41-9.68-5.7-2.27-.21-6.45-.6-8.51,2.32-1.46,2.07-1.4,5.17,0,7.19,1.79,2.59,5.18,2.6,9.03,2.61,2.99,0,6.52,.03,8.27-2.48,.16-.22,1.32-1.94,.89-3.94Z"/><path class="cls-3" d="M236.25,372.11c-4.31-.35-6.99,.79-8.56,1.81-.06,.04-.19,.12-.36,.25-2.33,1.65-5.27,4.95-4.54,7.46,.51,1.74,2.6,2.51,4.02,3.04,5.28,1.96,10.14-.93,10.57-1.2,1.92-1.18,3.13-2.66,3.82-3.68"/><path class="cls-3" d="M273.12,370.86c.06,.72,.1,1.74,0,2.95-.11,1.4-.6,5.47-2.92,8.59-1.94,2.6-4.65,3.83-7.95,4.92-7.62,2.51-16.45,2.95-28.87,2.33-12.32-.62-14.68-1.61-15.06-3.06-.45-1.7,1.91-3.85,3.38-4.79,1.4-.9,3.4-1.6,9.48-1.03,6.3,.59,6.52,1.56,11.11,1.8,4.03,.21,6.9-.37,10.84-1.17,7.06-1.44,8.88-3.14,9.77-4.22,.86-1.04,1.33-2.08,1.59-2.81"/><path class="cls-3" d="M211.83,363.83c1.08,.14,2.53,.23,4.21,0,1.35-.18,2.48-.51,3.37-.84"/><path class="cls-3" d="M226.99,362.99c.88,.33,2.02,.66,3.37,.84,1.68,.23,3.13,.14,4.21,0"/></g><rect class="cls-40" x="-26.93" y="203.02" width="424.3" height="263.73"/><polygon class="cls-35" points="398.36 203.02 253.26 467.39 398.36 466.74 398.36 203.02"/><path class="cls-35" d="M50.08,192.91c-27.57,48.09-55.14,96.18-82.71,144.28-.29,12.82-.58,25.65-.87,38.47C1.61,314.75,36.73,253.83,71.85,192.91h-21.77Z"/><path class="cls-35" d="M-26.39,287.76c16.32-28.16,32.65-56.32,48.97-84.48-16.19-.09-32.39-.17-48.58-.26-.13,28.25-.26,56.5-.39,84.74Z"/><rect class="cls-20" x="180.09" y="-23.32" width="12.25" height="440.89" transform="translate(383.34 10.91) rotate(90)"/><g><rect class="cls-20" x="-44.01" y="466.82" width="460.44" height="19.07"/><rect class="cls-20" x="-33.53" y="485.89" width="437.78" height="7.11"/></g><g><g><path class="cls-6" d="M72.8,181.87c-5.12,5.95-18,19.13-35.9,19.13S6.12,187.82,1,181.87V79.36H72.8v102.52Z"/><path class="cls-5" d="M144.6,181.87c-5.12,5.95-18,19.13-35.9,19.13s-30.78-13.18-35.9-19.13V79.36h71.8v102.52Z"/><path class="cls-6" d="M216.4,181.87c-5.12,5.95-18,19.13-35.9,19.13s-30.78-13.18-35.9-19.13V79.36h71.8v102.52Z"/><path class="cls-5" d="M288.2,181.87c-5.12,5.95-18,19.13-35.9,19.13s-30.78-13.18-35.9-19.13V79.36h71.8v102.52Z"/><path class="cls-6" d="M360,181.87c-5.12,5.95-18,19.13-35.9,19.13s-30.78-13.18-35.9-19.13V79.36h71.8v102.52Z"/></g><polyline class="cls-18" points="360 153.44 360 116.89 288.2 116.89 288.2 153.44"/><polyline class="cls-25" points="288.2 153.44 288.2 116.89 216.4 116.89 216.4 153.44"/><polyline class="cls-18" points="216.4 153.44 216.4 116.89 144.6 116.89 144.6 153.44"/><polyline class="cls-25" points="144.6 153.44 144.6 116.89 72.8 116.89 72.8 153.44"/><polyline class="cls-18" points="72.8 153.44 72.8 116.89 1 116.89 1 153.44"/></g><g><path class="cls-21" d="M393.99,60.25c-9.33-17.42-18.67-34.84-28-52.25H-9.98c-9.34,17.49-18.68,34.98-28.02,52.46,0,19.12,.02,38.24,.02,57.36,0,3.41,1.15,6.17,2.57,6.17H391.43c1.42,0,2.57-2.77,2.57-6.18V60.25Z"/><line class="cls-14" x1="-38" y1="60.46" x2="393.99" y2="60.46"/></g><g><path class="cls-19" d="M39.9,671.5h11.64v6c0,.72-.59,1.31-1.31,1.31h-9.02c-.72,0-1.31-.59-1.31-1.31v-6h0Z"/><path class="cls-19" d="M79.7,671.5h11.64v5.98c0,.74-.6,1.33-1.33,1.33h-8.98c-.74,0-1.33-.6-1.33-1.33v-5.98h0Z"/><path class="cls-19" d="M93.74,673.71H38.03c-1.82,0-3.36-1.06-3.59-2.47l-7.87-46.5c-.29-1.71,1.4-3.22,3.59-3.22H101.61c2.19,0,3.88,1.52,3.59,3.22l-7.87,46.5c-.24,1.42-1.78,2.47-3.59,2.47Z"/><rect class="cls-19" x="20.6" y="614.61" width="90.57" height="11.78"/><path class="cls-2" d="M3.73,579.64c.65,.91,3.06,.21,3.85,0,11.69-3.16,25.67,3.35,35.76-4.95,.95-.78,5.91-4.86,5.22-9.49-.36-2.43-2.12-4.02-3.02-4.81-6.38-5.61-17.02-2.67-18.7-2.2-5.89,1.63-9.68,4.78-13.2,7.7-3.36,2.79-4.85,4.85-7.7,8.8-1.98,2.74-2.71,4.23-2.2,4.95Z"/><path class="cls-2" d="M68.64,563.14c-1.05,.08-1.71-.86-2.75-1.65-1.77-1.34-3.64-1.46-6.6-1.65-2.15-.14-6.36-.41-10.45,2.2-1.15,.73-3.96,2.53-5.29,6.14-1.3,3.53-.4,6.65,0,7.99,1.3,4.3,4.33,6.79,6.39,8.43,2.11,1.68,2.88,1.74,9.35,4.95,.3,.15,3.68,1.93,10.45,5.5,5.88,3.1,8.86,4.69,10.45,6.6,2.37,2.84,2.45,4.85,3.85,4.95,2.78,.2,5.42-7.55,6.6-11,1.46-4.28,2.85-8.33,2.72-14.02-.08-3.65-.21-9.73-4.37-15.14-.98-1.27-3.23-4.14-7.27-5.71-.78-.3-7.3-2.84-10.42,0-1.07,.98-1.45,2.32-2.66,2.41Z"/><path class="cls-2" d="M77.53,599.45c-2.95-.32-5.13,1.27-6.9,2.57-3.72,2.72-5.13,6.39-5.82,8.26-.93,2.5-1.13,4.62-1.11,6.22,.02,1.25,.07,4.94,1.65,5.5,.97,.35,2.01-.67,3.3-1.65,4.76-3.63,6.92-2.23,10.45-4.95,2.72-2.1,6.41-6.77,4.95-11-.92-2.67-3.71-4.64-6.52-4.95Z"/><path class="cls-2" d="M92.3,603.3c-1.54,.92-3.18-.46-4.95-.55-3.19-.16-6.58,3.92-7.7,7.7-.13,.44-1.53,5.32,1.4,9.58,1.89,2.74,4.54,3.82,6.85,4.73,4.01,1.57,5.44,.82,12.1,1.65,8.4,1.04,10.76,2.81,12.65,1.1,1.82-1.64,1.46-4.9,1.1-8.25-.09-.82-.51-4.27-2.65-8.3-.94-1.77-3.46-5.99-8.12-8.8-1.79-1.08-2.96-1.38-3.93-1.49-.81-.09-3.77-.31-5.69,1.49-.63,.59-.53,.82-1.07,1.14Z"/><path class="cls-2" d="M42.79,583.49c1.16,.8,2.79-.11,4.4-.55,2.97-.82,5.53,.02,8.8,1.1,2.23,.73,5.99,1.97,8.8,5.5,3.54,4.44,3.32,9.68,3.26,11.02-.33,7.61-5.56,12.84-9.31,16.48-.23,.23-.84,.78-1.65,1.45-3.59,2.96-8.48,5.77-22.01,9-5.55,1.33-11.48,2.47-18.7,2.75-6.57,.26-9.51-.38-10.45-2.2-.73-1.41,.35-2.41,1.1-5.5,1.48-6.1-1.2-8.38-.55-17.6,.1-1.38,.44-5.89,1.65-6.05,.63-.08,.89,1.1,2.2,2.2,1.75,1.47,4.91,2.4,7.7,1.1,3.09-1.44,3.81-4.73,3.85-4.95,.44-2.19-.19-4.51-1.65-6.05-1.63-1.73-3.87-2.05-4.95-2.2-2.33-.33-3.4,.35-3.74-.16-.69-1.03,2.86-4.96,6.76-7.76,5-3.6,10.01-4.03,11.83-4.18,3.45-.28,5.45,.35,6.05,.55,1.57,.53,4.32,1.45,5.5,3.85,.52,1.06,.4,1.72,1.1,2.2Z"/><path class="cls-2" d="M114.54,587.01c-.55,2.48-1.83,8.3-7.7,11.79-7.76,4.61-19.15,2.51-22.88-2.89-.59-.86-2.07-3.38-1.15-6.42,1.33-4.39,6.71-6.7,7.32-6.96,6.61-2.75,10.15,1.19,17.6-1.77,2.85-1.13,4.13-2.42,5.54-1.94,2.81,.95,1.39,7.64,1.27,8.19Z"/></g><g><polygon class="cls-9" points="159.7 678.97 118.14 678.97 114.71 644 163.13 644 159.7 678.97"/><g><path class="cls-12" d="M169.78,604.7c.22,.51-1.03,1.31-4.25,4.25,0,0-3.51,3.21-7.08,7.08-1.85,2-5.83,6.98-8.5,17-2.36-1.42-4.72-2.83-7.08-4.25,.55-3.63,2.61-13.74,11.15-19.71,6.5-4.54,15.23-5.6,15.77-4.37Z"/><path class="cls-12" d="M174.74,615.55c-.21-1.28-5.48-1.77-9.85-1.16-2.26,.32-7.62,1.07-11.59,5.22-3.09,3.23-3.43,6.53-4.06,6.37-.99-.24-.8-8.81,2.32-17.39,1.46-4.03,3.46-9.63,8.3-15.23,2.38-2.76,4.78-4.74,4.25-5.67-.67-1.16-5.29-.04-8.5,1.42-10.59,4.8-14.78,17.44-15.58,19.83-2.06,6.11-2.51,12.08-3.35,12-.4-.04-.44-1.38-1.02-3.56-.75-2.8-1.76-4.63-3.31-7.44-4.81-8.71-12.15-15.17-12.15-15.17-4.61-4.05-8.27-5.92-10.66-6.95-2.48-1.06-5.68-2.43-6.34-1.55-1,1.33,5.42,5.86,12.75,17,7.24,11.01,10.35,21.03,9.92,21.25-.2,.1-.87-1.37-2.83-2.83-1.9-1.42-3.78-1.91-4.51-2.09-5.43-1.35-10.16,1.51-11.08,2.09-3.68,2.33-6.33,6.25-5.67,7.08,.43,.55,1.95-.63,5.67-1.42,2.98-.63,6.56-1.39,9.34,.36,.93,.58,1.76,1.69,3.41,3.89,1.27,1.69,2.21,3.18,2.83,4.25h14.16c3.68,0,9.83,0,20.74-.03,.02-1.78,.3-4.56,1.75-7.49,1.83-3.69,4.63-5.85,6.94-7.58,4.86-3.65,8.28-4.16,8.11-5.22Z"/></g><rect class="cls-9" x="110.79" y="632.84" width="56.47" height="11.17" rx="4.4" ry="4.4"/></g><g id="chalkboard"><path class="cls-17" d="M282.05,679.26h9.98c.54,0,.97-.43,.97-.95v-11.68c0-.53-.43-.95-.97-.95h-9.98c-.54,0-.97,.43-.97,.95v11.68c0,.53,.43,.95,.97,.95Z"/><path class="cls-38" d="M371.55,661.07c-15.42-.25-30.84-.49-46.25-.74,2.35-22.46,4.69-44.93,7.04-67.39,15.17,.09,30.34,.18,45.51,.27-2.1,22.62-4.19,45.24-6.29,67.87Z"/><rect class="cls-17" x="360.47" y="658.33" width="12.2" height="5.48"/><path class="cls-23" d="M356.77,665.68c-28.56-.46-57.12-.91-85.67-1.37,4.34-41.61,8.69-83.22,13.03-124.83,28.1,.17,56.19,.33,84.29,.5-3.88,41.9-7.76,83.8-11.64,125.7Z"/><g class="cls-34"><g><path class="cls-24" d="M294.7,557.94c5.05-3.34,7.86-3.22,9.49-2.49,1.68,.76,2.2,2.22,4.75,3.05,2.4,.78,4.62,.26,4.93,.19,2.76-.65,3.21-2.18,5.46-2.14,1.71,.03,1.92,.92,3.27,.71,2.24-.35,2.42-2.92,4.13-3.13,2.46-.3,4.22,4.75,6.26,4.27,1.33-.31,1.36-2.63,2.7-2.75,.97-.09,1.36,1.08,2.85,2.04,1.35,.87,2.47,.83,5.55,1,1.68,.09,4.1,.26,7.12,.57"/><path class="cls-24" d="M294.72,581.12c4.21-1.27,6.66-.7,8.12,.11,.95,.52,2.12,1.49,4.03,1.6,.8,.05,1.47-.07,2.83-.31,2.69-.47,2.75-.88,3.71-.72,1.55,.26,1.77,1.38,3.4,1.79,1.26,.31,2.43-.05,3.16-.36"/><path class="cls-24" d="M294.44,570.12c1.64-.25,2.96-.52,3.87-.72,2.98-.67,4.19-1.2,5.43-.52,.67,.37,.64,.7,1.53,1.19,1.08,.6,2.18,.69,2.97,.67"/><path class="cls-24" d="M308.24,570.74c1.88-1.53,3.12-1.62,3.9-1.44,1.24,.3,1.41,1.32,2.78,1.44,.99,.09,1.37-.41,3.01-.51,.73-.05,1.33,0,1.71,.06"/><g><path class="cls-27" d="M349.09,587.84c1.08,1.14,.77,3,.35,4.03-.58,1.39-1.43,1.39-1.77,2.67-.39,1.49,.68,1.87,.42,3.23-.45,2.45-4.34,3.75-5.21,4.04-1.06,.36-1.81,.42-2.2,.43-.68,.02-1.91-.04-3.19-.67-.05-.03-.12-.06-.21-.11-1.49-.79-2.19-2.03-2.36-2.36-.89-1.68,.06-2.27-.85-3.41-.58-.72-1.06-.6-2.03-1.39-1.41-1.16-1.85-2.62-1.96-2.97-.64-2.08,.16-4.42,1.77-6.03,2.27-2.29,5.45-2.39,6.68-2.43,1.2-.04,3.09-.1,4.53,.93,1.12,.8,.8,1.42,2,2.33,1.67,1.28,2.98,.59,4.03,1.7Z"/><path class="cls-30" d="M342.95,592.23c-.18,1.44-1.62,2.37-2.9,2.35-1.79-.03-3.38-1.92-2.94-3.53,.35-1.3,1.93-2.11,3.35-1.86,1.37,.25,2.67,1.52,2.49,3.03Z"/></g><path class="cls-24" d="M326.26,569.9c2.23,1.44,3.94,1.6,5.07,1.5,2.51-.22,3.55-1.87,5.48-1.36,1.64,.43,1.76,1.84,3.18,2.09,1.14,.2,2.61-.44,4.54-2.78"/><g><path class="cls-10" d="M289.86,651.27c.93,.76,2.15,1.13,3.04,1.4,.33,.1,.99,.29,3.48,.58,1.03,.12,2.28,.22,4.75,.42,2.26,.18,3.4,.26,4.18-.03,.54-.21,1.31-.61,2.26-1.67,2.75-3.08,4.52-8.85,4.91-10.15-2.41-1.45-6.21-3.35-11.2-4.34-6.14-1.22-11.26-.52-14.26,.13,.07,2.68,.3,4.91,.51,6.53,.71,5.44,1.58,6.54,2.32,7.14Z"/><path class="cls-30" d="M312.09,643.06c-1.61,.34-3.17-.12-4.16-.82-.75-.53-1.37-.96-1.64-1.74-.09-.27-.15-.6-.4-.69-.3-.12-.55,.24-1.15,.5-.11,.05-.95,.4-1.92,.17-.31-.07-.95-.23-1.35-.76-.32-.43-.32-.88-.52-.89-.18-.01-.25,.32-.5,.62-.51,.6-1.46,.76-2.17,.64-.11-.02-1.06-.2-1.6-.97-.21-.3-.21-.48-.4-.56-.45-.19-1.07,.58-1.74,1.14-1.22,1.02-2.69,1.44-3.63,1.52-.25,.02-2.27,.17-3.74-1.13-2.13-1.9-1.43-5.36-1.17-6.66,.18-.86,.84-3.54,2.98-5.17,.51-.38,1.3-.99,2.45-1.17,.71-.11,1.01,.02,1.89-.06,1.18-.12,1.98-.5,2.41-.66,1.48-.58,3.02-.46,5.82-.23,.66,.05,3.55,.32,7.09,1.59,1.67,.6,2.71,.98,3.88,1.93,.42,.34,1.65,1.4,2.59,3.22,.67,1.29,2.17,4.2,.85,7-.16,.34-1.29,2.65-3.87,3.21Z"/><path class="cls-10" d="M308.63,623c.07,.37,.51,2.89-.41,5.21-.17,.44-.38,.83-.75,1.18-.61,.58-1.36,.74-2.27,.85-1.51,.18-2.64,.31-4.34,0-2.14-.39-3.72-.68-4.7-2.04-.9-1.26-.78-2.75-.71-3.5,.21-2.5,1.77-4.14,2.6-5.02,1.1-1.17,3.45-3.65,5.98-3.07,1.52,.35,2.47,1.66,3.09,2.53,1.06,1.47,1.32,2.89,1.5,3.86Z"/></g><path class="cls-24" d="M321.43,593.89c-7.44-1.38-11.93-.82-14.71,0,0,0-3.83,1.14-4.26,.18-.21-.48,.67-1.41,.34-2.27-.03-.07-.07-.13-.14-.19-.68-.55-2.68,.18-5.77,.14-1.41-.02-2.74-.24-3.17-.32-.54-.1-.98-.21-1.29-.29"/></g></g><rect class="cls-7" x="273.31" y="659.63" width="81.24" height="6.23"/><rect class="cls-7" x="286.9" y="536.74" width="81.51" height="5.48"/><path class="cls-7" d="M368.27,535.25h6.99c.64,0,1.14,.55,1.08,1.19l-15.03,152.31c-.05,.56-.52,.98-1.08,.98h-10.27c-.65,0-1.16-.57-1.08-1.22l18.32-152.31c.07-.55,.53-.96,1.08-.96Z"/><path class="cls-7" d="M260.22,689.73h11.6c.22,0,.41-.17,.43-.39l16.54-153.62c.03-.26-.17-.48-.43-.48h-9.39c-.22,0-.4,.16-.43,.38l-18.75,153.62c-.03,.26,.17,.48,.43,.48Z"/><path class="cls-24" d="M328.48,613.25c1.77-1.7,3.04-1.81,3.89-1.57,.92,.26,1.07,.85,3.11,1.96,1.22,.66,1.84,.99,2.68,.95,1.16-.06,1.53-.73,2.53-1,.83-.23,2.1-.17,3.82,1.37"/></g><g><path class="cls-30" d="M103.1,256.23c1.26,2.31,3.52,3.9,6.43,3.9,4.34,0,6.1-2.2,6.1-7.86v-21.17c0-1.7,.83-2.58,2.42-2.58h.83c1.59,0,2.42,.88,2.42,2.58v21.23c0,8.63-3.68,12.7-11.33,12.7-5.72,0-9.46-3.02-9.46-5.72,0-2.14,2.47-3.3,2.58-3.08Z"/><path class="cls-30" d="M138.46,261.18v-29.26c0-1.92,1.21-3.19,3.02-3.19h20.62c1.76,0,2.64,.88,2.64,2.36v.33c0,1.54-.88,2.36-2.64,2.36h-17.98v9.95h13.91c1.81,0,2.64,.77,2.64,2.25v.17c0,1.54-.88,2.36-2.64,2.36h-13.91v10.78h18.31c1.76,0,2.58,.77,2.58,2.25v.27c0,1.59-.83,2.47-2.58,2.47h-20.95c-1.82,0-3.02-1.21-3.02-3.13Z"/><path class="cls-30" d="M178.61,257.94c0-1.87,2.42-3.24,2.58-3.02,2.03,2.97,5.83,5.44,10.72,5.44s7.75-2.03,7.75-5.55c0-4.01-4.18-4.95-8.91-6.05-5.5-1.26-11.22-3.19-11.22-10.39,0-6.05,5.22-10.34,12.81-10.34,4.67,0,8.08,1.32,10.06,2.91,1.43,1.1,2.15,2.36,2.15,3.41,0,2.03-2.53,3.3-2.64,3.13-1.87-2.69-5.39-4.78-9.51-4.78-4.45,0-7.37,2.14-7.37,5.44,0,3.9,3.46,4.51,8.41,5.66,6.05,1.37,11.88,3.74,11.88,10.61s-5.06,10.61-13.36,10.61c-5.5,0-9.4-1.7-11.55-3.68-1.21-1.15-1.81-2.36-1.81-3.41Z"/><path class="cls-30" d="M218.98,257.94c0-1.87,2.42-3.24,2.58-3.02,2.03,2.97,5.83,5.44,10.72,5.44s7.75-2.03,7.75-5.55c0-4.01-4.18-4.95-8.91-6.05-5.5-1.26-11.22-3.19-11.22-10.39,0-6.05,5.22-10.34,12.81-10.34,4.67,0,8.08,1.32,10.06,2.91,1.43,1.1,2.15,2.36,2.15,3.41,0,2.03-2.53,3.3-2.64,3.13-1.87-2.69-5.39-4.78-9.51-4.78-4.45,0-7.37,2.14-7.37,5.44,0,3.9,3.46,4.51,8.41,5.66,6.05,1.37,11.88,3.74,11.88,10.61s-5.06,10.61-13.36,10.61c-5.5,0-9.4-1.7-11.55-3.68-1.21-1.15-1.81-2.36-1.81-3.41Z"/><path class="cls-30" d="M258.91,239.96l2.92-9.35c.55-1.76,.93-2.58,2.86-2.58h.5c1.38,0,2.31,.88,2.31,2.58v.22c0,1.1-.44,2.25-1.26,3.35l-4.56,6.98c-.77,.99-3.24,.38-2.75-1.21Z"/><path class="cls-30" d="M119.76,283.02c4.45,0,7.81,1.26,10.06,2.86,2.25,1.54,3.35,3.41,3.35,4.67,0,2.64-3.19,3.3-3.3,3.08-2.04-3.57-6.05-5.5-10.06-5.5-7.2,0-12.26,5.44-12.26,13.36s5.22,13.42,12.37,13.42c4.78,0,8.8-2.37,10.28-6.21,.11-.27,3.52,.39,3.52,3.03,0,1.32-1.16,3.41-3.52,5.11-2.37,1.76-5.88,3.19-10.61,3.19-10.56,0-17.93-7.59-17.93-18.42s7.42-18.59,18.09-18.59Z"/><path class="cls-30" d="M146,317.89l12.65-32.67c.44-1.15,1.32-1.81,3.9-1.81s3.46,.66,3.9,1.81l12.76,32.67c.17,.44-1.43,1.7-3.13,1.7-1.26,0-2.58-.6-3.35-2.64l-3.13-8.08h-14.24l-3.13,8.14c-.71,1.98-1.92,2.58-3.13,2.58-1.65,0-3.25-1.21-3.08-1.7Zm22.16-13.58l-5.72-15.07-5.72,15.07h11.44Z"/><path class="cls-30" d="M193.63,286.93c0-1.92,1.21-3.19,3.02-3.19h19.19c1.76,0,2.64,.82,2.64,2.31v.33c0,1.54-.88,2.36-2.64,2.36h-16.61v11.33h12.32c1.82,0,2.64,.83,2.64,2.25v.22c0,1.54-.88,2.31-2.64,2.31h-12.21v12.1c0,1.71-.83,2.58-2.47,2.58h-.88c-1.54,0-2.36-1.04-2.36-2.97v-29.64Z"/><path class="cls-30" d="M233.39,316.18v-29.26c0-1.92,1.21-3.19,3.02-3.19h20.62c1.76,0,2.64,.88,2.64,2.36v.33c0,1.54-.88,2.36-2.64,2.36h-17.98v9.95h13.91c1.81,0,2.64,.77,2.64,2.25v.17c0,1.54-.88,2.36-2.64,2.36h-13.91v10.78h18.31c1.76,0,2.58,.77,2.58,2.25v.28c0,1.59-.82,2.47-2.58,2.47h-20.95c-1.82,0-3.02-1.21-3.02-3.13Z"/></g></g></g></g></svg>