<?xml version="1.0" encoding="UTF-8"?><svg id="Layer_2" xmlns="http://www.w3.org/2000/svg" xmlns:xlink="http://www.w3.org/1999/xlink" viewBox="0 0 1920 921"><defs><style>.cls-1,.cls-2,.cls-3,.cls-4,.cls-5,.cls-6,.cls-7,.cls-8,.cls-9,.cls-10{stroke:#5b4e4a;}.cls-1,.cls-3,.cls-4,.cls-11,.cls-12,.cls-5,.cls-6,.cls-13,.cls-14,.cls-7,.cls-8,.cls-9,.cls-15,.cls-10{stroke-miterlimit:10;}.cls-1,.cls-3,.cls-4,.cls-5,.cls-6,.cls-13,.cls-7,.cls-8,.cls-9,.cls-15,.cls-10{stroke-width:2px;}.cls-1,.cls-16{fill:#f9f4ef;}.cls-17{fill:#ffe6b3;}.cls-18{fill:#5b4e4a;}.cls-2{stroke-linejoin:round;}.cls-2,.cls-11{stroke-linecap:round;stroke-width:4px;}.cls-2,.cls-11,.cls-12,.cls-5,.cls-14,.cls-19{fill:none;}.cls-20{fill:#ffd9cf;}.cls-21{fill:#c7d6aa;}.cls-22{fill:#635654;}.cls-23{fill:#9dcebb;}.cls-24,.cls-8{fill:#ffbf73;}.cls-25{clip-path:url(#clippath-2);}.cls-3{fill:#d2bd9f;}.cls-26,.cls-4{fill:#d88b7c;}.cls-11,.cls-13,.cls-14,.cls-15{stroke:#635654;}.cls-27{fill:#abbf95;}.cls-28{fill:#e8c7b1;}.cls-29{clip-path:url(#clippath-1);}.cls-12{stroke:#bddbef;stroke-width:14px;}.cls-30{fill:#f9e5cd;}.cls-31{fill:#97ab89;}.cls-6{fill:#fff6f0;}.cls-13{fill:#d1946b;}.cls-32{clip-path:url(#clippath);}.cls-33{fill:#ff9388;}.cls-14{stroke-width:.75px;}.cls-7{fill:#c1906f;}.cls-9{fill:#ffaa9f;}.cls-15{fill:#bddbef;}.cls-34{fill:#ccb09e;}.cls-10,.cls-35{fill:#9da886;}.cls-36{fill:#ffdb92;}.cls-37{fill:#fca4a4;}</style><clipPath id="clippath"><path class="cls-19" d="M1920,3.88C1280,47.29,640,90.7,0,134.11V921H1920V3.88Z"/></clipPath><clipPath id="clippath-1"><rect class="cls-19" x="280.94" y="503.1" width="131.47" height="167.83" transform="translate(25.22 -14.18) rotate(2.43)"/></clipPath><clipPath id="clippath-2"><rect class="cls-19" x="115.97" y="479.41" width="131.47" height="167.83" transform="translate(-244.18 152.26) rotate(-28.14)"/></clipPath></defs><g id="contact"><rect class="cls-34" y="1" width="1920" height="920"/><g class="cls-32"><g><rect class="cls-9" x="568.2" y="173.19" width="457.17" height="255.92" transform="translate(-44.67 168.79) rotate(-11.77)"/><path class="cls-5" d="M546.92,222.49c8.55,11.05,17.1,22.09,25.64,33.14,74.74,28.06,149.49,56.11,224.23,84.17,63.55-57.35,127.09-114.7,190.64-172.06,2.35-12.82,4.7-25.64,7.06-38.47"/></g><rect class="cls-6" x="1311.99" y="834.1" width="134.02" height="241.74" transform="translate(81.27 -107.81) rotate(4.61)"/><g><g><path class="cls-2" d="M1851.76,806.68c13.47,24.74,23.11,46.01,29.69,61.7,11.11,26.5,13.38,36.8,14.36,46.18,1.76,16.77-.69,29.6-4.66,47.34-5.01,22.41-12.22,51.67-22.51,86.16"/><path class="cls-10" d="M1851.52,814.41s6.68,4.72,14.31,18.05c.29,.5,.89,1.62,.64,2.88-.4,2.01-2.72,3.12-3.75,3.59-10.68,4.94-21.78,3.08-21.78,3.08-17.3-2.89-27.24-14.91-32.93-21.71-6.84-8.18-5.97-10.91-5.55-11.77,.65-1.34,2.67-3.17,13.67-2.82,12.8,.41,24.11,.72,35.4,8.7Z"/><path class="cls-10" d="M1838.18,765.94c11.76,13.78,19.96,36.87,14.15,41.27-6.09,4.61-27.2-11.5-37.39-26.36-4.87-7.11-6.58-13.02-7.81-17.43-1.71-6.14-3.69-13.21-.78-15.52,3.36-2.67,11.49,2.37,17.07,5.82,3.82,2.36,9.25,5.78,14.75,12.22Z"/><path class="cls-10" d="M1898.33,839.56c-4.11,6.62-8.79,9.58-13.67,12.67-2.36,1.49-5.01,2.85-7.59,2.03-1.41-.45-2.73-1.44-3.86-3.47-5.71-10.29-4.68-21.5-4.68-21.5,3.71-19.31,12.53-28.48,17.03-32.3,2.66-2.26,8.6-7.31,12.84-5.42,2.2,.98,3.51,3.63,4.5,10.3,1.68,11.23,3.56,24.61-4.57,37.7Z"/><path class="cls-10" d="M1872.52,857.26c5.55,3.97,7.91,7.72,8.57,8.83,.43,.72,.86,1.66,.86,1.66,.32,.66,1.39,2.89,2.48,6.34,.72,2.3,.68,2.67,.64,2.88-.4,2.01-2.72,3.12-3.75,3.59-10.68,4.94-21.78,3.08-21.78,3.08-17.3-2.89-27.24-14.91-32.93-21.71-6.84-8.18-5.97-10.91-5.55-11.77,.51-1.04,2.15-3.03,13.67-2.82,8.41,.15,24.84,.63,37.8,9.91Z"/><path class="cls-10" d="M1915.79,883.56s-5.38,6.16-19.43,12.36c-.53,.23-1.71,.72-2.93,.34-1.96-.61-2.82-3.03-3.19-4.1-3.8-11.14-.81-21.99-.81-21.99,4.67-16.91,17.65-25.55,25-30.51,8.84-5.96,11.47-4.8,12.28-4.3,1.27,.79,2.88,2.98,1.39,13.89-1.73,12.69-3.22,23.9-12.32,34.31Z"/></g><path class="cls-10" d="M1886.1,898.85c3.96,2.83,6.82,5.2,8.56,8.83,.62,1.29,2.92,6.08,1.39,11.59-.09,.34-.52,1.83-1.16,2.89-2.68,4.42-11.56,5.43-21.78,3.08-17.3-2.89-27.24-14.91-32.93-21.71-6.84-8.18-5.97-10.91-5.55-11.77,.51-1.04,2.15-3.03,13.67-2.82,8.41,.15,24.84,.63,37.8,9.91Z"/></g><g><g><path class="cls-2" d="M487.15,810.64c-23.58,25.84-41.51,48.63-54.09,65.61-21.25,28.67-27.04,40.42-31.01,51.43-7.09,19.7-7.94,35.9-8.42,58.47-.6,28.51-.59,65.93,1.6,110.58"/><path class="cls-10" d="M485.16,820.03s-9.45,3.71-22.6,17.52c-.5,.52-1.55,1.69-1.62,3.29-.11,2.54,2.35,4.57,3.45,5.45,11.42,9.12,25.36,10.17,25.36,10.17,21.72,1.64,37.27-9.9,46.15-16.42,10.67-7.83,10.43-11.39,10.18-12.55-.39-1.81-2.28-4.62-15.65-7.45-15.56-3.3-29.28-6.27-45.27,0Z"/><path class="cls-10" d="M483.87,750.39c-2.46,15.62-6.11,59.08,3.63,61.3,9.82,2.24,26.85-38.9,27.49-54.6,.27-6.71-.45-14.7-.45-14.7-.42-4.63-.76-8.14-1.96-12.44-1.56-5.57-3.97-14.14-8.35-14.78-4.77-.7-9.71,8.29-12.67,13.68-5.9,10.74-7.5,20.32-7.69,21.55Z"/><path class="cls-10" d="M515.61,765.53c-18.26,13.13-35.01,38.54-29.3,45.58,5.97,7.37,36.22-5.81,52.9-20.71,7.99-7.13,11.8-13.75,14.59-18.71,3.88-6.9,8.36-14.84,5.54-18.49-3.26-4.21-14.56-.55-22.32,1.96-5.3,1.72-12.87,4.23-21.41,10.37Z"/><path class="cls-10" d="M421.25,836.48c2.99,9.2,7.76,14.16,12.73,19.33,2.4,2.5,5.19,4.92,8.56,4.69,1.84-.12,3.72-.92,5.69-3.04,9.94-10.71,12.02-24.54,12.02-24.54,1.25-24.39-6.67-38.06-10.96-44-2.54-3.51-8.21-11.36-13.88-10.35-2.94,.53-5.3,3.34-8.48,11.09-5.35,13.04-11.59,28.63-5.67,46.82Z"/><path class="cls-10" d="M447.12,865.48c-7.86,3.14-11.82,6.97-12.95,8.11-.73,.74-1.52,1.75-1.52,1.75-.59,.7-2.54,3.07-4.87,6.91-1.56,2.56-1.61,3.02-1.62,3.29-.11,2.54,2.35,4.57,3.45,5.45,11.42,9.12,25.36,10.17,25.36,10.17,21.72,1.64,37.27-9.9,46.15-16.42,10.67-7.83,10.43-11.39,10.18-12.55-.3-1.41-1.69-4.29-15.65-7.45-10.19-2.31-30.14-6.61-48.53,.75Z"/><path class="cls-10" d="M387.15,884.36s4.67,9.02,19.77,20.67c.57,.44,1.84,1.37,3.44,1.28,2.54-.15,4.3-2.81,5.06-4,7.89-12.3,7.49-26.27,7.49-26.27-.62-21.78-13.71-36.05-21.11-44.2-8.9-9.8-12.41-9.19-13.54-8.83-1.76,.58-4.36,2.74-5.79,16.33-1.67,15.82-3.21,29.78,4.68,45.02Z"/></g><path class="cls-10" d="M421.97,912.67c-7.86,3.14-11.82,6.97-12.95,8.11-2.82,2.86-1.62,2.83-6.4,8.66-.72,.87-1.56,1.87-1.62,3.29-.11,2.54,2.35,4.57,3.45,5.45,11.42,9.12,25.36,10.17,25.36,10.17,21.72,1.64,37.27-9.9,46.15-16.42,10.67-7.83,10.43-11.39,10.18-12.55-.3-1.41-1.69-4.29-15.65-7.45-10.19-2.31-30.14-6.61-48.53,.75Z"/></g><g><g><circle class="cls-6" cx="1577.17" cy="267.7" r="180.4"/><circle class="cls-12" cx="1577.17" cy="267.7" r="148.93"/></g><g><path class="cls-7" d="M1528.42,401.25c-4.35-2.06-7.78-5.21-15.83-16.7-10.11-14.44-15.16-21.66-19.7-32.31-8.57-20.14-14.23-48.42-16.31-58.78-.55-2.75-1.21-6.25-3.64-10.1-4.25-6.74-9.52-7.59-16.98-14.83,0,0-4.05-3.93-8-9.85-10.18-15.25-6.86-35.55-6.03-41.04,3.71-24.51,19.08-39.59,25.01-45.24,18.44-17.58,39.53-22.02,45.96-23.29,15.14-2.99,17.21,.67,35.7-3.08,17.64-3.58,18.59-7.5,35.7-10.98,13.54-2.75,25.5-5.28,39.7-1.33,4.38,1.22,23.7,7.13,35.08,25.54,13.39,21.66,7.97,47.97,7.69,49.24-.76,3.46-2,7.45-1.85,13.54,.17,6.64,1.88,11.47,6.36,23.8,3.88,10.67,5.82,16.01,6.26,17.13,6.39,16.39,9.31,30.75,12,44.01,5.46,26.88,8.04,40.51,.62,49.55-3.49,4.26-7.69,5.98-12.93,8-27.72,10.69-51.39,16.73-55.7,17.85-37.66,9.73-63.09,17.54-63.09,17.54-8.9,2.74-19.73,6.19-30.03,1.31Z"/><path class="cls-28" d="M1534.53,380.54c-7.54-2.79-11.96-7.86-15.47-11.98-3.5-4.11-8.42-10.98-14.55-29.43-1.43-4.3-9.68-29.19-13.78-49.66-.47-2.33-1.02-5.28-3.07-8.53-3.59-5.69-8.04-6.41-14.35-12.53-1.83-1.82-4.34-4.58-6.76-8.32-12.86-19.84-7.27-42.41-6.58-45,.5-1.89,5.51-19.86,21.75-32.01,0,0,10.82-8.09,34.37-14.35,2.7-.72,5.33-1.21,5.33-1.21,12.79-2.52,14.54,.57,30.16-2.6,14.9-3.02,15.71-6.33,30.16-9.27,11.44-2.33,21.54-4.46,33.54-1.13,3.7,1.03,20.03,6.03,29.64,21.58,11.31,18.3,6.74,40.53,6.5,41.6-.64,2.92-1.69,6.29-1.56,11.44,.14,5.61,1.59,9.69,5.37,20.11,3.47,9.54,.76,3.23,5.29,14.47,9.45,23.44,12.01,25.03,15.7,35.89,3.89,11.46,10.51,30.93,1.64,41.85-1.44,1.77-6.82,3.86-17.6,8.06-18.57,7.22-34.28,11.72-44.85,14.51-.99,.26-1.74,.45-2.21,.57-31.81,8.22-53.3,14.82-53.3,14.82-3.53,1.47-14.06,5.29-25.37,1.11Z"/></g><g><path class="cls-6" d="M1672.1,239.79c14.29,18.66,12.18,50.38,1.92,72.27-3.04,6.49-15.06,32.13-37.09,36.45-13.41,2.63-17.43-5.2-39.66-3.24-13.54,1.19-26.64,5.38-30.24,6.55-14.28,4.64-18.03,8.19-27.94,8.2-10.01,0-17.57-3.6-21.93-5.68-7.21-3.44-17.36-8.29-22.84-19.26-6.93-13.88-1.86-28.51,0-33.89,3.85-11.12,8.24-12.04,13.43-22.38,8.42-16.79,1.68-25.01,6.02-42.72,5.44-22.22,21.9-35.97,27.23-40.42,5.35-4.47,26.99-22.54,57.7-20.05,5.21,.42,31.23,2.54,45.26,20.69,3.98,5.15,4.16,7.93,13.43,22.38,7.84,12.23,11.4,16.78,14.71,21.1Z"/><path class="cls-8" d="M1618.22,266.01c.36,16.18-13.86,29.06-29.26,29.74-14.45,.63-28.83-9.52-31.18-24.22-2.64-16.51,10.91-32.51,27.82-33.81,16.38-1.27,32.24,11.54,32.62,28.3Z"/></g></g><g><rect class="cls-1" x="1859.77" y="419.93" width="40.67" height="17.08" rx="4.21" ry="4.21" transform="translate(350.7 -745.97) rotate(24.68)"/><circle class="cls-1" cx="1812.24" cy="395.52" r="64.89"/><circle class="cls-13" cx="1812.24" cy="395.52" r="53.61"/><path class="cls-30" d="M1865.44,402.14c-.7,5.22-3.05,17.34-12.65,28.43-16.23,18.75-39.33,18.6-41.82,18.54-3.14-.07-23.67-.9-38.87-18.06-2.65-2.99-13-15.35-13.45-34.01-.63-25.91,18.34-41.94,20.81-43.95-1.03,1.31-18.53,24.2-8.64,50.67,.79,2.1,8.34,21.43,27.48,28.47,22.15,8.15,51.09-3.38,67.14-30.1Z"/><circle class="cls-5" cx="1812.24" cy="395.52" r="53.61"/></g><g><rect class="cls-6" x="-79.27" y="638.51" width="448.93" height="394.02" transform="translate(-221.25 70.74) rotate(-15.74)"/><g><line class="cls-14" x1="-93.65" y1="698.16" x2="13.26" y2="1077.4"/><line class="cls-14" x1="-60.12" y1="688.71" x2="46.79" y2="1067.95"/><line class="cls-14" x1="-26.58" y1="679.26" x2="80.32" y2="1058.49"/><line class="cls-14" x1="6.95" y1="669.81" x2="113.85" y2="1049.04"/><line class="cls-14" x1="40.48" y1="660.35" x2="147.38" y2="1039.59"/><line class="cls-14" x1="180.91" y1="1030.14" x2="74.01" y2="650.9"/><line class="cls-14" x1="107.54" y1="641.45" x2="214.45" y2="1020.68"/><line class="cls-14" x1="247.98" y1="1011.23" x2="141.07" y2="632"/><line class="cls-14" x1="174.6" y1="622.54" x2="281.51" y2="1001.78"/><line class="cls-14" x1="315.04" y1="992.33" x2="208.14" y2="613.09"/><line class="cls-14" x1="241.67" y1="603.64" x2="348.57" y2="982.88"/><line class="cls-14" x1="382.1" y1="973.42" x2="275.2" y2="594.19"/><line class="cls-14" x1="-117.45" y1="731.12" x2="315.16" y2="609.17"/><line class="cls-14" x1="324.55" y1="642.51" x2="-108.05" y2="764.46"/><line class="cls-14" x1="-98.65" y1="797.79" x2="333.95" y2="675.84"/><line class="cls-14" x1="342.84" y1="709.32" x2="-89.25" y2="831.13"/><line class="cls-14" x1="-79.86" y1="864.46" x2="352.23" y2="742.66"/><line class="cls-14" x1="362.14" y1="775.85" x2="-70.46" y2="897.8"/><line class="cls-14" x1="-61.06" y1="931.13" x2="371.03" y2="809.33"/><line class="cls-14" x1="380.43" y1="842.66" x2="-51.67" y2="964.47"/><line class="cls-14" x1="-42.27" y1="997.8" x2="390.33" y2="875.86"/><line class="cls-14" x1="399.73" y1="909.19" x2="-32.87" y2="1031.14"/></g></g><g><rect class="cls-6" x="260.09" y="482.69" width="171.16" height="255.93" transform="translate(26.22 -14.12) rotate(2.43)"/><g class="cls-29"><rect class="cls-15" x="280.94" y="503.1" width="131.47" height="167.83" transform="translate(25.22 -14.18) rotate(2.43)"/><circle class="cls-24" cx="391.27" cy="541.07" r="18.11"/><path class="cls-35" d="M283.07,609.42c22.41-4.59,44.82-9.18,67.22-13.77,1.56-.69,3.39-.17,4.34,1.25,5,7.43,9.99,14.85,14.99,22.28,.57,.85,1.49,1.41,2.52,1.53,10.15,1.16,20.3,2.32,30.45,3.49,.31,.04,.61,.11,.9,.22,8.99,3.52,13.39,6.78,13.22,9.76-.34,5.8-18,10.57-52.96,14.31-.11,.01-.55-.04-1.27-.09-15.28-1.19-34.44-4.75-57.57-13.4-7.28-8.52-14.57-17.05-21.85-25.57Z"/><path class="cls-27" d="M277.92,560.26c9.86,4.91,19.73,9.82,29.59,14.73,2.26,.61,3.9,2.56,4.11,4.87l2.12,24.09c.14,1.58,.96,3.03,2.24,3.97l28.7,21.1c.51,.37,1.07,.66,1.67,.84l27.54,8.5c1.91,.59,3.36,2.15,3.8,4.09l1.45,6.41c.5,2.22,2.33,3.91,4.6,4.27l32.63,5.09c3.03,.47,5.11,3.27,4.68,6.27l-2.15,14.81c-.42,2.88-3.01,4.95-5.94,4.74l-133.72-9.24c-3.04-.21-5.36-2.79-5.21-5.81-2.29-23.75-2.88-50.99,.12-80.87,.97-9.71,2.26-19,3.77-27.86Z"/><path class="cls-21" d="M425.27,590.54c-12.73,2.27-25.46,4.54-38.18,6.82-1.25,.22-2.34,1-2.97,2.12l-11.86,20.88c-.55,.97-1.45,1.69-2.5,2.01-11.24,3.38-22.48,6.76-33.71,10.14-.47,.14-.26,.13-1.16,.55-5.66,2.68-11.41,5.08-21.77,8.89-9.25,3.41-8.93,3.06-9.43,3.48-7.99,6.66-5,24.81-1.99,31.28,13.33,28.61,111.11,9.4,123.33,6.91,1.76-29.49,3.51-58.98,5.27-88.47,.18-2.84-2.29-5.1-5.02-4.61Z"/><path class="cls-16" d="M344.09,598.2c6.18,5.26,17.15,4.77,20.09,4.64,5.23-.23,8.02-1.19,12.02,.43,3,1.22,2.55,2.21,4.93,2.83,4.85,1.27,7.64-2.63,14.81-2.36,1.85,.07,3.03,.38,4.59,.72,7.94,1.75,13.04,1.55,35.1,3.19,14.67,1.09,15.48,1.41,18.06,.5,8.2-2.89,15.09-11.44,12.57-17.97-1.56-4.05-6.99-8.03-10.33-6.91-1.67,.56-3.1,2.59-3.06,4.51,.03,1.42,.73,2.62,.76,2.61,.06-.01-.68-3.71-3.03-7.37-1.31-2.03-1.83-2.05-3.34-4.34-1.83-2.76-2.49-4.87-2.93-5.89-2.02-4.7-8.36-7.46-12.96-9.38-6.98-2.91-13.9-2.91-27.75-2.91-3.53,0-8.42,.11-9.43,2.33-.89,1.95,1.66,4.55,.45,5.65-.94,.85-2.66-.57-4.4,.19-3.29,1.44-2.75,9.05-1.02,10.7,.13,.12,.64,.57,.52,.96-.14,.45-.97,.35-1.45,.65-1.67,1.06,2.21,6.34,.33,8.56-.22,.26-.54,.51-2.85,1.02-6.99,1.55-10.97,.81-12.56,3.01-.38,.52-.07,.96-.55,1.38-1.12,.98-3.72,.14-4.68-.15-5.01-1.53-10.98-1.54-22.93-1.56-1.15,0-3.04,.02-3.5,.91-.68,1.32,2.14,3.72,2.55,4.07Z"/><path class="cls-16" d="M310.44,526.49c2.01,2.59,1.68,6.09,1.55,7.56-.25,2.67-1.21,4.13-.27,4.94,.84,.72,2.09-.08,5.14-.13,3.27-.05,7.64,.6,8.19,2.28,.26,.78-.4,1.49,0,1.79,.6,.45,2.53-.73,2.9-.95,4.03-2.34,12.15,.58,17.38,1.9,12.26,3.08,21.91,.72,21.97,1.58,.04,.65-5.53,1.51-9.3,1.79-5.73,.43-9.01-2.23-11.59-.53-1.32,.87-.96,1.74-2.17,2.95-2.6,2.59-7.74,2.03-11.83,1.68-16.87-1.42-25.31-2.13-30.06-.42-1.04,.37-5.28,2.04-7.48,.53-.74-.5-1.12-1.28-1.93-1.26-1.2,.02-1.42,1.74-2.9,2.11-1,.25-1.54-.38-3.74-1.26-2.34-.94-4.66-1.88-6.4-1.16-1.41,.58-1.07,1.7-2.66,2.21-.9,.29-1.85,.16-3.74-.11-1.3-.18-1.98-.28-2.66-.53-2.21-.82-3.21-2.86-3.68-3.81-1.7-3.49-1.78-10.85,3.31-17.67,1.53-2.05,6.59-8.83,12.07-8.21,5.1,.57,8.38,7.29,10.02,6.53,.62-.29,.09-1.27,.85-2.53,1.4-2.33,5.42-2.69,6.49-2.79,3.13-.28,8.09,.38,10.52,3.51Z"/><path class="cls-16" d="M442.61,521.49c-1.53,.62-3.89,3.15-4.87,2.38-.56-.44,.02-1.47-.45-2.25-1.25-2.11-10.65-1.05-15.56,4.63-2.4,2.78-3.24,6.17-4.92,12.96-1.29,5.23-1.44,8.62-4.22,10.25-1.63,.96-4,1.22-4.15,2.47-.11,.91,1.05,1.57,.86,1.91-.33,.56-3.42-1.54-6.98-1.77-4.75-.31-10.01,2.75-10.32,5.78-.16,1.57,.97,2.41,.48,3.46-.5,1.07-2.38,.83-5.59,.89-4.43,.09-8.23,.2-9.03,2.06-.52,1.21,.69,2.13,.17,3.02-.98,1.66-5.28-1.47-11.45-.45-2.38,.4-2.78,1.03-5.26,1.13-2.8,.11-4.25-.62-6.45-1.01-3.94-.7-6.8,.31-9.24,.83-5.65,1.21-9.67-.06-20.82-1.43-14.25-1.74-26.78-1.98-26.85-1.39-.05,.44,6.36,3.19,12.21,3.14,.76,0,2.45-.07,3.88,1.09,1.58,1.28,1.7,3.11,2.2,4.27,1.87,4.33,10.96,3.7,19.86,3.3,0,0,8.4-.37,18.32-.49,9.52-.11,21.69,.33,21.72,1.54,.03,.9-6.73,1.66-6.69,2.35,.08,1.39,27.79-1.34,38.28,2.03,.88,.28,3.89,1.33,8.04,1.41,2.94,.06,4.78-.4,6.29-.61,7.12-.98,11.32,2.8,15.29,3.33,10.08,1.33,27.83-17.63,26.28-37.45-1.3-16.56-15.75-29.53-21.02-27.41Z"/></g><rect class="cls-5" x="280.94" y="503.1" width="131.47" height="167.83" transform="translate(25.22 -14.18) rotate(2.43)"/></g><g><rect class="cls-6" x="107.29" y="456.23" width="171.16" height="255.93" transform="translate(-252.7 159.99) rotate(-28.14)"/><rect class="cls-23" x="115.97" y="479.41" width="131.47" height="167.83" transform="translate(-244.18 152.26) rotate(-28.14)"/><g class="cls-25"><g><path class="cls-36" d="M285.25,602.64c-.5,26.74-22.44,52.68-50.1,52.46-29.41-.23-52.67-29.93-48.88-59.37,3.64-28.23,31.45-50.78,59.31-45.4,24.35,4.69,40.11,29.06,39.67,52.31Z"/><circle class="cls-33" cx="227.57" cy="622.89" r="10.23"/><circle class="cls-33" cx="239.12" cy="570.51" r="10.23"/><path class="cls-36" d="M198.03,606.09c1.45,5.62,2.9,11.25,4.35,16.87-5.11,5.4-16.21,15.5-32.95,18.8-19.11,3.77-43.3-1.78-45.09-11.38-1.76-9.44,18.2-22.29,35.16-26.58,16.75-4.24,31.27-.3,38.53,2.28Z"/><path class="cls-36" d="M219.76,560.51c-4.39,3.81-8.77,7.61-13.16,11.42-7.11-2.17-21.11-7.59-31.53-21.1-11.9-15.42-17.73-39.54-9.93-45.43,7.66-5.79,28.07,6.34,39.48,19.61,11.27,13.11,14.21,27.85,15.14,35.5Z"/><line class="cls-11" x1="234.01" y1="579.44" x2="219.55" y2="577.67"/><line class="cls-11" x1="226.78" y1="613.55" x2="212.32" y2="611.78"/><path class="cls-22" d="M240.24,597.88c-.66,2.71-3.22,5.19-4.68,4.71-1.47-.49-1.58-3.9-1.31-5.85,.35-2.57,1.82-6,3.38-5.93,1.61,.07,3.39,3.88,2.61,7.08Z"/><path class="cls-22" d="M193.28,514.41c-3.4,1.04-9.4,3.37-15.24,8.61-6.25,5.61-9.24,11.81-10.59,15.16-4.15-7.36-5.19-13.8-5.48-17.6-.41-5.3-.93-12.16,3.15-15.19,3.65-2.71,9.1-.96,13.9,.58,6.83,2.19,11.56,5.93,14.25,8.45Z"/><path class="cls-22" d="M146.14,608.66c-.65,3.05-1.61,9.64,.91,17.29,3.28,9.92,10.34,15.25,12.8,16.94-10.71,1.21-18.57-1.06-22.96-2.78-4.99-1.96-11.62-4.56-12.56-9.72-.78-4.31,2.8-8.24,5.9-11.64,5.02-5.51,11.01-8.47,15.91-10.09Z"/></g><g><path class="cls-20" d="M173.37,547.86c-1.69,25.72-23.89,44.97-46.9,46.9-31.35,2.63-61.69-27.12-57.17-58.25,3.7-25.51,29.88-45.56,57.6-42.37,26.45,3.05,48.26,26.56,46.47,53.72Z"/><path class="cls-37" d="M127.48,567.73c-.5,2.75-2.12,4.42-2.65,4.95-.93,.93-2.85,2.85-5.65,2.73-3.38-.15-5.29-3.13-5.61-3.65-1.25-2.04-1.16-4.08-1.11-5.03,.04-.87,.19-3.31,1.98-5.53,.55-.68,2.82-3.51,6.36-3.27,3.56,.24,5.41,3.3,5.71,3.81,1.56,2.58,1.13,5.19,.98,6.01Z"/><path class="cls-37" d="M135.78,528.55c-.29,.77-1.71,4.5-5.52,5.58-.59,.17-3.24,.84-5.76-.68-2.13-1.28-2.86-3.34-3.25-4.44-.3-.84-1.17-3.43-.05-6.4,.3-.78,1.16-2.73,3.25-4.13,.51-.34,3.77-2.54,7.3-1.11,3.19,1.29,4.14,4.55,4.36,5.31,.81,2.79-.03,5.11-.32,5.87Z"/><line class="cls-11" x1="144.78" y1="534.87" x2="130.33" y2="533.1"/><line class="cls-11" x1="139.32" y1="561.17" x2="124.86" y2="559.4"/><path class="cls-37" d="M117.1,542.51c-.73,3.88-3.73,8.6-7.82,8.81-5.06,.27-10.46-6.44-8.94-12.41,1.48-5.78,9.02-9.2,13.38-6.73,3.44,1.95,4,7.05,3.38,10.33Z"/><path class="cls-20" d="M180.78,505.14c.74,9.2-10,17.05-19.37,17.54-7.94,.42-13.5-4.53-14.15-5.13-.87-.8-7.14-6.56-6.21-13.41,1.21-8.87,13.9-15.27,24.33-13.16,6.56,1.33,14.78,6.53,15.39,14.15Z"/><path class="cls-20" d="M156.71,607.91c-3.69,8.59-15.59,11.1-23.85,7.71-9.91-4.07-15.91-17.2-10.92-25.57,4.95-8.31,18.93-8.95,27.27-2.95,5.86,4.22,10.82,13.08,7.51,20.81Z"/></g></g><rect class="cls-5" x="115.97" y="479.41" width="131.47" height="167.83" transform="translate(-244.18 152.26) rotate(-28.14)"/></g><g><g><rect class="cls-3" x="1378.44" y="602.44" width="435.71" height="406.07" transform="translate(79.54 -141.31) rotate(5.2)"/><rect class="cls-4" x="1379.24" y="584.92" width="49" height="406.07" transform="translate(77.16 -123.94) rotate(5.2)"/></g><g><path class="cls-26" d="M1777.59,769.75c-2.64,25.4-40.67,44.42-60.82,32.41-20.19-12.03-22.09-55.04-.19-69.31,12.64-8.24,31.16-5.58,43.7,3.48,9.47,6.83,18.75,19.64,17.31,33.42Z"/><path class="cls-17" d="M1758.57,759.26c-.59,1.52-2.32,2.97-3.97,2.48-1.26-.37-2.08-1.75-2.07-2.94,.03-2.46,3.59-4.49,5.22-3.58,1.1,.62,1.38,2.6,.82,4.04Z"/><g><ellipse class="cls-35" cx="1755.81" cy="732.4" rx="5.95" ry="11.66" transform="translate(-132.61 501.84) rotate(-15.68)"/><ellipse class="cls-35" cx="1764.28" cy="733.99" rx="12.13" ry="5.71" transform="translate(37.61 1552.55) rotate(-47.95)"/><ellipse class="cls-35" cx="1767.1" cy="740.35" rx="13" ry="5.33" transform="translate(-36.11 92.9) rotate(-2.98)"/><ellipse class="cls-35" cx="1759.55" cy="743.01" rx="5.86" ry="11.83" transform="translate(-143.9 900.97) rotate(-27.64)"/><ellipse class="cls-35" cx="1754.19" cy="739.51" rx="12.98" ry="5.34" transform="translate(-73.56 207.15) rotate(-6.62)"/></g><path class="cls-17" d="M1732.04,746.05c-.26,2.58-4.68,4.2-6.11,3.02-.94-.77-.69-2.81,0-4.1,.56-1.05,2.01-2.72,3.76-2.32,1.51,.34,2.49,2.05,2.35,3.4Z"/><path class="cls-17" d="M1738.71,763.55c-.64,2.12-3.77,3.24-4.84,2.36-.78-.64-.52-2.38,.12-3.48,.84-1.42,2.8-2.55,3.96-1.84,.87,.53,1.06,1.96,.76,2.96Z"/><path class="cls-17" d="M1716.12,760.62c-.34,2.22-3,3.91-4.47,3.23-1.27-.59-1.6-2.94-.92-4.59,.49-1.18,1.8-2.76,3.28-2.49,1.51,.28,2.35,2.31,2.11,3.85Z"/><path class="cls-17" d="M1750.99,784.62c-.53,2.09-3.34,3.45-4.71,2.57-.93-.59-1.08-2.14-.74-3.23,.6-1.93,3.07-3.29,4.47-2.48,.97,.56,1.27,2.05,.99,3.14Z"/><path class="cls-17" d="M1729.84,785.93c-.67,1.83-3.2,2.74-4.41,1.87-1-.71-.93-2.49-.5-3.6,.47-1.2,1.74-2.64,3.06-2.4,1.46,.26,2.46,2.46,1.85,4.12Z"/><path class="cls-17" d="M1762.01,771.73c-.46,1.47-2.42,2.45-3.43,1.8-.76-.48-.9-1.81-.51-2.74,.55-1.32,2.31-2.17,3.31-1.54,.74,.47,.89,1.65,.63,2.47Z"/></g><g><path class="cls-26" d="M1677.72,673.95c21.53,13.74,21.49,56.26,1.73,68.89-19.8,12.66-59.1-4.9-62.05-30.88-1.7-14.99,8.97-30.36,22.68-37.51,10.35-5.4,25.96-7.96,37.64-.51Z"/><g><ellipse class="cls-31" cx="1630.08" cy="677.25" rx="6.49" ry="17.65" transform="translate(728.25 2194.66) rotate(-81.84)"/><ellipse class="cls-35" cx="1637.76" cy="669.9" rx="7.88" ry="14.55" transform="translate(-79.5 1096.56) rotate(-36.2)"/><ellipse class="cls-35" cx="1648.29" cy="670.44" rx="15" ry="7.64" transform="translate(161.87 1648.65) rotate(-55.48)"/><ellipse class="cls-35" cx="1647.05" cy="679.08" rx="6.39" ry="17.93" transform="translate(945.26 2316.59) rotate(-89.21)"/><ellipse class="cls-35" cx="1638.78" cy="682.45" rx="14.71" ry="7.79" transform="translate(237.68 1772.53) rotate(-60.49)"/></g><circle class="cls-17" cx="1633.74" cy="707.05" r="3.87"/><path class="cls-17" d="M1653.9,700.47c1.54,1.12,2.12,3.62,1.24,4.47-.95,.92-3.81,.12-4.72-1.74-.43-.88-.6-2.38,.26-3.1,.91-.76,2.43-.2,3.22,.37Z"/><circle class="cls-17" cx="1645.02" cy="724.6" r="3.3"/><path class="cls-17" d="M1678.34,707.45c1.4,1.16,1.56,3.61,.54,4.4-1.02,.79-3.13-.22-4.14-1.54-.12-.15-1.24-1.62-.69-2.65,.59-1.11,2.94-1.32,4.29-.21Z"/><path class="cls-17" d="M1676.48,723.63c1.63,.97,2.8,3.14,2.21,3.93-.71,.95-4.3,.34-5.19-1.7-.36-.82-.39-2.12,.33-2.65,.88-.65,2.33,.22,2.65,.41Z"/><path class="cls-17" d="M1673.58,689.49c1.42,1.03,2.05,3.28,1.24,4.1-.74,.76-2.65,.23-3.74-.74-1.01-.9-1.85-2.64-1.17-3.53,.67-.88,2.55-.64,3.68,.18Z"/><path class="cls-17" d="M1654.98,721.88c1.61,.96,2.63,3.17,1.99,4.06-.84,1.15-4.86,.59-5.8-1.58-.34-.79-.35-1.99,.33-2.65,.92-.88,2.62-.34,3.48,.17Z"/></g><g><path class="cls-18" d="M1520.23,903.19l6.53-71.82c.21-2.29,1.18-4.02,2.8-3.88l1.17,.11c1.62,.15,2.32,1.43,3.21,3.57l28.92,68.73,6.01-66.04c.18-1.93,.79-2.72,2.14-2.6l.63,.06c1.26,.12,1.72,1.01,1.54,2.94l-6.54,71.94c-.21,2.29-1.26,3.89-2.7,3.76l-.36-.03c-1.71-.16-2.09-.92-2.83-2.81l-30.04-71.38-6.17,67.84c-.16,1.81-.79,2.72-2.23,2.59l-.63-.06c-1.26-.11-1.62-1.12-1.46-2.93Z"/><path class="cls-18" d="M1581.35,872.06c2.13-23.38,15.36-39.31,32.36-37.76,17.08,1.55,26.98,19.34,24.85,42.72-2.13,23.38-15.26,39.19-32.34,37.64-16.99-1.55-26.99-19.22-24.86-42.6Zm52.52,4.66c1.82-20-6.62-35.84-20.83-37.13-14.21-1.29-25.16,12.53-27.01,32.78-1.83,20.12,6.63,35.72,20.75,37,14.21,1.29,25.26-12.53,27.09-32.65Z"/><path class="cls-18" d="M1665.69,845.83l-19.15-1.74c-1.35-.12-1.99-1.03-1.84-2.72l.04-.48c.15-1.69,.95-2.46,2.3-2.34l42.8,3.89c1.35,.12,2.08,1.04,1.93,2.73l-.04,.48c-.15,1.69-1.04,2.46-2.39,2.33l-19.06-1.73-6.37,70.01c-.16,1.81-.97,2.71-2.23,2.59l-.72-.07c-1.26-.11-1.8-1.14-1.64-2.94l6.37-70.01Z"/><path class="cls-18" d="M1694.32,917.69l6.41-70.5c.2-2.17,1.42-3.64,2.95-3.5l34.8,3.17c1.35,.12,2.17,1.05,2.03,2.62l-.05,.6c-.16,1.81-1.13,2.45-2.48,2.33l-32.82-2.99-2.71,29.76,25.36,2.31c1.44,.13,2.17,1.05,2.03,2.61l-.03,.36c-.15,1.69-1.04,2.46-2.48,2.33l-25.36-2.31-2.88,31.69,33.63,3.06c1.35,.12,2.08,1.04,1.93,2.73l-.05,.6c-.15,1.69-1.04,2.46-2.39,2.33l-35.61-3.24c-1.53-.14-2.46-1.8-2.27-3.97Z"/><path class="cls-18" d="M1742.4,911.37c.24-2.65,2.88-3.75,3.03-3.37,1.72,6.96,6.74,14.59,16.81,15.5,9.53,.87,15.93-4.75,16.82-14.51,1.02-11.21-6.63-14.82-15.19-18.39-8.73-3.71-17.3-8.14-15.95-22.96,1.12-12.29,10.09-20.22,20.88-19.24,7.82,.71,12.98,4.83,15.59,8.95,1.5,2.44,2.09,4.93,1.95,6.5-.24,2.65-2.89,3.87-3.14,3.6-1.58-6.58-6.43-12.98-14.89-13.75-8.45-.77-15.04,4.83-15.89,14.23-.98,10.72,5.56,13.63,14.29,17.34,9.09,3.74,18.24,8.83,16.87,23.89-1.17,12.89-9.77,20.74-21.73,19.65-8.54-.78-14.29-5.31-17.21-10.07-1.83-2.84-2.38-5.68-2.23-7.37Z"/></g></g><g><rect class="cls-6" x="1466.89" y="527.53" width="164.61" height="320.95" rx="12.62" ry="12.62" transform="translate(-137.48 519.26) rotate(-18.23)"/><rect class="cls-18" x="1475.15" y="552.86" width="144" height="257.88" rx="3.78" ry="3.78" transform="translate(-135.64 518.3) rotate(-18.23)"/><circle class="cls-18" cx="1474.62" cy="559.22" r="3.01"/><circle class="cls-6" cx="1592.97" cy="820.69" r="11.48"/><rect class="cls-18" x="1481.03" y="547.19" width="45.19" height="4.97" rx="2.48" ry="2.48" transform="translate(-96.49 498.05) rotate(-18.23)"/></g></g><path class="cls-5" d="M0,1H1920"/></g></svg>