<?xml version="1.0" encoding="UTF-8"?><svg id="Layer_2" xmlns="http://www.w3.org/2000/svg" viewBox="0 0 24.66 29.07"><defs><style>.cls-1{fill:#5b4e4a;}</style></defs><g id="mobile"><g id="nav"><path class="cls-1" d="M9.43,14.49L.29,1.99C.07,1.68,1.31,.09,2.99,.09c.93,0,1.86,.44,2.52,1.5l6.98,10.16L19.73,1.55c.71-1.1,1.55-1.55,2.34-1.55,1.55,0,2.78,1.59,2.56,1.9L15.31,14.53l9.32,12.55c.22,.31-.97,1.9-2.65,1.9-.88,0-1.86-.44-2.52-1.5l-7.2-10.29-7.33,10.34c-.75,1.19-1.55,1.55-2.34,1.55-1.55,0-2.78-1.59-2.56-1.9L9.43,14.49Z"/></g></g></svg>